<?xml version="1.0" encoding="utf-8"?>
<svg xmlns="http://www.w3.org/2000/svg" version="1.1" xml:space="preserve" viewBox="0 0 1000 480">
	<title>A floor plan with an irregular outline is divided into many small rooms. Some rooms adjacent to outside walls are marked as light. Other rooms are marked as dark. Four rooms show stairways and two of these are marked as halls.</title>
	<path aria-label="L" d="m835.14 293.31-9.7358 0.048-0.0742-15.389 2.0464-0.01 0.0655 13.57 7.6894-0.036z" stroke="#000" stroke-linecap="square" stroke-width=".72"/>
	<path d="m832.52 46.532-7.1554-19.722zm-5.1182 2.0294-7.2958-19.99zm-4.8446 2.0393-7.0152-19.301z" stroke="#000" stroke-linecap="square" stroke-width="1.2"/>
	<path d="m855.25 108.84-11.084-29.683zm-5.1182 2.0294-11.225-29.952zm-5.2416 2.0889-10.746-29.412z" stroke="#000" stroke-linecap="square" stroke-width="1.2"/>
	<path d="m679.51 98.722v15.577m-54.163-15.998v16.074m4.8288-15.868 0.0984 16.272m4.7546-15.916v16.074m5.1917-16.494v16.074m5.0273-15.728-0.0984 15.677m5.0102-15.749v16.074m5.1266-16.258-0.1992 16.173m5.0585-16.402v16.074m4.4902-15.372-0.0984 15.577m5.4305-16.419v16.074m5.0174-15.471-0.0984 15.875m14.371 3.523-68.054 0.1404m47.287 3.5078 23.291-0.32192s1.811-0.67603 2.3527-1.6172c0.6096-1.0588 0.63192-2.5961 0.0408-3.6653-0.50424-0.91196-2.2195-1.6823-2.2195-1.6823l-73.13 0.32877-3.0941 1.766 0.132 3.301 2.873 1.8156 27.742-0.0821m38.083-23.491v16.074" fill="none" stroke="#000" stroke-linecap="square" stroke-width=".72"/>
	<path d="m711.22 367.74-0.0113-19.651m-54.151 20.072-0.0113-20.148m4.8408 19.942 0.0864-20.346m4.7666 19.99-0.0113-20.148m5.2037 20.568-0.0113-20.148m5.0393 19.802-0.1104-19.751m5.0222 19.823-0.0113-20.148m5.1386 20.332-0.2112-20.247m5.0705 20.476-0.0113-20.148m4.5022 19.446-0.1104-19.651m5.4425 20.493-0.0113-20.148m5.0294 19.545-0.1104-19.949m14.371-3.523-68.054-0.1392m47.287-3.5078 28.769-0.096-8e-3 7.5348-79.759-0.2016s-2.3069-0.96096-3.1642-1.7659c-0.81504-0.76512-0.87096-2.4996-0.1464-3.3506 0.82392-0.96768 3.2203-1.7659 3.2203-1.7659l29.074-0.1992m38.095 27.566-0.0113-20.148" fill="none" stroke="#000" stroke-linecap="square" stroke-width=".72"/>
	<path d="m377.38 332.91-19.506 0.1824m20.06-56.45-20.774 0.1824m20.582 4.6452-20.201 0.28128m19.858 4.8516-20.002 0.1824m20.437 5.0064-20.353 0.1824m19.74 4.9142-19.606 0.084m19.972 4.7568-20.002 0.1824m20.201 5.0122-20.313 0.1248m20.345 4.8734-20.002 0.1824m19.804 5.1499-19.506 0.084m19.802 5.3856-20.002 0.1824m19.484 4.9752-19.804 0.084m-3.5539 15.363-0.32424-68.052m-3.379 47.297s-0.1704 29.717 0.168 30.312c0.63768 1.1215 2.1734 1.7462 3.4627 1.7981 1.2566 0.0504 3.6362-1.0049 3.6362-1.0049s-0.18-56.232-0.3756-83.522c0 0-0.73416-2.5164-1.7743-3.0893-0.96456-0.53112-2.3484-0.4116-3.3005 0.1416-0.97944 0.56928-1.8077 2.8778-1.8077 2.8778l0.0888 30.478m27.314 37.457-20.002 0.1824" fill="none" stroke="#000" stroke-linecap="square" stroke-width=".72"/>
	<path d="m194.62 271.59-21.689-0.016m22.558-57.125-22.979 0.28162m22.489 4.7446-22.383 0.0828m22.28 5.6282-22.185-0.016m21.984 5.239-22.185-0.016m22.448 5.1418-21.788-0.1152m21.378 5.7151-21.689-0.1152m21.986 5.8399-21.987-0.2136m21.932 5.568-21.987-0.1152m22.19 5.0026-22.086 0.084m22.645 4.8535-22.681-0.1152m22.08 5.0162-21.987-0.1152m-3.6701 11.218-0.32424-68.052m-3.379 47.297s-0.1704 29.717 0.168 30.312c0.63768 1.1215 2.1734 1.7462 3.4627 1.7981 1.2566 0.0504 3.6362-1.0049 3.6362-1.0049s-0.18-56.232-0.3756-83.522c0 0-0.73416-2.5164-1.7743-3.0893-0.96456-0.53112-2.3484-0.4116-3.3005 0.1416-0.97944 0.56928-1.8077 2.8778-1.8077 2.8778l0.0888 30.478m29.707-26.614-22.582 0.28155" fill="none" stroke="#000" stroke-linecap="square" stroke-width=".72"/>
	<path d="m871.81 153.69-7.1554-19.722zm-5.1182 2.0294-7.2958-19.99zm-4.8446 2.0393-7.0152-19.301z" stroke="#000" stroke-linecap="square" stroke-width="1.2"/>
	<path d="m892.96 211.03-11.084-29.683zm-5.1182 2.0294-11.225-29.952zm-5.2416 2.0889-10.746-29.412z" stroke="#000" stroke-linecap="square" stroke-width="1.2"/>
	<path d="m912.79 264.97-9.8215-26.316zm-5.1182 2.0294-9.9617-26.585zm-4.8446 2.0393-9.6811-25.896z" stroke="#000" stroke-linecap="square" stroke-width="1.2"/>
	<path d="m933.31 318.66-9.8215-26.316zm-5.1182 2.0294-9.9617-26.585zm-4.8446 2.0393-9.6811-25.896z" stroke="#000" stroke-linecap="square" stroke-width="1.2"/>
	<path d="m954.36 376.19-9.8215-26.316zm-5.1182 2.0294-9.9617-26.585zm-4.8446 2.0393-9.6811-25.896z" stroke="#000" stroke-linecap="square" stroke-width="1.2"/>
	<path d="m974.5 429.73-9.8215-26.316zm-5.1182 2.0294-9.9617-26.585zm-4.8446 2.0393-9.6811-25.896z" stroke="#000" stroke-linecap="square" stroke-width="1.2"/>
	<path d="m932.26 450.3-26.378 0.27336zm-0.76846 5.9582-26.028 0.216zm-0.0739 5.898-25.817-7e-3z" stroke="#000" stroke-linecap="square" stroke-width="1.2"/>
	<path d="m737.23 450.23-26.328 0.1248zm-0.7188 5.8094-26.028 0.216zm-0.0744 5.898-25.817-7e-3z" stroke="#000" stroke-linecap="square" stroke-width="1.2"/>
	<path d="m663.19 449.51-26.378 0.27336zm-0.76848 5.9582-26.028 0.216zm-0.0744 5.898-25.817-7e-3z" stroke="#000" stroke-linecap="square" stroke-width="1.2"/>
	<path d="m610.8 449.31-26.378 0.27336zm-0.76848 5.9582-26.028 0.216zm-0.0744 5.898-25.817-7e-3z" stroke="#000" stroke-linecap="square" stroke-width="1.2"/>
	<path d="m536.26 449.27-26.378 0.27335zm-0.76848 5.9582-26.028 0.216zm-0.0744 5.898-25.817-7e-3z" stroke="#000" stroke-linecap="square" stroke-width="1.2"/>
	<path d="m482.38 449.27-26.378 0.27335zm-0.76848 5.9582-26.028 0.216zm-0.0744 5.898-25.817-7e-3z" stroke="#000" stroke-linecap="square" stroke-width="1.2"/>
	<path d="m363.17 448.76-26.378 0.27336zm-0.76848 5.9582-26.028 0.216zm-0.0744 5.898-25.817-7e-3z" stroke="#000" stroke-linecap="square" stroke-width="1.2"/>
	<path d="m425.62 449.19-26.378 0.27335zm-0.76848 5.9582-26.028 0.216zm-0.0744 5.898-25.817-7e-3z" stroke="#000" stroke-linecap="square" stroke-width="1.2"/>
	<path d="m306.77 448.5-26.378 0.27336zm-0.76848 5.9582-26.028 0.216zm-0.0744 5.898-25.817-7e-3z" stroke="#000" stroke-linecap="square" stroke-width="1.2"/>
	<path d="m252.34 448.5-26.378 0.27336zm-0.76848 5.9582-26.028 0.216zm-0.0744 5.898-25.817-7e-3z" stroke="#000" stroke-linecap="square" stroke-width="1.2"/>
	<path d="m183.6 448.47-28.265 0.1752zm-0.76848 5.9582-27.912 0.1176zm-0.0744 5.898-27.703-0.1056z" stroke="#000" stroke-linecap="square" stroke-width="1.2"/>
	<path d="m124.37 448.19-28.265 0.1752zm-0.76848 5.9582-27.912 0.11759zm-0.0744 5.898-27.703-0.1056z" stroke="#000" stroke-linecap="square" stroke-width="1.2"/>
	<path d="m63.411 447.71-26.378 0.27336zm-0.76848 5.9582-26.028 0.216zm-0.0744 5.898-25.817-7e-3z" stroke="#000" stroke-linecap="square" stroke-width="1.2"/>
	<path d="m186.48 21.245-28.265 0.1752zm-0.76848 5.9582-27.912 0.1176zm-0.0744 5.898-27.703-0.1056z" stroke="#000" stroke-linecap="square" stroke-width="1.2"/>
	<path d="m125.16 21.368-28.265 0.1752zm-0.76848 5.9582-27.912 0.1176zm-0.0744 5.898-27.703-0.1056z" stroke="#000" stroke-linecap="square" stroke-width="1.2"/>
	<path d="m65.331 21.591-26.378 0.27336zm-0.76848 5.9582-26.028 0.216zm-0.0744 5.898-25.817-7e-3z" stroke="#000" stroke-linecap="square" stroke-width="1.2"/>
	<path d="m364.13 157.64-28.265 0.1752zm-0.76848 5.9582-27.912 0.1176zm-0.0744 5.898-27.703-0.1056z" stroke="#000" stroke-linecap="square" stroke-width="1.2"/>
	<path d="m305.33 157.62-28.265 0.1752zm-0.76848 5.9582-27.912 0.1176zm-0.0744 5.898-27.703-0.1056z" stroke="#000" stroke-linecap="square" stroke-width="1.2"/>
	<path d="m249.7 157.42-26.378 0.27336zm-0.76848 5.9582-26.028 0.216zm-0.0744 5.898-25.817-7e-3z" stroke="#000" stroke-linecap="square" stroke-width="1.2"/>
	<path d="m120.79 294.08-24.494 0.1752zm0.0264 4.0733-24.838 0.1176zm0.024 3.9137-24.528-6e-3z" stroke="#000" stroke-linecap="square" stroke-width="1.2"/>
	<path d="m80.311 293.89-24.494 0.1752zm0.0264 4.0733-24.838 0.1176zm0.024 3.9137-24.528-6e-3z" stroke="#000" stroke-linecap="square" stroke-width="1.2"/>
	<path d="m82.081 161.53-24.494 0.1752zm0.0264 4.0733-24.838 0.1176zm0.024 3.9137-24.528-6e-3z" stroke="#000" stroke-linecap="square" stroke-width="1.2"/>
	<path d="m122.57 161.53-24.494 0.1752zm0.0264 4.0733-24.838 0.1176zm0.024 3.9137-24.528-6e-3z" stroke="#000" stroke-linecap="square" stroke-width="1.2"/>
	<path d="m257.21 275.46-25.685 0.1752zm0.0264 4.0733-26.028 0.1176zm0.024 3.9137-25.718-6e-3z" stroke="#000" stroke-linecap="square" stroke-width="1.2"/>
	<path d="m293.43 344.17-25.09 0.27456zm-0.27048 3.4778-24.442 0.1176zm-0.0744 3.4176-24.528-6e-3z" stroke="#000" stroke-linecap="square" stroke-width="1.2"/>
	<path d="m433.83 318.49-25.685 0.1752zm0.0264 4.0733-26.028 0.1176zm0.024 3.9137-25.718-6e-3z" stroke="#000" stroke-linecap="square" stroke-width="1.2"/>
	<path d="m474.51 318.18-25.685 0.1752zm0.0264 4.0733-26.028 0.1176zm0.024 3.9137-25.718-6e-3z" stroke="#000" stroke-linecap="square" stroke-width="1.2"/>
	<path d="m557.26 318.18-25.685 0.1752zm0.0264 4.0733-26.028 0.1176zm0.024 3.9137-25.718-6e-3z" stroke="#000" stroke-linecap="square" stroke-width="1.2"/>
	<path d="m596.74 318.56-25.685 0.1752zm0.0264 4.0733-26.028 0.1176zm0.024 3.9137-25.718-6e-3z" stroke="#000" stroke-linecap="square" stroke-width="1.2"/>
	<path d="m138.79 334.88-0.40056-25.682zm-4.0728 0.0624-0.34608-26.026zm-3.9132 0.0576-0.2184-25.718z" stroke="#000" stroke-linecap="square" stroke-width="1.2"/>
	<path d="m139.37 434.34-0.1848-25.685zm-4.0733 0.0288-0.1272-26.028zm-3.9137 0.024-1e-3 -25.718z" stroke="#000" stroke-linecap="square" stroke-width="1.2"/>
	<path d="m139.71 158.95-0.1848-25.685zm-4.0733 0.0288-0.1272-26.028zm-3.9137 0.024-1e-3 -25.718z" stroke="#000" stroke-linecap="square" stroke-width="1.2"/>
	<path d="m139.32 70.628-0.1848-25.685zm-4.0733 0.0288-0.1272-26.028zm-3.9137 0.024-1e-3 -25.718z" stroke="#000" stroke-linecap="square" stroke-width="1.2"/>
	<path d="m316.13 209.44 0.096-31.015zm-4.0733 0.0288 0.1536-31.361zm-3.9137 0.024 0.2796-31.051z" stroke="#000" stroke-linecap="square" stroke-width="1.2"/>
	<path d="m315.63 272.15 0.096-21.193zm-4.0733 0.0288 0.1536-21.537zm-3.9137 0.024 0.2796-21.228z" stroke="#000" stroke-linecap="square" stroke-width="1.2"/>
	<path d="m468.34 64.426 0.1944-29.33zm-7.2482-0.26885 0.1536-29.078zm-5.501 0.32165-0.0181-29.165z" stroke="#000" stroke-linecap="square" stroke-width="1.2"/>
	<path d="m467.74 119.59 0.1944-29.33zm-7.2482-0.26885 0.1536-29.078zm-5.501 0.32165-0.0181-29.165z" stroke="#000" stroke-linecap="square" stroke-width="1.2"/>
	<path d="m467.64 169.7 0.096-28.834zm-6.6528-0.46728-0.0456-26.995zm-5.6004 0.024 0.0816-27.379z" stroke="#000" stroke-linecap="square" stroke-width="1.2"/>
	<path d="m467.93 214.32 0.096-28.834zm-6.6528-0.46728-0.0456-26.995zm-5.6004 0.024 0.0816-27.379z" stroke="#000" stroke-linecap="square" stroke-width="1.2"/>
	<path d="m386.95 376.88 0.2352-22.667zm-5.0554 0.168 0.0133-22.87zm-4.4047 0.0936 0.2088-23.192z" stroke="#000" stroke-linecap="square" stroke-width="1.2"/>
	<path d="m316.54 374.75 0.096-21.193zm-3.2794 0.3264 0.1536-21.537zm-3.4176-0.37296 0.2796-21.228z" stroke="#000" stroke-linecap="square" stroke-width="1.2"/>
	<path d="m316.42 439.71-0.1032-21.442zm-3.2794 0.32641-0.0456-21.785zm-3.2191-0.52177 0.0816-21.476z" stroke="#000" stroke-linecap="square" stroke-width="1.2"/>
	<path d="m452.86 224.29-27.372-0.0232zm0.0264 4.0733-27.715-0.0809zm0.024 3.9137-27.406-0.20472z" stroke="#000" stroke-linecap="square" stroke-width="1.2"/>
	<path d="m621.24 354.75-0.25488-23.789zm-4.0733 0.0288-0.1968-24.132zm-3.9137 0.024-0.072-23.824z" stroke="#000" stroke-linecap="square" stroke-width="1.2"/>
	<path d="m621.58 449.63-0.25488-28.63zm-4.0733 0.0288-0.1968-28.975zm-3.9137 0.024-0.072-28.666z" stroke="#000" stroke-linecap="square" stroke-width="1.2"/>
	<path d="m596.86 184.45 0.0864-16.794zm-4.0733 0.0288 0.144-17.138zm-3.9137 0.024 0.2712-16.828z" stroke="#000" stroke-linecap="square" stroke-width="1.2"/>
	<path d="m596.71 146.38-3e-3 -12.413zm-4.0733 0.0288 0.0552-12.756zm-3.9137 0.024 0.18-12.447z" stroke="#000" stroke-linecap="square" stroke-width="1.2"/>
	<path d="m596.43 123.51 0.096-21.193zm-4.0733 0.0288 0.1536-21.537zm-3.9137 0.024 0.2796-21.228z" stroke="#000" stroke-linecap="square" stroke-width="1.2"/>
	<path d="m597.03 84.615 0.096-21.193zm-4.0733 0.0288 0.1536-21.537zm-3.9137 0.024 0.2796-21.228z" stroke="#000" stroke-linecap="square" stroke-width="1.2"/>
	<path d="m728.26 190.49-0.1944-21.986zm-4.0733 0.0288-0.1368-22.33zm-3.9137 0.024-0.0103-22.02z" stroke="#000" stroke-linecap="square" stroke-width="1.2"/>
	<path d="m728.23 147.68 0.1944-12.363zm-4.0733 0.0288 0.25368-12.707zm-3.9137 0.024 0.37848-12.397z" stroke="#000" stroke-linecap="square" stroke-width="1.2"/>
	<path d="m728.28 122.43-3e-3 -19.507zm-4.0733 0.0288 0.0552-19.851zm-3.9137 0.024 0.18-19.541z" stroke="#000" stroke-linecap="square" stroke-width="1.2"/>
	<path d="m728.71 82.44 0.1656-18.878zm-4.0733 0.0288 0.2232-19.222zm-3.9137 0.024 0.34968-18.912z" stroke="#000" stroke-linecap="square" stroke-width="1.2"/>
	<path d="m759.31 306.75-0.1056-22.252zm-4.0733 0.0288-0.048-22.595zm-3.9137 0.024 0.0768-22.286z" stroke="#000" stroke-linecap="square" stroke-width="1.2"/>
	<path d="m759.41 335.15-0.0576-13.123zm-4.0733 0.0288 2e-3 -13.467zm-3.9137 0.024 0.1272-13.158z" stroke="#000" stroke-linecap="square" stroke-width="1.2"/>
	<path d="m759.22 366.68 0.0432-13.421zm-4.0733 0.0288 0.1008-13.765zm-3.9137 0.024 0.2256-13.455z" stroke="#000" stroke-linecap="square" stroke-width="1.2"/>
	<path d="m759.48 394.88-0.1056-18.184zm-4.0733 0.0288-0.048-18.527zm-3.9137 0.024 0.0768-18.218z" stroke="#000" stroke-linecap="square" stroke-width="1.2"/>
	<path aria-label="L" d="m850.02 400.67-9.7358 0.048-0.0742-15.389 2.0464-0.01 0.0655 13.57 7.6894-0.036z" stroke="#000" stroke-linecap="square" stroke-width=".72"/>
	<path d="m954.65 374.72 10.949 29.342-11.722 4.5982-11.195-29.388z" stroke-width="24"/>
	<path d="m930.91 449.87 38.443-0.4392-6.1728-15.814 12.132-4.811 13.409 34.097-57.967-0.192z" stroke-width="24"/>
	<path d="m912.73 263.36 11.887 29.882-11.343 4.4429-11.636-29.551z" stroke-width="24"/>
	<path d="m760.06 333.59-0.048 8.4708 169.57 0.3648-8.2008-19.753 12.519-5.0743 12.759 34.414-11.586 4.4899-3.329-7.7532-171.78 0.6552-0.0199 6.223-9.2472 0.024-0.0192-22.111z" stroke-width="24"/>
	<path d="m750.51 449.77 0.192-57.168 9.8681-0.216-0.2808 57.178 69.989 1.044-1.1016-8.8798 8.6472 0.048 3.4694 8.6606 22.121-0.048 4.7772-7.2475 8.711-0.2784-1.7088 7.0358 31.097-0.12-5e-3 13.122-170.19-0.072 0.24-13.058z" stroke-width="24"/>
	<path d="m843.91 112.9 11.941-4.5511 10.353 27.154-11.775 4.1138" stroke-width="24"/>
	<path d="m853.25 134.65-124.27-0.4296-0.096 2.2632-8.9717-0.024 0.12-14.725 8.8315-0.072-0.0209 4.4184 121.64-0.16799" stroke-width="24"/>
	<path d="m860.88 157.3 11.344-4.1714 10.496 29.038-11.011 3.9466" stroke-width="24"/>
	<path d="m621.96 366.71 128.68 0.86399-0.024-3.053 9.4944-0.024-0.072 13.738-9.2023 0.072-0.12-4.3397-31.843 2e-3h-30.206l0.4032 75.53 22.009 0.048-0.12 12.387-48.634-0.096 0.192-12.372 17.159-0.072-0.9-75.442-56.842 0.072 0.072 47.405-8.9095 0.096-0.168-67.798 9.1049-0.048z" stroke-width="24"/>
	<path d="m636.65 461.82-28.428 0.048-0.096-12.721 28.546-0.168z" stroke-width="24"/>
	<path d="m541.49 448.93-0.024-7.2142 9.5906-0.29039s0.252 3.4831 3.4262 6.8419c0.984 1.0416 6.0953 1.4856 6.0953 1.4856s5.2651-0.864 6.2935-1.5792c4.0267-2.807 3.1606-6.4452 3.1606-6.4452l10.048-0.3024 0.12 7.8211 6.6194 0.048 0.072 12.238-52.051-0.072-0.144-12.446z" stroke-width="24"/>
	<path d="m468.72 166.63-0.0199 27.444-14.434-0.2424-0.0199-27.334z" stroke-width="24"/>
	<path d="m468.63 119.14-0.024 6.33 119.36-0.2568-0.072-4.8408 9.1973-0.096 0.2712 15.57-9.1382 0.072-0.216-4.2917-119.34 0.9936 0.12 11.438-14.28 5e-3 -0.096-24.965z" stroke-width="24"/>
	<path d="m454.42 62.655 14.197-0.0124 0.072 28.74-14.291-0.1416z" stroke-width="24"/>
	<path d="m821.41 49.923 11.199-4.7474 12.84 35.318-11.638 4.3987" stroke-width="24"/>
	<path d="m438.94 317.67 0.54-85.411-6.0854-0.024 0.096-8.2253 13.348-0.12-0.6816 93.787 4.8722-0.096 0.048 9.3538-19.666-0.0101 0.024-9.1757z" stroke-width="24"/>
	<path d="m459.29 448.74-0.072 12.894-36.506 0.072 0.216-12.753z" stroke-width="24"/>
	<path d="m309.58 448.19-0.048-9.3108 7.5307-0.16801 3e-3 9.3146 19.913-0.144 0.024 12.732-31.97-0.12 0.12-12.26z" stroke-width="24"/>
	<path d="m301.01 156.75 34.274 0.0122 0.0178 13.595-18.307-0.168-0.024 8.7403-9.295-0.072 0.0206-8.2596-6.6122-0.096z" stroke-width="24"/>
	<path d="m283.54 447.73-0.12 13.194-33.518-0.072v-12.984z" stroke-width="24"/>
	<path d="m277.42 156.56 0.12 13.918-29.832 0.096-0.048-13.728z" stroke-width="24"/>
	<path d="m130.92 447.61 0.168-16.345 8.975-0.12 0.072 16.747 15.692-0.072 0.3336 12.899-33.739 0.024-4e-3 -13.085z" stroke-width="24"/>
	<path d="m158.31 20.012 0.24 13.856-18.421 0.47856 0.144 14.268-9.5117 0.2136-0.072-14.244-9.5947 0.1848-0.3312-14.506z" stroke-width="24"/>
	<path d="m99.631 20.403v14.224h-36.576v-14.224z" stroke-width="24"/>
	<path d="m101.02 447.47 0.048 12.856-39.439-0.024 0.168-12.746z" stroke-width="24"/>
	<path d="m85.321 170.09-5.7065 0.048 3e-3 -8.8973 19.679-0.3312 0.048 8.9508-7.1172 0.12-0.3 123.5 6.6266-0.168-0.048 9.1481-21.329 0.48 0.12-9.3463 8.1576-0.12z" stroke-width="24"/>
	<path d="m42.871 20.837 0.144 13.432-16.778 0.1368 0.168 39.204 9.2026-0.0229 0.024 10.556s-6.0072 1.3939-7.7328 3.8976c-1.3584 1.9716-1.6728 22.393-0.588 23.901 2.172 3.0182 8.2015 4.6872 8.2015 4.6872l0.12 8.7346-9.3694-2e-3 0.4632 35.832 32.386-0.072-0.3336 8.6518-32.306 0.192 0.168 56.722 58.908 0.024 0.096 8.8138-59.035 0.5928-0.5712 56.837 30.739 0.7296 0.12 8.5877-31.034 0.42-0.4224 42.672 11.007 0.144-0.072 9.432s-6.8124 2.3112-10.727 5.851c-1.2624 1.5888-1.3296 18.25 0.348 19.706 4.8792 4.2185 10.446 7.1674 10.446 7.1674l-0.072 8.9239-10.929-0.2808 0.12 51.012 15.048-0.12 0.096 13.5h-28.284l-0.144-221.95 0.144-218.18z" stroke-width="24"/>
	<path d="m146.19 226.73-0.168-55.759-25.044 3e-3 0.0206-9.7913 9.8957-0.144 0.168-3.6782 8.8728-0.2952 0.144 3.5743 16.153-0.048s0.12 86.933-0.2688 142.5l-16.187 0.3936 0.0209 9.461-9.8719 0.048-0.096-9.8472-9.553-0.12-0.072-9.3425 26.592-0.4176s-0.3432-39.142-0.3408-58.73l-57.708 0.8592 0.6-7.955z" stroke-width="24"/>
	<path d="m193.56 118.53-0.3336-15.039-7.2122 0.0106-0.096-13.882 6.8278-0.2112 0.168-25.754-7.4141-4.698-0.2472-13.265 4.4126-0.2892 2.7269 4.9234 0.4944-16.489-6.8976-0.2256-0.3048-13.45 20.757 0.1104 0.6936 136.39 18.352 0.3384-0.144 13.125-18.211 0.048-0.3288 23.19 8.3606 0.048-0.048 10.087s-4.5852 0.7896-7.6337 4.5271c-0.9216 1.1304-1.9704 9.4853-1.9704 9.4853s0.6072 9.6499 1.6584 10.807c3.2532 3.5786 8.3527 6.4248 8.3527 6.4248l-0.0199 7.7518-10.934 0.072 0.396 32.429 27.362 0.4464-0.0127 9.1392-27.151-0.12 0.2976 89.623 10.041 0.4248 0.12 10.311s-6.4946 1.1136-8.9498 4.8166c-0.8688 1.3128-1.1112 9.7538-1.1112 9.7538s0.8736 8.6782 1.7064 9.5362c3.1265 3.2198 7.9577 5.333 7.9577 5.333l-0.12 8.3813-9.5448 0.096 0.192 24.991 25.92 0.192v13.43l-49.027-0.072-0.048-13.302 10.242 0.024 3e-3 -25.476-9.4478 0.3648-0.4008-12.075s6.9708-0.096 8.9736-3.1663c1.0368-1.5864 1.0728-8.0635 1.0728-8.0635s0.048-8.345-1.2744-9.5647c-3.4978-3.2362-8.159-4.6082-8.159-4.6082l0.24-11.005 10.115-0.168-0.24-245.16z" stroke-width="24"/>
	<path d="m139.75 69.171 0.192 50.801 54.554 0.2952-0.216 9.2323-54.065 0.12-0.096 6.4826-8.9597 0.048-0.168-66.881 8.7706-0.096z" stroke-width="24"/>
	<path d="m195.31 351.61-55.277 0.024 0.168 58.802-9.521-0.096-1.0008-75.722 10.309 0.096-0.0175 8.6916 54.998 0.192z" stroke-width="24"/>
	<path d="m200.59 343.62 60.768-0.3648 0.072-59.376-4.7724 0.048-0.144-8.8817 50.69-0.096 0.048-4.5398 8.8644-0.024-0.024 4.6795 12.002 0.048-0.144 76.841-10.592-0.072-0.072 3.8702-7.7419 0.024 0.12-3.2743-18.549-0.168 0.048-8.8399 28.81-0.048 0.216-59.618-52.234 0.2808 0.144 59.256 5.9962-0.096 0.024 8.3909-73.025 0.4968z" stroke-width="24"/>
	<path d="m307.51 208.12 9.1171 0.0221-0.216 29.455 59.578 0.24-0.5616-67.618-14.339-0.048-0.144-12.949 26.916 0.3432 0.516 66.139 38.246-0.096-0.3048 8.61-38.042 0.0158 0.072 85.663 22.366-0.168-0.096 9.2611-22.246 0.072-0.072 28.049-11.943 1e-3 -0.5616-109.33-59.707 0.3336 0.168 7.8667-8.964-0.144z" stroke-width="24"/>
	<path d="m396.31 375.8-0.192 9.3538s-5.0333 2.088-6.8419 4.649c-1.3272 1.8792-1.0872 8.25-1.0872 8.25s0.684 8.129 1.0872 9.0924c1.5648 3.7486 7.338 4.5874 7.338 4.5874l-0.096 7.6565-8.7271-2e-3 0.12 28.361 13.648 0.024 0.096 13.567-39.538 0.144-0.0221-13.617 14.272-0.072-0.276-57.562h-59.04l0.0168 28.445-7.6058 0.048 7e-3 -44.664 7.4477-0.096-0.072 7.7122 59.326 0.024-0.096-5.7998z" stroke-width="24"/>
	<path d="m815.1 32.038c-2.0232-4.7227-2.1648-6.0007-2.1648-6.0007l-18.83 0.31224 0.6912 5.7542-10.166-0.0768-3.6175-5.5867-13.352 0.45024-5.0179 5.6095-11.137 0.29592 0.192-7.655-22.327-0.2184 0.312 39.962-9.6823 0.2112-0.4728-39.998-56.897 0.1392-0.7368 64.879-7.9476 0.1992 0.396-64.459h-56.686l0.048 37.877-9.5702 0.1512v-38.345l-35.093 0.2112-4e-3 6.6041-12.093 0.38184-1.4976-6.4637-19.655 0.1392-2.2056 5.9026-11.491-0.0312-0.3984-6.8846-36.25-0.1392c0.048 4.0738-0.024 7.3502-0.12 11.422l-15.426-0.31752c0.096-8.0287 0.144-16.058 0.216-24.086l368.77 0.0361 3.6821 15.63" stroke-width="24"/>
	<path d="m719.95 89.48-4e-3 -7.441 9.2558 0.0209-0.144 21.786-9.21-0.0624 0.192-4.4638-123 0.204-9.6e-4 4.338-9.1658-0.23761 0.492-21.274 9.115 0.0264 0.012 6.9672" stroke-width="24"/>
	<path d="m455.35 223.34-0.144-12.432 13.258-0.096 0.24 12.437 27.338-0.168 0.072-7.3678 9.6521 5e-3 1.956 7.0831 25.807-0.024 2.5738-7.2562 10.251 5e-3 0.168 7.4374 41.381 0.192 0.3216-39.962 9.2429 0.168v40.294l121.9-8e-3 0.24-33.672 9.713-0.024 9.6e-4 34.301 60.715-0.5664 0.2664-9.0845 7.5502 0.276 6.4829 8.6806 16.107-0.2472 4.9442-7.5718 9.0653-0.096 0.072 8.6582 49.961-0.192-3.7692-10.466 12.266-4.4304 11.51 30.958-11.988 4.6879-4.2694-11.042-53.489 0.696-0.048 7.7496-11.321 0.192-3.695-7.2122-14.338-1.3584-5.5075 7.7712-9.3924 0.8064-0.168-8.9124-30.233 0.096v52.19h-9.1637l0.072-52.193-95.16 0.096-0.12 78.586 94.951 0.264-0.048-7.3447 9.5702-0.024 3e-3 18.314-9.271 0.0209-0.0226-4.283-102.13-0.276-0.5376-85.037-109.4-0.5496 0.192 36.024 82.447 0.9552 0.12 61.814-9.299-0.168-0.0223-4.7842-20.056 0.048-0.12-9.2232 19.709-0.192 0.096-40.32-46.882-0.336 0.12 40.174 8.1331-5e-3 0.048 9.8129-20.028-0.024 3e-3 -9.8395 6.3214 0.12-0.2808-40.373-27.096-0.3456-0.6072-43.824-25.618-0.048 0.24 84.578 28.31-0.144 0.12 9.1152-28.589 0.144 0.5184 122.65 5.9374-0.0115 0.144 12.255-32.798 0.144 0.2808-12.463 19.935 0.024-1.416-122.2-26.333-0.12 0.024-9.2494 26.275-0.12-0.672-84.622-46.068 0.192-0.048-9.5676z" stroke-width="24"/>
	<path d="m654.34 223.61v-62.993c-18.835-0.48-37.678 0.048-56.515 0.2808l-0.144 7.4302-9.2299 0.096-0.4008-23.823 9.6931-0.12-0.024 7.9757 121.93 0.4512 8e-3 -6.9763 9.3101-0.024-0.048 23.003-9.2558-0.024 5e-3 -8.1331-57.178-0.144v62.993z" stroke-width="24"/>
	<path aria-label="L" d="m799.23 182.61-9.7358 0.047-0.0742-15.389 2.0464-0.01 0.0655 13.57 7.6894-0.037z" stroke="#000" stroke-linecap="square" stroke-width=".72"/>
	<path aria-label="L" d="m781.55 84.946-9.7358 0.047-0.0742-15.389 2.0464-0.01 0.0655 13.57 7.6894-0.037z" stroke="#000" stroke-linecap="square" stroke-width=".72"/>
	<path aria-label="L" d="m534.87 85.508-9.7358 0.047-0.0744-15.389 2.0465-0.01 0.0648 13.57 7.6894-0.037z" stroke="#000" stroke-linecap="square" stroke-width=".72"/>
	<path aria-label="L" d="m532.9 181.77-9.7358 0.047-0.0744-15.389 2.0465-0.01 0.0648 13.57 7.6894-0.037z" stroke="#000" stroke-linecap="square" stroke-width=".72"/>
	<path aria-label="L" d="m562.32 392.15-9.7358 0.048-0.0744-15.389 2.0465-0.01 0.0648 13.57 7.6894-0.036z" stroke="#000" stroke-linecap="square" stroke-width=".72"/>
	<path aria-label="L" d="m442.75 392.94-9.7358 0.048-0.0744-15.389 2.0465-0.01 0.0648 13.57 7.6894-0.036z" stroke="#000" stroke-linecap="square" stroke-width=".72"/>
	<path aria-label="L" d="m266.52 228.06-9.7358 0.047-0.0744-15.389 2.0465-0.01 0.0648 13.57 7.6894-0.037z" stroke="#000" stroke-linecap="square" stroke-width=".72"/>
	<path aria-label="L" d="m260.69 405.15-9.7358 0.048-0.0744-15.389 2.0465-0.01 0.0648 13.57 7.6894-0.036z" stroke="#000" stroke-linecap="square" stroke-width=".72"/>
	<path aria-label="L" d="m78.051 378.35-9.7356 0.048-0.0744-15.389 2.0465-0.01 0.0648 13.57 7.6894-0.036z" stroke="#000" stroke-linecap="square" stroke-width=".72"/>
	<path aria-label="L" d="m86.041 98.82-9.7358 0.047-0.0744-15.389 2.0465-0.01 0.0648 13.57 7.6894-0.037z" stroke="#000" stroke-linecap="square" stroke-width=".72"/>
	<path aria-label="D" d="m707.28 273.39q0.0129 2.0981-0.89664 3.809-0.89904 1.7107-2.4125 2.6606-1.05 0.6576-2.3506 0.95496-1.2902 0.29736-3.4087 0.31032l-3.8861 0.0239-0.0936-15.389 3.8446-0.0236q2.2531-0.0138 3.5779 0.30864 1.3351 0.31224 2.2586 0.8748 1.577 0.97224 2.4655 2.5997t0.90216 3.8702zm-2.1396-0.0181q-0.0111-1.8086-0.6492-3.0449-0.63816-1.2365-1.8931-1.9418-0.91272-0.5112-1.937-0.70128-1.0243-0.1992-2.4506-0.192l-1.9224 0.0118 0.072 11.875 1.9224-0.0118q1.4779-9e-3 2.5721-0.2328 1.1045-0.2232 2.0208-0.81864 1.1426-0.74088 1.7038-1.9433 0.57144-1.2024 0.5604-3.0007z" stroke="#000" stroke-linecap="square" stroke-width=".72"/>
	<path aria-label="D" d="m725.55 409.93q0.0129 2.0981-0.89664 3.809-0.89904 1.711-2.4125 2.6606-1.0502 0.6576-2.3508 0.95496-1.29 0.29736-3.4087 0.31032l-3.8861 0.0238-0.0936-15.389 3.8446-0.0236q2.2531-0.0138 3.5779 0.30888 1.3351 0.31224 2.2586 0.87504 1.577 0.97225 2.4655 2.5997 0.88848 1.6274 0.90216 3.8702zm-2.1396-0.0181q-0.0111-1.8086-0.6492-3.0449-0.63816-1.2365-1.8931-1.9418-0.91272-0.5112-1.937-0.70128-1.0243-0.1992-2.4506-0.192l-1.9224 0.0118 0.072 11.875 1.9224-0.0118q1.4779-9e-3 2.5721-0.2328 1.1045-0.2232 2.0206-0.81864 1.1426-0.74088 1.7038-1.9433 0.57144-1.2024 0.5604-3.0007z" stroke="#000" stroke-linecap="square" stroke-width=".72"/>
	<path aria-label="D" d="m655.3 410.31q0.0129 2.0981-0.89664 3.809-0.89904 1.711-2.4125 2.6606-1.05 0.6576-2.3508 0.95496-1.29 0.29735-3.4087 0.31032l-3.8861 0.0238-0.0936-15.389 3.8446-0.0236q2.2531-0.0138 3.5779 0.30888 1.3351 0.31224 2.2586 0.8748 1.577 0.97224 2.4655 2.5997t0.90216 3.8702zm-2.1396-0.0181q-0.0111-1.8086-0.6492-3.0449-0.63816-1.2365-1.8931-1.9418-0.91272-0.5112-1.937-0.70128-1.0243-0.1992-2.4506-0.192l-1.9224 0.0118 0.072 11.875 1.9224-0.0118q1.4779-9e-3 2.5721-0.2328 1.1045-0.2232 2.0206-0.81864 1.1426-0.74064 1.704-1.9433 0.57144-1.2024 0.5604-3.0007z" stroke="#000" stroke-linecap="square" stroke-width=".72"/>
	<path aria-label="D" d="m596.16 297.61q0.0129 2.0981-0.89664 3.809-0.89904 1.711-2.4125 2.6606-1.05 0.6576-2.3506 0.95496-1.2902 0.29736-3.4087 0.31032l-3.8861 0.0238-0.0936-15.389 3.8446-0.0236q2.2531-0.0138 3.5779 0.30888 1.3351 0.31224 2.2584 0.87504 1.577 0.97224 2.4655 2.5997t0.90216 3.8702zm-2.1396-0.0181q-0.0111-1.8086-0.6492-3.0449-0.63816-1.2365-1.8931-1.9418-0.91272-0.5112-1.937-0.70104-1.0243-0.1992-2.4506-0.192l-1.9224 0.0118 0.072 11.875 1.9224-0.0118q1.4779-9e-3 2.5721-0.2328 1.1045-0.2232 2.0208-0.81864 1.1426-0.74064 1.7038-1.9433 0.57144-1.2024 0.5604-3.0007z" stroke="#000" stroke-linecap="square" stroke-width=".72"/>
	<path aria-label="D" d="m539.81 294.83q0.0129 2.0981-0.89664 3.809-0.89904 1.7107-2.4125 2.6606-1.05 0.6576-2.3508 0.95496-1.2902 0.29736-3.4087 0.31032l-3.8861 0.0238-0.0936-15.389 3.8446-0.0236q2.2531-0.0138 3.5779 0.30864 1.3351 0.31224 2.2586 0.8748 1.577 0.97224 2.4655 2.5997t0.90216 3.8702zm-2.1396-0.0181q-0.0111-1.8086-0.6492-3.0451-0.63816-1.2365-1.8931-1.9418-0.91272-0.5112-1.937-0.70128-1.0243-0.1992-2.4506-0.192l-1.9224 0.0118 0.072 11.875 1.9224-0.0118q1.4779-9e-3 2.5721-0.2328 1.1045-0.2232 2.0206-0.81864 1.1426-0.74088 1.7038-1.9433 0.57144-1.2024 0.5604-3.0007z" stroke="#000" stroke-linecap="square" stroke-width=".72"/>
	<path aria-label="D" d="m631.49 192.43q0.0129 2.098-0.89664 3.809-0.89904 1.7109-2.4125 2.6606-1.05 0.65758-2.3508 0.95496-1.2902 0.29731-3.4087 0.31032l-3.8861 0.0238-0.0936-15.389 3.8446-0.0236q2.2531-0.0138 3.5779 0.30879 1.3351 0.31221 2.2586 0.87499 1.577 0.97219 2.4655 2.5997 0.88848 1.6276 0.90216 3.8702zm-2.1396-0.0178q-0.0111-1.8086-0.6492-3.0449-0.63816-1.2363-1.8931-1.9418-0.91272-0.51118-1.937-0.70126-1.0243-0.2004-2.4506-0.19152l-1.9224 0.0118 0.072 11.875 1.9224-0.0118q1.4779-9e-3 2.5721-0.2328 1.1045-0.22368 2.0208-0.81856 1.1426-0.74084 1.7038-1.9432 0.57144-1.2024 0.5604-3.0007z" stroke="#000" stroke-linecap="square" stroke-width=".72"/>
	<path aria-label="D" d="m697.37 193.62q0.0129 2.098-0.89664 3.809-0.89904 1.7109-2.4125 2.6606-1.05 0.65758-2.3506 0.95496-1.2902 0.29731-3.4087 0.31032l-3.8861 0.0238-0.0936-15.389 3.8446-0.0236q2.2531-0.0138 3.5779 0.30879 1.3351 0.31221 2.2584 0.87499 1.577 0.97221 2.4655 2.5997 0.88848 1.6276 0.90216 3.8702zm-2.1396-0.0178q-0.0111-1.8086-0.6492-3.0449-0.63816-1.2363-1.8931-1.9418-0.91272-0.51118-1.937-0.70126-1.0243-0.2004-2.4506-0.19152l-1.9224 0.0118 0.072 11.875 1.9224-0.0118q1.4779-9e-3 2.5721-0.2328 1.1045-0.22368 2.0208-0.81856 1.1426-0.74084 1.704-1.9432 0.57144-1.2024 0.5604-3.0007z" stroke="#000" stroke-linecap="square" stroke-width=".72"/>
	<path aria-label="D" d="m699.75 57.094q0.0129 2.098-0.89664 3.809-0.89904 1.7109-2.4125 2.6606-1.0502 0.65757-2.3508 0.95496-1.2902 0.29731-3.4087 0.31032l-3.8861 0.0238-0.0936-15.389 3.8446-0.0236q2.2531-0.0138 3.5779 0.30878 1.3351 0.31222 2.2584 0.875 1.577 0.97219 2.4655 2.5997 0.88848 1.6276 0.90216 3.8702zm-2.1396-0.0178q-0.0111-1.8086-0.6492-3.0449-0.63816-1.2363-1.8931-1.9418-0.91272-0.51118-1.937-0.70126-1.0243-0.2004-2.4506-0.19152l-1.9224 0.0118 0.072 11.875 1.9224-0.0118q1.4779-9e-3 2.5721-0.2328 1.1045-0.22368 2.0206-0.81857 1.1426-0.74083 1.7038-1.9432 0.57144-1.2024 0.5604-3.0007z" stroke="#000" stroke-linecap="square" stroke-width=".72"/>
	<path aria-label="D" d="m633.48 55.904q0.0129 2.098-0.89664 3.809-0.89904 1.7109-2.4125 2.6606-1.05 0.65757-2.3506 0.95493-1.2902 0.29731-3.4087 0.31032l-3.8861 0.0238-0.0936-15.389 3.8446-0.0236q2.2531-0.0138 3.5779 0.30878 1.3351 0.31222 2.2586 0.87499 1.577 0.9722 2.4655 2.5997 0.88848 1.6276 0.90216 3.8702zm-2.1396-0.0178q-0.0111-1.8086-0.6492-3.0449-0.63816-1.2363-1.8931-1.9418-0.91272-0.51118-1.937-0.70126-1.0243-0.2004-2.4506-0.19152l-1.9224 0.0118 0.072 11.875 1.9224-0.0118q1.4779-9e-3 2.5721-0.2328 1.1045-0.22368 2.0208-0.81857 1.1426-0.74083 1.704-1.9432 0.57144-1.2024 0.5604-3.0007z" stroke="#000" stroke-linecap="square" stroke-width=".72"/>
	<path aria-label="D" d="m478.08 277.43q0.0129 2.0981-0.89664 3.809-0.89904 1.7107-2.4125 2.6606-1.0502 0.6576-2.3508 0.95496-1.29 0.29736-3.4087 0.31032l-3.8861 0.0238-0.0936-15.389 3.8446-0.0236q2.2531-0.0138 3.5779 0.30864 1.3351 0.31224 2.2586 0.8748 1.577 0.97224 2.4655 2.5997t0.90216 3.8702zm-2.1396-0.0181q-0.0111-1.8086-0.6492-3.0451-0.63816-1.2365-1.8931-1.9418-0.91272-0.5112-1.937-0.70128-1.0243-0.1992-2.4506-0.192l-1.9224 0.0118 0.072 11.875 1.9224-0.0118q1.4779-9e-3 2.5721-0.2328 1.1045-0.2232 2.0208-0.81864 1.1426-0.74064 1.7038-1.9433 0.57144-1.2024 0.5604-3.0007z" stroke="#000" stroke-linecap="square" stroke-width=".72"/>
	<path aria-label="D" d="m420.27 278.55q0.0129 2.0981-0.89664 3.809-0.89904 1.711-2.4125 2.6606-1.0502 0.6576-2.3508 0.95496-1.2902 0.29736-3.4087 0.31032l-3.8861 0.0238-0.0936-15.389 3.8446-0.0236q2.2531-0.0138 3.5779 0.30864 1.3351 0.31224 2.2586 0.87504 1.577 0.97224 2.4655 2.5997t0.90216 3.8702zm-2.1396-0.0181q-0.0111-1.8086-0.6492-3.0451-0.63816-1.2365-1.8931-1.9418-0.91272-0.5112-1.937-0.70128-1.0243-0.1992-2.4506-0.192l-1.9224 0.0118 0.072 11.875 1.9224-0.0118q1.4779-9e-3 2.5721-0.2328 1.1045-0.2232 2.0208-0.81864 1.1426-0.74088 1.7038-1.9433 0.57144-1.2024 0.5604-3.0007z" stroke="#000" stroke-linecap="square" stroke-width=".72"/>
	<path aria-label="D" d="m350.67 204.46q0.0129 2.098-0.89664 3.809-0.89904 1.7109-2.4125 2.6606-1.0502 0.65758-2.3508 0.95496-1.2902 0.29731-3.4087 0.31032l-3.8861 0.0238-0.0936-15.389 3.8446-0.0236q2.2531-0.0138 3.5779 0.30879 1.3351 0.31221 2.2584 0.87499 1.577 0.97219 2.4655 2.5997 0.88848 1.6276 0.90216 3.8702zm-2.1396-0.0178q-0.0111-1.8086-0.6492-3.0449-0.63816-1.2363-1.8931-1.9418-0.91272-0.51118-1.937-0.70126-1.0243-0.2004-2.4506-0.19152l-1.9224 0.0118 0.072 11.875 1.9224-0.0118q1.4779-9e-3 2.5721-0.2328 1.1045-0.22368 2.0208-0.81856 1.1426-0.74084 1.7038-1.9432 0.57144-1.2024 0.5604-3.0007z" stroke="#000" stroke-linecap="square" stroke-width=".72"/>
	<path aria-label="D" d="m350.67 419.43q0.0129 2.0981-0.89664 3.809-0.89904 1.711-2.4125 2.6606-1.05 0.6576-2.3508 0.95496-1.29 0.29736-3.4087 0.31033l-3.8861 0.0238-0.0936-15.389 3.8446-0.0236q2.2531-0.0138 3.5779 0.30888 1.3351 0.31224 2.2586 0.8748 1.577 0.97224 2.4655 2.5997t0.90216 3.8702zm-2.1396-0.0181q-0.0111-1.8086-0.6492-3.0449-0.63816-1.2365-1.8931-1.9418-0.91272-0.5112-1.937-0.70128-1.0243-0.1992-2.4506-0.192l-1.9224 0.0118 0.072 11.875 1.9224-0.0118q1.4779-9e-3 2.5721-0.2328 1.1045-0.2232 2.0208-0.81864 1.1426-0.74064 1.7038-1.9433 0.57144-1.2024 0.5604-3.0007z" stroke="#000" stroke-linecap="square" stroke-width=".72"/>
	<path aria-label="D" d="m300.15 314.48q0.0129 2.0981-0.89664 3.809-0.89904 1.7107-2.4125 2.6606-1.0502 0.6576-2.3508 0.95496-1.29 0.29736-3.4087 0.31032l-3.8861 0.0238-0.0936-15.389 3.8446-0.0236q2.2531-0.0138 3.5779 0.30888 1.3351 0.31224 2.2584 0.8748 1.577 0.97224 2.4655 2.5997t0.90216 3.8702zm-2.1396-0.0181q-0.0111-1.8086-0.6492-3.0449-0.63816-1.2365-1.8929-1.9418-0.91272-0.5112-1.937-0.70128-1.0243-0.1992-2.4506-0.192l-1.9224 0.0118 0.072 11.875 1.9224-0.0118q1.4779-9e-3 2.5721-0.2328 1.1045-0.2232 2.0208-0.81864 1.1426-0.74088 1.7038-1.9433 0.57144-1.2024 0.5604-3.0007z" stroke="#000" stroke-linecap="square" stroke-width=".72"/>
	<path aria-label="D" d="m239.52 315.03q0.0129 2.0981-0.89664 3.809-0.89904 1.711-2.4125 2.6606-1.0502 0.6576-2.3508 0.95496-1.2902 0.29736-3.4087 0.31032l-3.8861 0.0238-0.0936-15.389 3.8446-0.0236q2.2531-0.0138 3.5779 0.30888 1.3351 0.31224 2.2584 0.87504 1.577 0.97224 2.4655 2.5997t0.90216 3.8702zm-2.1396-0.0181q-0.0111-1.8086-0.6492-3.0449-0.63816-1.2365-1.8931-1.9418-0.91272-0.5112-1.937-0.70104-1.0243-0.1992-2.4506-0.192l-1.9224 0.0118 0.072 11.875 1.9224-0.0118q1.4779-9e-3 2.5721-0.2328 1.1045-0.2232 2.0206-0.81864 1.1426-0.74088 1.7038-1.9433 0.57144-1.2024 0.5604-3.0007z" stroke="#000" stroke-linecap="square" stroke-width=".72"/>
	<path aria-label="D" d="m125.59 197.73q0.0129 2.098-0.89664 3.809-0.89904 1.7109-2.4125 2.6606-1.0502 0.65758-2.3508 0.95496-1.2902 0.29731-3.4087 0.31032l-3.8861 0.0238-0.0936-15.389 3.8438-0.0236q2.2531-0.0138 3.5779 0.30879 1.3351 0.31221 2.2584 0.87499 1.577 0.97219 2.4655 2.5997 0.88872 1.6276 0.9024 3.8702zm-2.1396-0.0178q-0.0111-1.8086-0.6492-3.0449-0.63816-1.2363-1.8931-1.9418-0.91272-0.51118-1.937-0.70126-1.0243-0.2004-2.4506-0.19152l-1.9224 0.0118 0.072 11.875 1.9224-0.0118q1.4779-9e-3 2.5721-0.2328 1.1045-0.22368 2.0206-0.81856 1.1426-0.74084 1.704-1.9432 0.57144-1.2024 0.5604-3.0007z" stroke="#000" stroke-linecap="square" stroke-width=".72"/>
	<path aria-label="D" d="m125.04 264.51q0.0129 2.0981-0.89664 3.809-0.89904 1.7107-2.4125 2.6606-1.0502 0.6576-2.3508 0.95496-1.2902 0.29736-3.4087 0.31032l-3.8861 0.0238-0.0936-15.389 3.8446-0.0236q2.2531-0.0138 3.5779 0.30888 1.3351 0.31224 2.2584 0.8748 1.577 0.97224 2.4655 2.5997t0.90216 3.8702zm-2.1396-0.0181q-0.0111-1.8086-0.6492-3.0449-0.63816-1.2365-1.8931-1.9418-0.91272-0.5112-1.937-0.70104-1.0243-0.1992-2.4506-0.192l-1.9224 0.0118 0.072 11.875 1.9224-0.0118q1.4779-9e-3 2.5721-0.2328 1.1045-0.2232 2.0206-0.81864 1.1426-0.74088 1.7038-1.9433 0.57144-1.2024 0.5604-3.0007z" stroke="#000" stroke-linecap="square" stroke-width=".72"/>
	<path aria-label="D" d="m59.931 262.83q0.0129 2.0981-0.89664 3.809-0.89904 1.7107-2.4125 2.6606-1.05 0.6576-2.3506 0.95496-1.29 0.29736-3.4087 0.31032l-3.8861 0.0238-0.0936-15.389 3.8446-0.0236q2.2531-0.0138 3.5779 0.30888 1.3351 0.31224 2.2586 0.87504 1.577 0.97224 2.4655 2.5997t0.90216 3.8702zm-2.1396-0.0181q-0.0111-1.8086-0.6492-3.0449-0.63816-1.2365-1.8931-1.9418-0.91272-0.5112-1.937-0.70104-1.0243-0.1992-2.4506-0.192l-1.9224 0.0118 0.072 11.875 1.9224-0.0118q1.4779-9e-3 2.5721-0.2328 1.1045-0.2232 2.0208-0.81864 1.1426-0.74064 1.7038-1.9433 0.57144-1.2024 0.5604-3.0007z" stroke="#000" stroke-linecap="square" stroke-width=".72"/>
	<path aria-label="D" d="m61.061 199.97q0.0129 2.098-0.89664 3.809-0.89904 1.7109-2.4125 2.6606-1.0502 0.65758-2.3508 0.95496-1.2902 0.29731-3.4087 0.31032l-3.8861 0.0238-0.0936-15.389 3.8446-0.0236q2.2531-0.0138 3.5779 0.30879 1.3351 0.31221 2.2584 0.87499 1.577 0.97221 2.4655 2.5997 0.88848 1.6276 0.90216 3.8702zm-2.1396-0.0178q-0.0111-1.8086-0.6492-3.0449-0.63816-1.2363-1.8931-1.9418-0.91272-0.51118-1.937-0.70126-1.0243-0.2004-2.4506-0.19152l-1.9224 0.0118 0.072 11.875 1.9224-0.0118q1.4779-9e-3 2.5721-0.2328 1.1045-0.22368 2.0206-0.81856 1.1426-0.74084 1.7038-1.9432 0.57144-1.2024 0.5604-3.0007z" stroke="#000" stroke-linecap="square" stroke-width=".72"/>
	<path aria-label="H" d="m664.11 142.65h-2.0465v-7.5343h-7.679v7.5343h-2.0465v-15.389h2.0465v6.0358h7.679v-6.0358h2.0465z" stroke="#000" stroke-linecap="square" stroke-width=".72"/>
	<path aria-label="H" d="m345.82 318.08h-2.0465v-7.5343h-7.679v7.5343h-2.0465v-15.389h2.0465v6.0358h7.679v-6.0358h2.0465z" stroke="#000" stroke-linecap="square" stroke-width=".72"/>
</svg>
