<?xml version="1.0" encoding="utf-8"?>
<svg xmlns="http://www.w3.org/2000/svg" version="1.1" xml:space="preserve" viewBox="0 0 480 1008">
	<title>A floor plan with an irregular outline is divided into many small rooms. Some rooms adjacent to outside walls are marked as light. Other rooms are marked as dark. Four rooms show stairways and two of these are marked as halls.</title>
	<path aria-label="L" d="m292.75 172.5 0.048 9.7358-15.389 0.0742-0.01-2.0464 13.57-0.0655-0.036-7.6894z" stroke="#000" stroke-linecap="square" stroke-width=".72"/>
	<path d="m45.976 175.12-19.722 7.1554zm2.0294 5.1182-19.99 7.2958zm2.0393 4.8446-19.301 7.0152z" stroke="#000" stroke-linecap="square" stroke-width="1.2"/>
	<path d="m108.28 152.39-29.683 11.084zm2.0294 5.1182-29.952 11.225zm2.0889 5.2416-29.412 10.746z" stroke="#000" stroke-linecap="square" stroke-width="1.2"/>
	<path d="m98.166 328.13h15.577m-15.998 54.163h16.074m-15.868-4.8288 16.272-0.0984m-15.916-4.7546h16.074m-16.494-5.1917h16.074m-15.728-5.0273 15.677 0.0984m-15.749-5.0102h16.074m-16.258-5.1266 16.173 0.1992m-16.402-5.0585h16.074m-15.372-4.4902 15.577 0.0984m-16.419-5.4305h16.074m-15.471-5.0174 15.875 0.0984m3.523-14.371 0.1404 68.054m3.5078-47.287-0.32192-23.291s-0.67603-1.811-1.6172-2.3527c-1.0588-0.6096-2.5961-0.63192-3.6653-0.0408-0.91196 0.50424-1.6823 2.2195-1.6823 2.2195l0.32877 73.13 1.766 3.0941 3.301-0.132 1.8156-2.873-0.0821-27.742m-23.491-38.083h16.074" fill="none" stroke="#000" stroke-linecap="square" stroke-width=".72"/>
	<path d="m367.18 296.42-19.651 0.0113m20.072 54.151-20.148 0.0113m19.942-4.8408-20.346-0.0864m19.99-4.7666-20.148 0.0113m20.568-5.2037-20.148 0.0113m19.802-5.0393-19.751 0.1104m19.823-5.0222-20.148 0.0113m20.332-5.1386-20.247 0.2112m20.476-5.0705-20.148 0.0113m19.446-4.5022-19.651 0.1104m20.493-5.4425-20.148 0.0113m19.545-5.0294-19.949 0.1104m-3.523-14.371-0.1392 68.054m-3.5078-47.287-0.096-28.769 7.5348 8e-3 -0.2016 79.759s-0.96096 2.3069-1.7659 3.1642c-0.76512 0.81504-2.4996 0.87096-3.3506 0.1464-0.96768-0.82392-1.7659-3.2203-1.7659-3.2203l-0.1992-29.074m27.566-38.095-20.148 0.0113" fill="none" stroke="#000" stroke-linecap="square" stroke-width=".72"/>
	<path d="m332.35 630.26 0.1824 19.506m-56.45-20.06 0.1824 20.774m4.6452-20.582 0.28128 20.201m4.8516-19.858 0.1824 20.002m5.0064-20.437 0.1824 20.353m4.9142-19.74 0.084 19.606m4.7568-19.972 0.1824 20.002m5.0122-20.201 0.1248 20.313m4.8734-20.345 0.1824 20.002m5.1499-19.804 0.084 19.506m5.3856-19.802 0.1824 20.002m4.9752-19.484 0.084 19.804m15.363 3.5539-68.052 0.32424m47.297 3.379s29.717 0.1704 30.312-0.168c1.1215-0.63768 1.7462-2.1734 1.7981-3.4627 0.0504-1.2566-1.0049-3.6362-1.0049-3.6362s-56.232 0.18-83.522 0.3756c0 0-2.5164 0.73416-3.0893 1.7743-0.53112 0.96456-0.4116 2.3484 0.1416 3.3005 0.56928 0.97944 2.8778 1.8077 2.8778 1.8077l30.478-0.0888m37.457-27.314 0.1824 20.002" fill="none" stroke="#000" stroke-linecap="square" stroke-width=".72"/>
	<path d="m271.03 813.02-0.016 21.689m-57.125-22.558 0.28162 22.979m4.7446-22.489 0.0828 22.383m5.6282-22.28-0.016 22.185m5.239-21.984-0.016 22.185m5.1418-22.448-0.1152 21.788m5.7151-21.378-0.1152 21.689m5.8399-21.986-0.2136 21.987m5.568-21.932-0.1152 21.987m5.0026-22.19 0.084 22.086m4.8535-22.645-0.1152 22.681m5.0162-22.08-0.1152 21.987m11.218 3.6701-68.052 0.32424m47.297 3.379s29.717 0.1704 30.312-0.168c1.1215-0.63768 1.7462-2.1734 1.7981-3.4627 0.0504-1.2566-1.0049-3.6362-1.0049-3.6362s-56.232 0.18-83.522 0.3756c0 0-2.5164 0.73416-3.0893 1.7743-0.53112 0.96456-0.4116 2.3484 0.1416 3.3005 0.56928 0.97944 2.8778 1.8077 2.8778 1.8077l30.478-0.0888m-26.614-29.707 0.28155 22.582" fill="none" stroke="#000" stroke-linecap="square" stroke-width=".72"/>
	<path d="m153.13 135.83-19.722 7.1554zm2.0294 5.1182-19.99 7.2958zm2.0393 4.8446-19.301 7.0152z" stroke="#000" stroke-linecap="square" stroke-width="1.2"/>
	<path d="m210.47 114.68-29.683 11.084zm2.0294 5.1182-29.952 11.225zm2.0889 5.2416-29.412 10.746z" stroke="#000" stroke-linecap="square" stroke-width="1.2"/>
	<path d="m264.41 94.853-26.316 9.8215zm2.0294 5.1182-26.585 9.9617zm2.0393 4.8446-25.896 9.6811z" stroke="#000" stroke-linecap="square" stroke-width="1.2"/>
	<path d="m318.1 74.333-26.316 9.8215zm2.0294 5.1182-26.585 9.9617zm2.0393 4.8446-25.896 9.6811z" stroke="#000" stroke-linecap="square" stroke-width="1.2"/>
	<path d="m375.63 53.285-26.316 9.8215zm2.0294 5.1182-26.585 9.9617zm2.0393 4.8446-25.896 9.6811z" stroke="#000" stroke-linecap="square" stroke-width="1.2"/>
	<path d="m429.17 33.139-26.316 9.8215zm2.0294 5.1182-26.585 9.9617zm2.0393 4.8446-25.896 9.6811z" stroke="#000" stroke-linecap="square" stroke-width="1.2"/>
	<path d="m449.74 75.384 0.27336 26.378zm5.9582 0.76846 0.216 26.028zm5.898 0.0739-7e-3 25.817z" stroke="#000" stroke-linecap="square" stroke-width="1.2"/>
	<path d="m449.67 270.41 0.1248 26.328zm5.8094 0.7188 0.216 26.028zm5.898 0.0744-7e-3 25.817z" stroke="#000" stroke-linecap="square" stroke-width="1.2"/>
	<path d="m448.95 344.45 0.27336 26.378zm5.9582 0.76848 0.216 26.028zm5.898 0.0744-7e-3 25.817z" stroke="#000" stroke-linecap="square" stroke-width="1.2"/>
	<path d="m448.75 396.84 0.27336 26.378zm5.9582 0.76848 0.216 26.028zm5.898 0.0744-7e-3 25.817z" stroke="#000" stroke-linecap="square" stroke-width="1.2"/>
	<path d="m448.71 471.38 0.27335 26.378zm5.9582 0.76848 0.216 26.028zm5.898 0.0744-7e-3 25.817z" stroke="#000" stroke-linecap="square" stroke-width="1.2"/>
	<path d="m448.71 525.26 0.27335 26.378zm5.9582 0.76848 0.216 26.028zm5.898 0.0744-7e-3 25.817z" stroke="#000" stroke-linecap="square" stroke-width="1.2"/>
	<path d="m448.2 644.47 0.27336 26.378zm5.9582 0.76848 0.216 26.028zm5.898 0.0744-7e-3 25.817z" stroke="#000" stroke-linecap="square" stroke-width="1.2"/>
	<path d="m448.63 582.02 0.27335 26.378zm5.9582 0.76848 0.216 26.028zm5.898 0.0744-7e-3 25.817z" stroke="#000" stroke-linecap="square" stroke-width="1.2"/>
	<path d="m447.94 700.87 0.27336 26.378zm5.9582 0.76848 0.216 26.028zm5.898 0.0744-7e-3 25.817z" stroke="#000" stroke-linecap="square" stroke-width="1.2"/>
	<path d="m447.94 755.3 0.27336 26.378zm5.9582 0.76848 0.216 26.028zm5.898 0.0744-7e-3 25.817z" stroke="#000" stroke-linecap="square" stroke-width="1.2"/>
	<path d="m447.91 824.04 0.1752 28.265zm5.9582 0.76848 0.1176 27.912zm5.898 0.0744-0.1056 27.703z" stroke="#000" stroke-linecap="square" stroke-width="1.2"/>
	<path d="m447.63 883.27 0.1752 28.265zm5.9582 0.76848 0.11759 27.912zm5.898 0.0744-0.1056 27.703z" stroke="#000" stroke-linecap="square" stroke-width="1.2"/>
	<path d="m447.15 944.23 0.27336 26.378zm5.9582 0.76848 0.216 26.028zm5.898 0.0744-7e-3 25.817z" stroke="#000" stroke-linecap="square" stroke-width="1.2"/>
	<path d="m20.689 821.16 0.1752 28.265zm5.9582 0.76848 0.1176 27.912zm5.898 0.0744-0.1056 27.703z" stroke="#000" stroke-linecap="square" stroke-width="1.2"/>
	<path d="m20.812 882.48 0.1752 28.265zm5.9582 0.76848 0.1176 27.912zm5.898 0.0744-0.1056 27.703z" stroke="#000" stroke-linecap="square" stroke-width="1.2"/>
	<path d="m21.035 942.31 0.27336 26.378zm5.9582 0.76848 0.216 26.028zm5.898 0.0744-7e-3 25.817z" stroke="#000" stroke-linecap="square" stroke-width="1.2"/>
	<path d="m157.08 643.51 0.1752 28.265zm5.9582 0.76848 0.1176 27.912zm5.898 0.0744-0.1056 27.703z" stroke="#000" stroke-linecap="square" stroke-width="1.2"/>
	<path d="m157.06 702.31 0.1752 28.265zm5.9582 0.76848 0.1176 27.912zm5.898 0.0744-0.1056 27.703z" stroke="#000" stroke-linecap="square" stroke-width="1.2"/>
	<path d="m156.86 757.94 0.27336 26.378zm5.9582 0.76848 0.216 26.028zm5.898 0.0744-7e-3 25.817z" stroke="#000" stroke-linecap="square" stroke-width="1.2"/>
	<path d="m293.52 886.85 0.1752 24.494zm4.0733-0.0264 0.1176 24.838zm3.9137-0.024-6e-3 24.528z" stroke="#000" stroke-linecap="square" stroke-width="1.2"/>
	<path d="m293.33 927.33 0.1752 24.494zm4.0733-0.0264 0.1176 24.838zm3.9137-0.024-6e-3 24.528z" stroke="#000" stroke-linecap="square" stroke-width="1.2"/>
	<path d="m160.97 925.56 0.1752 24.494zm4.0733-0.0264 0.1176 24.838zm3.9137-0.024-6e-3 24.528z" stroke="#000" stroke-linecap="square" stroke-width="1.2"/>
	<path d="m160.97 885.07 0.1752 24.494zm4.0733-0.0264 0.1176 24.838zm3.9137-0.024-6e-3 24.528z" stroke="#000" stroke-linecap="square" stroke-width="1.2"/>
	<path d="m274.9 750.43 0.1752 25.685zm4.0733-0.0264 0.1176 26.028zm3.9137-0.024-6e-3 25.718z" stroke="#000" stroke-linecap="square" stroke-width="1.2"/>
	<path d="m343.61 714.21 0.27456 25.09zm3.4778 0.27048 0.1176 24.442zm3.4176 0.0744-6e-3 24.528z" stroke="#000" stroke-linecap="square" stroke-width="1.2"/>
	<path d="m317.93 573.81 0.1752 25.685zm4.0733-0.0264 0.1176 26.028zm3.9137-0.024-6e-3 25.718z" stroke="#000" stroke-linecap="square" stroke-width="1.2"/>
	<path d="m317.62 533.13 0.1752 25.685zm4.0733-0.0264 0.1176 26.028zm3.9137-0.024-6e-3 25.718z" stroke="#000" stroke-linecap="square" stroke-width="1.2"/>
	<path d="m317.62 450.38 0.1752 25.685zm4.0733-0.0264 0.1176 26.028zm3.9137-0.024-6e-3 25.718z" stroke="#000" stroke-linecap="square" stroke-width="1.2"/>
	<path d="m318 410.9 0.1752 25.685zm4.0733-0.0264 0.1176 26.028zm3.9137-0.024-6e-3 25.718z" stroke="#000" stroke-linecap="square" stroke-width="1.2"/>
	<path d="m334.32 868.85-25.682 0.40056zm0.0624 4.0728-26.026 0.34608zm0.0576 3.9132-25.718 0.2184z" stroke="#000" stroke-linecap="square" stroke-width="1.2"/>
	<path d="m433.78 868.27-25.685 0.1848zm0.0288 4.0733-26.028 0.1272zm0.024 3.9137-25.718 1e-3z" stroke="#000" stroke-linecap="square" stroke-width="1.2"/>
	<path d="m158.39 867.93-25.685 0.1848zm0.0288 4.0733-26.028 0.1272zm0.024 3.9137-25.718 1e-3z" stroke="#000" stroke-linecap="square" stroke-width="1.2"/>
	<path d="m70.072 868.32-25.685 0.1848zm0.0288 4.0733-26.028 0.1272zm0.024 3.9137-25.718 1e-3z" stroke="#000" stroke-linecap="square" stroke-width="1.2"/>
	<path d="m208.88 691.51-31.015-0.096zm0.0288 4.0733-31.361-0.1536zm0.024 3.9137-31.051-0.2796z" stroke="#000" stroke-linecap="square" stroke-width="1.2"/>
	<path d="m271.59 692.01-21.193-0.096zm0.0288 4.0733-21.537-0.1536zm0.024 3.9137-21.228-0.2796z" stroke="#000" stroke-linecap="square" stroke-width="1.2"/>
	<path d="m63.87 539.3-29.33-0.1944zm-0.26885 7.2482-29.078-0.1536zm0.32165 5.501-29.165 0.0181z" stroke="#000" stroke-linecap="square" stroke-width="1.2"/>
	<path d="m119.03 539.9-29.33-0.1944zm-0.26885 7.2482-29.078-0.1536zm0.32165 5.501-29.165 0.0181z" stroke="#000" stroke-linecap="square" stroke-width="1.2"/>
	<path d="m169.14 540-28.834-0.096zm-0.46728 6.6528-26.995 0.0456zm0.024 5.6004-27.379-0.0816z" stroke="#000" stroke-linecap="square" stroke-width="1.2"/>
	<path d="m213.76 539.71-28.834-0.096zm-0.46728 6.6528-26.995 0.0456zm0.024 5.6004-27.379-0.0816z" stroke="#000" stroke-linecap="square" stroke-width="1.2"/>
	<path d="m376.32 620.69-22.667-0.2352zm0.168 5.0554-22.87-0.0133zm0.0936 4.4047-23.192-0.2088z" stroke="#000" stroke-linecap="square" stroke-width="1.2"/>
	<path d="m374.19 691.1-21.193-0.096zm0.3264 3.2794-21.537-0.1536zm-0.37296 3.4176-21.228-0.2796z" stroke="#000" stroke-linecap="square" stroke-width="1.2"/>
	<path d="m439.15 691.22-21.442 0.1032zm0.32641 3.2794-21.785 0.0456zm-0.52177 3.2191-21.476-0.0816z" stroke="#000" stroke-linecap="square" stroke-width="1.2"/>
	<path d="m223.73 554.78-0.0232 27.372zm4.0733-0.0264-0.0809 27.715zm3.9137-0.024-0.20472 27.406z" stroke="#000" stroke-linecap="square" stroke-width="1.2"/>
	<path d="m354.19 386.4-23.789 0.25488zm0.0288 4.0733-24.132 0.1968zm0.024 3.9137-23.824 0.072z" stroke="#000" stroke-linecap="square" stroke-width="1.2"/>
	<path d="m449.07 386.06-28.63 0.25488zm0.0288 4.0733-28.975 0.1968zm0.024 3.9137-28.666 0.072z" stroke="#000" stroke-linecap="square" stroke-width="1.2"/>
	<path d="m183.89 410.78-16.794-0.0864zm0.0288 4.0733-17.138-0.144zm0.024 3.9137-16.828-0.2712z" stroke="#000" stroke-linecap="square" stroke-width="1.2"/>
	<path d="m145.82 410.93-12.413 3e-3zm0.0288 4.0733-12.756-0.0552zm0.024 3.9137-12.447-0.18z" stroke="#000" stroke-linecap="square" stroke-width="1.2"/>
	<path d="m122.95 411.21-21.193-0.096zm0.0288 4.0733-21.537-0.1536zm0.024 3.9137-21.228-0.2796z" stroke="#000" stroke-linecap="square" stroke-width="1.2"/>
	<path d="m84.059 410.61-21.193-0.096zm0.0288 4.0733-21.537-0.1536zm0.024 3.9137-21.228-0.2796z" stroke="#000" stroke-linecap="square" stroke-width="1.2"/>
	<path d="m189.93 279.38-21.986 0.1944zm0.0288 4.0733-22.33 0.1368zm0.024 3.9137-22.02 0.0103z" stroke="#000" stroke-linecap="square" stroke-width="1.2"/>
	<path d="m147.12 279.41-12.363-0.1944zm0.0288 4.0733-12.707-0.25368zm0.024 3.9137-12.397-0.37848z" stroke="#000" stroke-linecap="square" stroke-width="1.2"/>
	<path d="m121.87 279.36-19.507 3e-3zm0.0288 4.0733-19.851-0.0552zm0.024 3.9137-19.541-0.18z" stroke="#000" stroke-linecap="square" stroke-width="1.2"/>
	<path d="m81.884 278.93-18.878-0.1656zm0.0288 4.0733-19.222-0.2232zm0.024 3.9137-18.912-0.34968z" stroke="#000" stroke-linecap="square" stroke-width="1.2"/>
	<path d="m306.19 248.33-22.252 0.1056zm0.0288 4.0733-22.595 0.048zm0.024 3.9137-22.286-0.0768z" stroke="#000" stroke-linecap="square" stroke-width="1.2"/>
	<path d="m334.59 248.23-13.123 0.0576zm0.0288 4.0733-13.467-2e-3zm0.024 3.9137-13.158-0.1272z" stroke="#000" stroke-linecap="square" stroke-width="1.2"/>
	<path d="m366.12 248.42-13.421-0.0432zm0.0288 4.0733-13.765-0.1008zm0.024 3.9137-13.455-0.2256z" stroke="#000" stroke-linecap="square" stroke-width="1.2"/>
	<path d="m394.32 248.16-18.184 0.1056zm0.0288 4.0733-18.527 0.048zm0.024 3.9137-18.218-0.0768z" stroke="#000" stroke-linecap="square" stroke-width="1.2"/>
	<path aria-label="L" d="m400.11 157.62 0.048 9.7358-15.389 0.0742-0.01-2.0464 13.57-0.0655-0.036-7.6894z" stroke="#000" stroke-linecap="square" stroke-width=".72"/>
	<path d="m374.16 52.995 29.342-10.949 4.5982 11.722-29.388 11.195z" stroke-width="24"/>
	<path d="m449.31 76.735-0.4392-38.443-15.814 6.1728-4.811-12.132 34.097-13.409-0.192 57.967z" stroke-width="24"/>
	<path d="m262.8 94.913 29.882-11.887 4.4429 11.343-29.551 11.636z" stroke-width="24"/>
	<path d="m333.03 247.58 8.4708 0.048 0.3648-169.57-19.753 8.2008-5.0743-12.519 34.414-12.759 4.4899 11.586-7.7532 3.329 0.6552 171.78 6.223 0.0199 0.024 9.2472-22.111 0.0192z" stroke-width="24"/>
	<path d="m449.21 257.13-57.168-0.192-0.216-9.8681 57.178 0.2808 1.044-69.989-8.8798 1.1016 0.048-8.6472 8.6606-3.4694-0.048-22.121-7.2475-4.7772-0.2784-8.711 7.0358 1.7088-0.12-31.097 13.122 5e-3 -0.072 170.19-13.058-0.24z" stroke-width="24"/>
	<path d="m112.34 163.73-4.5511-11.941 27.154-10.353 4.1138 11.775" stroke-width="24"/>
	<path d="m134.09 154.39-0.4296 124.27 2.2632 0.096-0.024 8.9717-14.725-0.12-0.072-8.8315 4.4184 0.0209-0.16799-121.64" stroke-width="24"/>
	<path d="m156.74 146.76-4.1714-11.344 29.038-10.496 3.9466 11.011" stroke-width="24"/>
	<path d="m366.15 385.68 0.86399-128.68-3.053 0.024-0.024-9.4944 13.738 0.072 0.072 9.2023-4.3397 0.12 2e-3 31.843v30.206l75.53-0.4032 0.048-22.009 12.387 0.12-0.096 48.634-12.372-0.192-0.072-17.159-75.442 0.9 0.072 56.842 47.405-0.072 0.096 8.9095-67.798 0.168-0.048-9.1049z" stroke-width="24"/>
	<path d="m461.26 370.99 0.048 28.428-12.721 0.096-0.168-28.546z" stroke-width="24"/>
	<path d="m448.37 466.15-7.2142 0.024-0.29039-9.5906s3.4831-0.252 6.8419-3.4262c1.0416-0.984 1.4856-6.0953 1.4856-6.0953s-0.864-5.2651-1.5792-6.2935c-2.807-4.0267-6.4452-3.1606-6.4452-3.1606l-0.3024-10.048 7.8211-0.12 0.048-6.6194 12.238-0.072-0.072 52.051-12.446 0.144z" stroke-width="24"/>
	<path d="m166.07 538.92 27.444 0.0199-0.2424 14.434-27.334 0.0199z" stroke-width="24"/>
	<path d="m118.58 539.01 6.33 0.024-0.2568-119.36-4.8408 0.072-0.096-9.1973 15.57-0.2712 0.072 9.1382-4.2917 0.216 0.9936 119.34 11.438-0.12 5e-3 14.28-24.965 0.096z" stroke-width="24"/>
	<path d="m62.099 553.22-0.0124-14.197 28.74-0.072-0.1416 14.291z" stroke-width="24"/>
	<path d="m49.367 186.23-4.7474-11.199 35.318-12.84 4.3987 11.638" stroke-width="24"/>
	<path d="m317.11 568.7-85.411-0.54-0.024 6.0854-8.2253-0.096-0.12-13.348 93.787 0.6816-0.096-4.8722 9.3538-0.048-0.0101 19.666-9.1757-0.024z" stroke-width="24"/>
	<path d="m448.18 548.35 12.894 0.072 0.072 36.506-12.753-0.216z" stroke-width="24"/>
	<path d="m447.63 698.06-9.3108 0.048-0.16801-7.5307 9.3146-3e-3 -0.144-19.913 12.732-0.024-0.12 31.97-12.26-0.12z" stroke-width="24"/>
	<path d="m156.19 706.63 0.0122-34.274 13.595-0.0178-0.168 18.307 8.7403 0.024-0.072 9.295-8.2596-0.0206-0.096 6.6122z" stroke-width="24"/>
	<path d="m447.17 724.1 13.194 0.12-0.072 33.518h-12.984z" stroke-width="24"/>
	<path d="m156 730.22 13.918-0.12 0.096 29.832-13.728 0.048z" stroke-width="24"/>
	<path d="m447.05 876.72-16.345-0.168-0.12-8.975 16.747-0.072-0.072-15.692 12.899-0.3336 0.024 33.739-13.085 4e-3z" stroke-width="24"/>
	<path d="m19.456 849.33 13.856-0.24 0.47856 18.421 14.268-0.144 0.2136 9.5117-14.244 0.072 0.1848 9.5947-14.506 0.3312z" stroke-width="24"/>
	<path d="m19.847 908.01h14.224v36.576h-14.224z" stroke-width="24"/>
	<path d="m446.91 906.62 12.856-0.048-0.024 39.439-12.746-0.168z" stroke-width="24"/>
	<path d="m169.53 922.32 0.048 5.7065-8.8973-3e-3 -0.3312-19.679 8.9508-0.048 0.12 7.1172 123.5 0.3-0.168-6.6266 9.1481 0.048 0.48 21.329-9.3463-0.12-0.12-8.1576z" stroke-width="24"/>
	<path d="m20.281 964.77 13.432-0.144 0.1368 16.778 39.204-0.168-0.0229-9.2026 10.556-0.024s1.3939 6.0072 3.8976 7.7328c1.9716 1.3584 22.393 1.6728 23.901 0.588 3.0182-2.172 4.6872-8.2015 4.6872-8.2015l8.7346-0.12-2e-3 9.3694 35.832-0.4632-0.072-32.386 8.6518 0.3336 0.192 32.306 56.722-0.168 0.024-58.908 8.8138-0.096 0.5928 59.035 56.837 0.5712 0.7296-30.739 8.5877-0.12 0.42 31.034 42.672 0.4224 0.144-11.007 9.432 0.072s2.3112 6.8124 5.851 10.727c1.5888 1.2624 18.25 1.3296 19.706-0.348 4.2185-4.8792 7.1674-10.446 7.1674-10.446l8.9239 0.072-0.2808 10.929 51.012-0.12-0.12-15.048 13.5-0.096v28.284l-221.95 0.144-218.18-0.144z" stroke-width="24"/>
	<path d="m226.17 861.45-55.759 0.168 3e-3 25.044-9.7913-0.0206-0.144-9.8957-3.6782-0.168-0.2952-8.8728 3.5743-0.144-0.048-16.153s86.933-0.12 142.5 0.2688l0.3936 16.187 9.461-0.0209 0.048 9.8719-9.8472 0.096-0.12 9.553-9.3425 0.072-0.4176-26.592s-39.142 0.3432-58.73 0.3408l0.8592 57.708-7.955-0.6z" stroke-width="24"/>
	<path d="m117.97 814.08-15.039 0.3336 0.0106 7.2122-13.882 0.096-0.2112-6.8278-25.754-0.168-4.698 7.4141-13.265 0.2472-0.2892-4.4126 4.9234-2.7269-16.489-0.4944-0.2256 6.8976-13.45 0.3048 0.1104-20.757 136.39-0.6936 0.3384-18.352 13.125 0.144 0.048 18.211 23.19 0.3288 0.048-8.3606 10.087 0.048s0.7896 4.5852 4.5271 7.6337c1.1304 0.9216 9.4853 1.9704 9.4853 1.9704s9.6499-0.6072 10.807-1.6584c3.5786-3.2532 6.4248-8.3527 6.4248-8.3527l7.7518 0.0199 0.072 10.934 32.429-0.396 0.4464-27.362 9.1392 0.0127-0.12 27.151 89.623-0.2976 0.4248-10.041 10.311-0.12s1.1136 6.4946 4.8166 8.9498c1.3128 0.8688 9.7538 1.1112 9.7538 1.1112s8.6782-0.8736 9.5362-1.7064c3.2198-3.1265 5.333-7.9577 5.333-7.9577l8.3813 0.12 0.096 9.5448 24.991-0.192 0.192-25.92h13.43l-0.072 49.027-13.302 0.048 0.024-10.242-25.476-3e-3 0.3648 9.4478-12.075 0.4008s-0.096-6.9708-3.1663-8.9736c-1.5864-1.0368-8.0635-1.0728-8.0635-1.0728s-8.345-0.048-9.5647 1.2744c-3.2362 3.4978-4.6082 8.159-4.6082 8.159l-11.005-0.24-0.168-10.115-245.16 0.24z" stroke-width="24"/>
	<path d="m68.615 867.89 50.801-0.192 0.2952-54.554 9.2323 0.216 0.12 54.065 6.4826 0.096 0.048 8.9597-66.881 0.168-0.096-8.7706z" stroke-width="24"/>
	<path d="m351.05 812.33 0.024 55.277 58.802-0.168-0.096 9.521-75.722 1.0008 0.096-10.309 8.6916 0.0175 0.192-54.998z" stroke-width="24"/>
	<path d="m343.06 807.05-0.3648-60.768-59.376-0.072 0.048 4.7724-8.8817 0.144-0.096-50.69-4.5398-0.048-0.024-8.8644 4.6795 0.024 0.048-12.002 76.841 0.144-0.072 10.592 3.8702 0.072 0.024 7.7419-3.2743-0.12-0.168 18.549-8.8399-0.048-0.048-28.81-59.618-0.216 0.2808 52.234 59.256-0.144-0.096-5.9962 8.3909-0.024 0.4968 73.025z" stroke-width="24"/>
	<path d="m207.56 700.13 0.0221-9.1171 29.455 0.216 0.24-59.578-67.618 0.5616-0.048 14.339-12.949 0.144 0.3432-26.916 66.139-0.516-0.096-38.246 8.61 0.3048 0.0158 38.042 85.663-0.072-0.168-22.366 9.2611 0.096 0.072 22.246 28.049 0.072 1e-3 11.943-109.33 0.5616 0.3336 59.707 7.8667-0.168-0.144 8.964z" stroke-width="24"/>
	<path d="m375.24 611.33 9.3538 0.192s2.088 5.0333 4.649 6.8419c1.8792 1.3272 8.25 1.0872 8.25 1.0872s8.129-0.684 9.0924-1.0872c3.7486-1.5648 4.5874-7.338 4.5874-7.338l7.6565 0.096-2e-3 8.7271 28.361-0.12 0.024-13.648 13.567-0.096 0.144 39.538-13.617 0.0221-0.072-14.272-57.562 0.276v59.04l28.445-0.0168 0.048 7.6058-44.664-7e-3 -0.096-7.4477 7.7122 0.072 0.024-59.326-5.7998 0.096z" stroke-width="24"/>
	<path d="m31.482 192.54c-4.7227 2.0232-6.0007 2.1648-6.0007 2.1648l0.31224 18.83 5.7542-0.6912-0.0768 10.166-5.5867 3.6175 0.45024 13.352 5.6095 5.0179 0.29592 11.137-7.655-0.192-0.2184 22.327 39.962-0.312 0.2112 9.6823-39.998 0.4728 0.1392 56.897 64.879 0.7368 0.1992 7.9476-64.459-0.396v56.686l37.877-0.048 0.1512 9.5702h-38.345l0.2112 35.093 6.6041 4e-3 0.38184 12.093-6.4637 1.4976 0.1392 19.655 5.9026 2.2056-0.0312 11.491-6.8846 0.3984-0.1392 36.25c4.0738-0.048 7.3502 0.024 11.422 0.12l-0.31752 15.426c-8.0287-0.096-16.058-0.144-24.086-0.216l0.0179-184.39 0.0182-184.38 15.63-3.6821" stroke-width="24"/>
	<path d="m88.924 287.69-7.441 4e-3 0.0209-9.2558 21.786 0.144-0.0624 9.21-4.4638-0.192 0.204 123 4.338 9.6e-4 -0.23761 9.1658-21.274-0.492 0.0264-9.115 6.9672-0.012" stroke-width="24"/>
	<path d="m222.78 552.29-12.432 0.144-0.096-13.258 12.437-0.24-0.168-27.338-7.3678-0.072 5e-3 -9.6521 7.0831-1.956-0.024-25.807-7.2562-2.5738 5e-3 -10.251 7.4374-0.168 0.192-41.381-39.962-0.3216 0.168-9.2429h40.294l-8e-3 -121.9-33.672-0.24-0.024-9.713 34.301-9.6e-4 -0.5664-60.715-9.0845-0.2664 0.276-7.5502 8.6806-6.4829-0.2472-16.107-7.5718-4.9442-0.096-9.0653 8.6582-0.072-0.192-49.961-10.466 3.7692-4.4304-12.266 30.958-11.51 4.6879 11.988-11.042 4.2694 0.696 53.489 7.7496 0.048 0.192 11.321-7.2122 3.695-1.3584 14.338 7.7712 5.5075 0.8064 9.3924-8.9124 0.168 0.096 30.233h52.19v9.1637l-52.193-0.072 0.096 95.16 78.586 0.12 0.264-94.951-7.3447 0.048-0.024-9.5702 18.314-3e-3 0.0209 9.271-4.283 0.0226-0.276 102.13-85.037 0.5376-0.5496 109.4 36.024-0.192 0.9552-82.447 61.814-0.12-0.168 9.299-4.7842 0.0223 0.048 20.056-9.2232 0.12-0.192-19.709-40.32-0.096-0.336 46.882 40.174-0.12-5e-3 -8.1331 9.8129-0.048-0.024 20.028-9.8395-3e-3 0.12-6.3214-40.373 0.2808-0.3456 27.096-43.824 0.6072-0.048 25.618 84.578-0.24-0.144-28.31 9.1152-0.12 0.144 28.589 122.65-0.5184-0.0115-5.9374 12.255-0.144 0.144 32.798-12.463-0.2808 0.024-19.935-122.2 1.416-0.12 26.333-9.2494-0.024-0.12-26.275-84.622 0.672 0.192 46.068-9.5676 0.048z" stroke-width="24"/>
	<path d="m223.05 353.3h-62.993c-0.48 18.835 0.048 37.678 0.2808 56.515l7.4302 0.144 0.096 9.2299-23.823 0.4008-0.12-9.6931 7.9757 0.024 0.4512-121.93-6.9763-8e-3 -0.024-9.3101 23.003 0.048-0.024 9.2558-8.1331-5e-3 -0.144 57.178h62.993z" stroke-width="24"/>
	<path aria-label="L" d="m182.05 208.41 0.047 9.7358-15.389 0.0742-0.01-2.0464 13.57-0.0655-0.037-7.6894z" stroke="#000" stroke-linecap="square" stroke-width=".72"/>
	<path aria-label="L" d="m84.39 226.09 0.047 9.7358-15.389 0.0742-0.01-2.0464 13.57-0.0655-0.037-7.6894z" stroke="#000" stroke-linecap="square" stroke-width=".72"/>
	<path aria-label="L" d="m84.952 472.77 0.047 9.7358-15.389 0.0744-0.01-2.0465 13.57-0.0648-0.037-7.6894z" stroke="#000" stroke-linecap="square" stroke-width=".72"/>
	<path aria-label="L" d="m181.21 474.74 0.047 9.7358-15.389 0.0744-0.01-2.0465 13.57-0.0648-0.037-7.6894z" stroke="#000" stroke-linecap="square" stroke-width=".72"/>
	<path aria-label="L" d="m391.59 445.32 0.048 9.7358-15.389 0.0744-0.01-2.0465 13.57-0.0648-0.036-7.6894z" stroke="#000" stroke-linecap="square" stroke-width=".72"/>
	<path aria-label="L" d="m392.38 564.89 0.048 9.7358-15.389 0.0744-0.01-2.0465 13.57-0.0648-0.036-7.6894z" stroke="#000" stroke-linecap="square" stroke-width=".72"/>
	<path aria-label="L" d="m227.5 741.12 0.047 9.7358-15.389 0.0744-0.01-2.0465 13.57-0.0648-0.037-7.6894z" stroke="#000" stroke-linecap="square" stroke-width=".72"/>
	<path aria-label="L" d="m404.59 746.95 0.048 9.7358-15.389 0.0744-0.01-2.0465 13.57-0.0648-0.036-7.6894z" stroke="#000" stroke-linecap="square" stroke-width=".72"/>
	<path aria-label="L" d="m377.79 929.59 0.048 9.7356-15.389 0.0744-0.01-2.0465 13.57-0.0648-0.036-7.6894z" stroke="#000" stroke-linecap="square" stroke-width=".72"/>
	<path aria-label="L" d="m98.264 921.6 0.047 9.7358-15.389 0.0744-0.01-2.0465 13.57-0.0648-0.037-7.6894z" stroke="#000" stroke-linecap="square" stroke-width=".72"/>
	<path aria-label="D" d="m272.83 300.36q2.0981-0.0129 3.809 0.89664 1.7107 0.89904 2.6606 2.4125 0.6576 1.05 0.95496 2.3506 0.29736 1.2902 0.31032 3.4087l0.0239 3.8861-15.389 0.0936-0.0236-3.8446q-0.0138-2.2531 0.30864-3.5779 0.31224-1.3351 0.8748-2.2586 0.97224-1.577 2.5997-2.4655t3.8702-0.90216zm-0.0181 2.1396q-1.8086 0.0111-3.0449 0.6492-1.2365 0.63816-1.9418 1.8931-0.5112 0.91272-0.70128 1.937-0.1992 1.0243-0.192 2.4506l0.0118 1.9224 11.875-0.072-0.0118-1.9224q-9e-3 -1.4779-0.2328-2.5721-0.2232-1.1045-0.81864-2.0208-0.74088-1.1426-1.9433-1.7038-1.2024-0.57144-3.0007-0.5604z" stroke="#000" stroke-linecap="square" stroke-width=".72"/>
	<path aria-label="D" d="m409.37 282.09q2.0981-0.0129 3.809 0.89664 1.711 0.89904 2.6606 2.4125 0.6576 1.0502 0.95496 2.3508 0.29736 1.29 0.31032 3.4087l0.0238 3.8861-15.389 0.0936-0.0236-3.8446q-0.0138-2.2531 0.30888-3.5779 0.31224-1.3351 0.87504-2.2586 0.97225-1.577 2.5997-2.4655 1.6274-0.88848 3.8702-0.90216zm-0.0181 2.1396q-1.8086 0.0111-3.0449 0.6492-1.2365 0.63816-1.9418 1.8931-0.5112 0.91272-0.70128 1.937-0.1992 1.0243-0.192 2.4506l0.0118 1.9224 11.875-0.072-0.0118-1.9224q-9e-3 -1.4779-0.2328-2.5721-0.2232-1.1045-0.81864-2.0206-0.74088-1.1426-1.9433-1.7038-1.2024-0.57144-3.0007-0.5604z" stroke="#000" stroke-linecap="square" stroke-width=".72"/>
	<path aria-label="D" d="m409.75 352.34q2.0981-0.0129 3.809 0.89664 1.711 0.89904 2.6606 2.4125 0.6576 1.05 0.95496 2.3508 0.29735 1.29 0.31032 3.4087l0.0238 3.8861-15.389 0.0936-0.0236-3.8446q-0.0138-2.2531 0.30888-3.5779 0.31224-1.3351 0.8748-2.2586 0.97224-1.577 2.5997-2.4655t3.8702-0.90216zm-0.0181 2.1396q-1.8086 0.0111-3.0449 0.6492-1.2365 0.63816-1.9418 1.8931-0.5112 0.91272-0.70128 1.937-0.1992 1.0243-0.192 2.4506l0.0118 1.9224 11.875-0.072-0.0118-1.9224q-9e-3 -1.4779-0.2328-2.5721-0.2232-1.1045-0.81864-2.0206-0.74064-1.1426-1.9433-1.704-1.2024-0.57144-3.0007-0.5604z" stroke="#000" stroke-linecap="square" stroke-width=".72"/>
	<path aria-label="D" d="m297.05 411.48q2.0981-0.0129 3.809 0.89664 1.711 0.89904 2.6606 2.4125 0.6576 1.05 0.95496 2.3506 0.29736 1.2902 0.31032 3.4087l0.0238 3.8861-15.389 0.0936-0.0236-3.8446q-0.0138-2.2531 0.30888-3.5779 0.31224-1.3351 0.87504-2.2584 0.97224-1.577 2.5997-2.4655t3.8702-0.90216zm-0.0181 2.1396q-1.8086 0.0111-3.0449 0.6492-1.2365 0.63816-1.9418 1.8931-0.5112 0.91272-0.70104 1.937-0.1992 1.0243-0.192 2.4506l0.0118 1.9224 11.875-0.072-0.0118-1.9224q-9e-3 -1.4779-0.2328-2.5721-0.2232-1.1045-0.81864-2.0208-0.74064-1.1426-1.9433-1.7038-1.2024-0.57144-3.0007-0.5604z" stroke="#000" stroke-linecap="square" stroke-width=".72"/>
	<path aria-label="D" d="m294.27 467.83q2.0981-0.0129 3.809 0.89664 1.7107 0.89904 2.6606 2.4125 0.6576 1.05 0.95496 2.3508 0.29736 1.2902 0.31032 3.4087l0.0238 3.8861-15.389 0.0936-0.0236-3.8446q-0.0138-2.2531 0.30864-3.5779 0.31224-1.3351 0.8748-2.2586 0.97224-1.577 2.5997-2.4655t3.8702-0.90216zm-0.0181 2.1396q-1.8086 0.0111-3.0451 0.6492-1.2365 0.63816-1.9418 1.8931-0.5112 0.91272-0.70128 1.937-0.1992 1.0243-0.192 2.4506l0.0118 1.9224 11.875-0.072-0.0118-1.9224q-9e-3 -1.4779-0.2328-2.5721-0.2232-1.1045-0.81864-2.0206-0.74088-1.1426-1.9433-1.7038-1.2024-0.57144-3.0007-0.5604z" stroke="#000" stroke-linecap="square" stroke-width=".72"/>
	<path aria-label="D" d="m191.87 376.15q2.098-0.0129 3.809 0.89664 1.7109 0.89904 2.6606 2.4125 0.65758 1.05 0.95496 2.3508 0.29731 1.2902 0.31032 3.4087l0.0238 3.8861-15.389 0.0936-0.0236-3.8446q-0.0138-2.2531 0.30879-3.5779 0.31221-1.3351 0.87499-2.2586 0.97219-1.577 2.5997-2.4655 1.6276-0.88848 3.8702-0.90216zm-0.0178 2.1396q-1.8086 0.0111-3.0449 0.6492-1.2363 0.63816-1.9418 1.8931-0.51118 0.91272-0.70126 1.937-0.2004 1.0243-0.19152 2.4506l0.0118 1.9224 11.875-0.072-0.0118-1.9224q-9e-3 -1.4779-0.2328-2.5721-0.22368-1.1045-0.81856-2.0208-0.74084-1.1426-1.9432-1.7038-1.2024-0.57144-3.0007-0.5604z" stroke="#000" stroke-linecap="square" stroke-width=".72"/>
	<path aria-label="D" d="m193.06 310.27q2.098-0.0129 3.809 0.89664 1.7109 0.89904 2.6606 2.4125 0.65758 1.05 0.95496 2.3506 0.29731 1.2902 0.31032 3.4087l0.0238 3.8861-15.389 0.0936-0.0236-3.8446q-0.0138-2.2531 0.30879-3.5779 0.31221-1.3351 0.87499-2.2584 0.97221-1.577 2.5997-2.4655 1.6276-0.88848 3.8702-0.90216zm-0.0178 2.1396q-1.8086 0.0111-3.0449 0.6492-1.2363 0.63816-1.9418 1.8931-0.51118 0.91272-0.70126 1.937-0.2004 1.0243-0.19152 2.4506l0.0118 1.9224 11.875-0.072-0.0118-1.9224q-9e-3 -1.4779-0.2328-2.5721-0.22368-1.1045-0.81856-2.0208-0.74084-1.1426-1.9432-1.704-1.2024-0.57144-3.0007-0.5604z" stroke="#000" stroke-linecap="square" stroke-width=".72"/>
	<path aria-label="D" d="m56.538 307.89q2.098-0.0129 3.809 0.89664 1.7109 0.89904 2.6606 2.4125 0.65757 1.0502 0.95496 2.3508 0.29731 1.2902 0.31032 3.4087l0.0238 3.8861-15.389 0.0936-0.0236-3.8446q-0.0138-2.2531 0.30878-3.5779 0.31222-1.3351 0.875-2.2584 0.97219-1.577 2.5997-2.4655 1.6276-0.88848 3.8702-0.90216zm-0.0178 2.1396q-1.8086 0.0111-3.0449 0.6492-1.2363 0.63816-1.9418 1.8931-0.51118 0.91272-0.70126 1.937-0.2004 1.0243-0.19152 2.4506l0.0118 1.9224 11.875-0.072-0.0118-1.9224q-9e-3 -1.4779-0.2328-2.5721-0.22368-1.1045-0.81857-2.0206-0.74083-1.1426-1.9432-1.7038-1.2024-0.57144-3.0007-0.5604z" stroke="#000" stroke-linecap="square" stroke-width=".72"/>
	<path aria-label="D" d="m55.348 374.16q2.098-0.0129 3.809 0.89664 1.7109 0.89904 2.6606 2.4125 0.65757 1.05 0.95493 2.3506 0.29731 1.2902 0.31032 3.4087l0.0238 3.8861-15.389 0.0936-0.0236-3.8446q-0.0138-2.2531 0.30878-3.5779 0.31222-1.3351 0.87499-2.2586 0.9722-1.577 2.5997-2.4655 1.6276-0.88848 3.8702-0.90216zm-0.0178 2.1396q-1.8086 0.0111-3.0449 0.6492-1.2363 0.63816-1.9418 1.8931-0.51118 0.91272-0.70126 1.937-0.2004 1.0243-0.19152 2.4506l0.0118 1.9224 11.875-0.072-0.0118-1.9224q-9e-3 -1.4779-0.2328-2.5721-0.22368-1.1045-0.81857-2.0208-0.74083-1.1426-1.9432-1.704-1.2024-0.57144-3.0007-0.5604z" stroke="#000" stroke-linecap="square" stroke-width=".72"/>
	<path aria-label="D" d="m276.87 529.56q2.0981-0.0129 3.809 0.89664 1.7107 0.89904 2.6606 2.4125 0.6576 1.0502 0.95496 2.3508 0.29736 1.29 0.31032 3.4087l0.0238 3.8861-15.389 0.0936-0.0236-3.8446q-0.0138-2.2531 0.30864-3.5779 0.31224-1.3351 0.8748-2.2586 0.97224-1.577 2.5997-2.4655t3.8702-0.90216zm-0.0181 2.1396q-1.8086 0.0111-3.0451 0.6492-1.2365 0.63816-1.9418 1.8931-0.5112 0.91272-0.70128 1.937-0.1992 1.0243-0.192 2.4506l0.0118 1.9224 11.875-0.072-0.0118-1.9224q-9e-3 -1.4779-0.2328-2.5721-0.2232-1.1045-0.81864-2.0208-0.74064-1.1426-1.9433-1.7038-1.2024-0.57144-3.0007-0.5604z" stroke="#000" stroke-linecap="square" stroke-width=".72"/>
	<path aria-label="D" d="m277.99 587.37q2.0981-0.0129 3.809 0.89664 1.711 0.89904 2.6606 2.4125 0.6576 1.0502 0.95496 2.3508 0.29736 1.2902 0.31032 3.4087l0.0238 3.8861-15.389 0.0936-0.0236-3.8446q-0.0138-2.2531 0.30864-3.5779 0.31224-1.3351 0.87504-2.2586 0.97224-1.577 2.5997-2.4655t3.8702-0.90216zm-0.0181 2.1396q-1.8086 0.0111-3.0451 0.6492-1.2365 0.63816-1.9418 1.8931-0.5112 0.91272-0.70128 1.937-0.1992 1.0243-0.192 2.4506l0.0118 1.9224 11.875-0.072-0.0118-1.9224q-9e-3 -1.4779-0.2328-2.5721-0.2232-1.1045-0.81864-2.0208-0.74088-1.1426-1.9433-1.7038-1.2024-0.57144-3.0007-0.5604z" stroke="#000" stroke-linecap="square" stroke-width=".72"/>
	<path aria-label="D" d="m203.9 656.97q2.098-0.0129 3.809 0.89664 1.7109 0.89904 2.6606 2.4125 0.65758 1.0502 0.95496 2.3508 0.29731 1.2902 0.31032 3.4087l0.0238 3.8861-15.389 0.0936-0.0236-3.8446q-0.0138-2.2531 0.30879-3.5779 0.31221-1.3351 0.87499-2.2584 0.97219-1.577 2.5997-2.4655 1.6276-0.88848 3.8702-0.90216zm-0.0178 2.1396q-1.8086 0.0111-3.0449 0.6492-1.2363 0.63816-1.9418 1.8931-0.51118 0.91272-0.70126 1.937-0.2004 1.0243-0.19152 2.4506l0.0118 1.9224 11.875-0.072-0.0118-1.9224q-9e-3 -1.4779-0.2328-2.5721-0.22368-1.1045-0.81856-2.0208-0.74084-1.1426-1.9432-1.7038-1.2024-0.57144-3.0007-0.5604z" stroke="#000" stroke-linecap="square" stroke-width=".72"/>
	<path aria-label="D" d="m418.87 656.97q2.0981-0.0129 3.809 0.89664 1.711 0.89904 2.6606 2.4125 0.6576 1.05 0.95496 2.3508 0.29736 1.29 0.31033 3.4087l0.0238 3.8861-15.389 0.0936-0.0236-3.8446q-0.0138-2.2531 0.30888-3.5779 0.31224-1.3351 0.8748-2.2586 0.97224-1.577 2.5997-2.4655t3.8702-0.90216zm-0.0181 2.1396q-1.8086 0.0111-3.0449 0.6492-1.2365 0.63816-1.9418 1.8931-0.5112 0.91272-0.70128 1.937-0.1992 1.0243-0.192 2.4506l0.0118 1.9224 11.875-0.072-0.0118-1.9224q-9e-3 -1.4779-0.2328-2.5721-0.2232-1.1045-0.81864-2.0208-0.74064-1.1426-1.9433-1.7038-1.2024-0.57144-3.0007-0.5604z" stroke="#000" stroke-linecap="square" stroke-width=".72"/>
	<path aria-label="D" d="m313.92 707.49q2.0981-0.0129 3.809 0.89664 1.7107 0.89904 2.6606 2.4125 0.6576 1.0502 0.95496 2.3508 0.29736 1.29 0.31032 3.4087l0.0238 3.8861-15.389 0.0936-0.0236-3.8446q-0.0138-2.2531 0.30888-3.5779 0.31224-1.3351 0.8748-2.2584 0.97224-1.577 2.5997-2.4655t3.8702-0.90216zm-0.0181 2.1396q-1.8086 0.0111-3.0449 0.6492-1.2365 0.63816-1.9418 1.8929-0.5112 0.91272-0.70128 1.937-0.1992 1.0243-0.192 2.4506l0.0118 1.9224 11.875-0.072-0.0118-1.9224q-9e-3 -1.4779-0.2328-2.5721-0.2232-1.1045-0.81864-2.0208-0.74088-1.1426-1.9433-1.7038-1.2024-0.57144-3.0007-0.5604z" stroke="#000" stroke-linecap="square" stroke-width=".72"/>
	<path aria-label="D" d="m314.47 768.12q2.0981-0.0129 3.809 0.89664 1.711 0.89904 2.6606 2.4125 0.6576 1.0502 0.95496 2.3508 0.29736 1.2902 0.31032 3.4087l0.0238 3.8861-15.389 0.0936-0.0236-3.8446q-0.0138-2.2531 0.30888-3.5779 0.31224-1.3351 0.87504-2.2584 0.97224-1.577 2.5997-2.4655t3.8702-0.90216zm-0.0181 2.1396q-1.8086 0.0111-3.0449 0.6492-1.2365 0.63816-1.9418 1.8931-0.5112 0.91272-0.70104 1.937-0.1992 1.0243-0.192 2.4506l0.0118 1.9224 11.875-0.072-0.0118-1.9224q-9e-3 -1.4779-0.2328-2.5721-0.2232-1.1045-0.81864-2.0206-0.74088-1.1426-1.9433-1.7038-1.2024-0.57144-3.0007-0.5604z" stroke="#000" stroke-linecap="square" stroke-width=".72"/>
	<path aria-label="D" d="m197.17 882.05q2.098-0.0129 3.809 0.89664 1.7109 0.89904 2.6606 2.4125 0.65758 1.0502 0.95496 2.3508 0.29731 1.2902 0.31032 3.4087l0.0238 3.8861-15.389 0.0936-0.0236-3.8438q-0.0138-2.2531 0.30879-3.5779 0.31221-1.3351 0.87499-2.2584 0.97219-1.577 2.5997-2.4655 1.6276-0.88872 3.8702-0.9024zm-0.0178 2.1396q-1.8086 0.0111-3.0449 0.6492-1.2363 0.63816-1.9418 1.8931-0.51118 0.91272-0.70126 1.937-0.2004 1.0243-0.19152 2.4506l0.0118 1.9224 11.875-0.072-0.0118-1.9224q-9e-3 -1.4779-0.2328-2.5721-0.22368-1.1045-0.81856-2.0206-0.74084-1.1426-1.9432-1.704-1.2024-0.57144-3.0007-0.5604z" stroke="#000" stroke-linecap="square" stroke-width=".72"/>
	<path aria-label="D" d="m263.95 882.6q2.0981-0.0129 3.809 0.89664 1.7107 0.89904 2.6606 2.4125 0.6576 1.0502 0.95496 2.3508 0.29736 1.2902 0.31032 3.4087l0.0238 3.8861-15.389 0.0936-0.0236-3.8446q-0.0138-2.2531 0.30888-3.5779 0.31224-1.3351 0.8748-2.2584 0.97224-1.577 2.5997-2.4655t3.8702-0.90216zm-0.0181 2.1396q-1.8086 0.0111-3.0449 0.6492-1.2365 0.63816-1.9418 1.8931-0.5112 0.91272-0.70104 1.937-0.1992 1.0243-0.192 2.4506l0.0118 1.9224 11.875-0.072-0.0118-1.9224q-9e-3 -1.4779-0.2328-2.5721-0.2232-1.1045-0.81864-2.0206-0.74088-1.1426-1.9433-1.7038-1.2024-0.57144-3.0007-0.5604z" stroke="#000" stroke-linecap="square" stroke-width=".72"/>
	<path aria-label="D" d="m262.27 947.71q2.0981-0.0129 3.809 0.89664 1.7107 0.89904 2.6606 2.4125 0.6576 1.05 0.95496 2.3506 0.29736 1.29 0.31032 3.4087l0.0238 3.8861-15.389 0.0936-0.0236-3.8446q-0.0138-2.2531 0.30888-3.5779 0.31224-1.3351 0.87504-2.2586 0.97224-1.577 2.5997-2.4655t3.8702-0.90216zm-0.0181 2.1396q-1.8086 0.0111-3.0449 0.6492-1.2365 0.63816-1.9418 1.8931-0.5112 0.91272-0.70104 1.937-0.1992 1.0243-0.192 2.4506l0.0118 1.9224 11.875-0.072-0.0118-1.9224q-9e-3 -1.4779-0.2328-2.5721-0.2232-1.1045-0.81864-2.0208-0.74064-1.1426-1.9433-1.7038-1.2024-0.57144-3.0007-0.5604z" stroke="#000" stroke-linecap="square" stroke-width=".72"/>
	<path aria-label="D" d="m199.41 946.58q2.098-0.0129 3.809 0.89664 1.7109 0.89904 2.6606 2.4125 0.65758 1.0502 0.95496 2.3508 0.29731 1.2902 0.31032 3.4087l0.0238 3.8861-15.389 0.0936-0.0236-3.8446q-0.0138-2.2531 0.30879-3.5779 0.31221-1.3351 0.87499-2.2584 0.97221-1.577 2.5997-2.4655 1.6276-0.88848 3.8702-0.90216zm-0.0178 2.1396q-1.8086 0.0111-3.0449 0.6492-1.2363 0.63816-1.9418 1.8931-0.51118 0.91272-0.70126 1.937-0.2004 1.0243-0.19152 2.4506l0.0118 1.9224 11.875-0.072-0.0118-1.9224q-9e-3 -1.4779-0.2328-2.5721-0.22368-1.1045-0.81856-2.0206-0.74084-1.1426-1.9432-1.7038-1.2024-0.57144-3.0007-0.5604z" stroke="#000" stroke-linecap="square" stroke-width=".72"/>
	<path aria-label="H" d="m142.09 343.53v2.0465h-7.5343v7.679h7.5343v2.0465h-15.389v-2.0465h6.0358v-7.679h-6.0358v-2.0465z" stroke="#000" stroke-linecap="square" stroke-width=".72"/>
	<path aria-label="H" d="m317.52 661.82v2.0465h-7.5343v7.679h7.5343v2.0465h-15.389v-2.0465h6.0358v-7.679h-6.0358v-2.0465z" stroke="#000" stroke-linecap="square" stroke-width=".72"/>
</svg>
