<?xml version="1.0" encoding="utf-8"?>
<svg xmlns="http://www.w3.org/2000/svg" version="1.1" viewBox="0 0 158 238">
	<title>A floor plan on the left shows twelve unlabeled rooms around a central staircase. There are windows at the front and back. A line indicates 72 feet form front to back. An additional 16 feet of space is indicated at the back, with a small area labeled as a vault. A floor plan on the right shows eight rooms around a central staircase. The four rooms on the left are labeled: a kitchen, two bedrooms, and a sitting room.</title>
	<path aria-label="KITCHEN" d="m98.387 108.76h-0.41882l-0.95987-0.83104-0.24119 0.19805v0.63299h-0.32267v-1.8664h0.32267v0.97393l1.1782-0.97393h0.39112l-1.0837 0.87741zm1.2174 0h-0.95824v-0.19053h0.31778v-1.4853h-0.31778v-0.19052h0.95824v0.19052h-0.31778v1.4853h0.31778zm2.2799-1.6458h-0.86697v1.6458h-0.32267v-1.6458h-0.86698v-0.22061h2.0566zm2.1348 1.5104q-0.0896 0.0301-0.16296 0.0564-0.0717 0.0263-0.18904 0.0552-0.0994 0.0239-0.21675 0.0401-0.1157 0.0175-0.25585 0.0175-0.26401 0-0.48075-0.0564-0.21511-0.0576-0.37482-0.17924-0.15645-0.11907-0.24445-0.30208-0.088-0.18426-0.088-0.42743 0-0.23063 0.0847-0.41238t0.24445-0.30709q0.15481-0.12159 0.37319-0.18552 0.22-0.0639 0.48726-0.0639 0.19556 0 0.38949 0.0363 0.19556 0.0363 0.43349 0.12785v0.29456h-0.0244q-0.20044-0.1291-0.39763-0.18801-0.19719-0.0589-0.42208-0.0589-0.18415 0-0.33245 0.0464-0.14667 0.0452-0.26238 0.14164-0.11245 0.094-0.176 0.23815-0.0619 0.1429-0.0619 0.33091 0 0.19679 0.0684 0.33843 0.0701 0.14164 0.17927 0.23063 0.11407 0.0928 0.26563 0.13789 0.15319 0.0438 0.32267 0.0438 0.23304 0 0.43675-0.0614t0.38134-0.18426h0.0228zm2.3125 0.13537h-0.32267v-0.91376h-1.2108v0.91376h-0.32267v-1.8664h0.32267v0.73201h1.2108v-0.73201h0.32267zm2.2506 0h-1.5987v-1.8664h1.5987v0.22061h-1.276v0.5114h1.276v0.22061h-1.276v0.69315h1.276zm2.363 0h-0.39927l-1.1505-1.6696v1.6696h-0.30149v-1.8664h0.5003l1.0495 1.5242v-1.5242h0.30149z" stroke="#000" stroke-linecap="square" stroke-miterlimit="0" stroke-width=".13172"/>
	<path d="m76.856 48.585 2.1048 2.3399m-2.1822-0.05242 2.1396-2.2024" fill="none" stroke="#000" stroke-linecap="square" stroke-miterlimit="0" stroke-width=".15"/>
	<path d="m119.78 149.51c-1.3803 2e-3 -1.5624 1.2629-1.5624 1.2629l0.17184 30.318s0.17764 1.1761 1.4584 1.1325c1.1938-0.0406 1.362-1.1205 1.362-1.1205l0.0129-30.533s0.0118-1.0625-1.4428-1.0602z" fill="none" stroke="#000" stroke-linecap="square" stroke-width=".15"/>
	<path d="m119.78 150.53c-0.69591 4e-3 -0.74216 0.72492-0.74082 0.72472l0.0444 29.177s0.04 0.70369 0.7359 0.69148c0.68668-0.012 0.71225-0.74303 0.71225-0.74303l-0.042-29.127s-0.0835-0.72635-0.70976-0.72272z" fill="none" stroke="#000" stroke-linecap="square" stroke-width=".15"/>
	<path d="m9.8663 48.603 0.10101-41.646 62.334 0.28033-0.2598 41.46" fill="none" stroke="#000" stroke-linecap="square" stroke-width=".15"/>
	<path d="m129.41 155.17 8.6639 0.0326" fill="none" stroke="#000" stroke-linecap="square" stroke-miterlimit="0" stroke-width=".15"/>
	<path d="m130.92 157.02-0.0223-1.0064 6.5805 0.0202" fill="none" stroke="#000" stroke-linecap="square" stroke-miterlimit="0" stroke-width=".15"/>
	<path d="m130.96 162.62-7e-3 0.69942 5.7157 0.0226-0.0151-0.69943" fill="none" stroke="#000" stroke-linecap="square" stroke-miterlimit="0" stroke-width=".15"/>
	<path d="m130.75 164.61 6.0692-0.0301" fill="none" stroke="#000" stroke-linecap="square" stroke-miterlimit="0" stroke-width=".15"/>
	<path d="m141.54 163.3 8.7842 0.0301" fill="none" stroke="#000" stroke-linecap="square" stroke-miterlimit="0" stroke-width=".15"/>
	<path d="m141.51 164.6 8.6789 0.0451" fill="none" stroke="#000" stroke-linecap="square" stroke-miterlimit="0" stroke-width=".15"/>
	<path d="m59.728 7.1525-0.01987 31.229 12.24 0.15625" fill="none" stroke="#000" stroke-linecap="square" stroke-width=".15"/>
	<path d="m32.875 125.62 7.4375 0.0625 0.0625 31.562" fill="none" stroke="#000" stroke-linecap="square" stroke-width=".15"/>
	<path d="m32.688 127.38h7.625zm0.02148 1.9004h7.625zm-0.04297 1.7676h7.625zm0.02148 1.502h7.625zm-0.01758 1.7891h7.625zm0 1.7891h7.625zm-0.09375 1.5938h7.625zm0 1.7012h7.625zm0.07227 2.0586h7.625zm-0.09375 1.9688h7.625zm0.0625 1.5625h7.625zm-0.0625 1.875h7.625zm0 1.6562h7.625zm0.03125 1.5938h7.625zm0.15625 1.6562h7.625zm-0.09375 1.9375h7.625zm-0.0625 1.875h7.625zm0.09375 1.5938h7.625z" fill="none" stroke="#000" stroke-linecap="square" stroke-width=".15"/>
	<path d="m92.781 88.023 7.75 0.04688zm-0.01172 1.4199 7.9062 2e-3zm0.01641 1.2095 7.8338 0.01189z" fill="none" stroke="#000" stroke-linecap="square" stroke-width=".15"/>
	<path d="m108.51 87.935 7.75 0.04688zm-0.0117 1.4199 7.9062 2e-3zm0.0164 1.2095 7.8338 0.01189z" fill="none" stroke="#000" stroke-linecap="square" stroke-width=".15"/>
	<path d="m116.39 119.91 7.5937-0.0937" fill="none" stroke="#000" stroke-linecap="square" stroke-width=".15"/>
	<path d="m90.134 163.58 9.0819 0.0442" fill="none" stroke="#000" stroke-linecap="square" stroke-width=".15"/>
	<path d="m90.352 164.73 8.9078 4e-3" fill="none" stroke="#000" stroke-linecap="square" stroke-width=".15"/>
	<path d="m99.172 158.26-0.0221 3.4913" fill="none" stroke="#000" stroke-linecap="square" stroke-width=".15"/>
	<path d="m104.08 163.43h5.3254" fill="none" stroke="#000" stroke-linecap="square" stroke-width=".15"/>
	<path d="m104.06 155.32 5.3566-3e-3" fill="none" stroke="#000" stroke-linecap="square" stroke-width=".15"/>
	<path d="m104.31 157.14-9e-3 -0.8945 4.9819 0.0341 0.0333 0.77111" fill="none" stroke="#000" stroke-linecap="square" stroke-width=".15"/>
	<path d="m124.6 87.919 7.75 0.04688zm-0.0117 1.4199 7.9062 2e-3zm0.0164 1.2095 7.8338 0.01189z" fill="none" stroke="#000" stroke-linecap="square" stroke-width=".15"/>
	<path d="m139.96 87.869 7.6174 0.06898zm-0.0338 1.4641 7.6853 0.04619zm0.10479 1.2758 7.6791 0.10028z" fill="none" stroke="#000" stroke-linecap="square" stroke-width=".15"/>
	<path d="m92.846 233.15 7.75 0.0469zm-0.01953 1.4355 7.9141 0.0254zm0.05737 1.2822 7.785-6e-3z" fill="none" stroke="#000" stroke-linecap="square" stroke-width=".15"/>
	<path d="m108.68 233.13 7.8281-0.0312zm-0.0117 1.4199 7.9844-0.0761zm0.0164 1.2095 7.9119-0.0662z" fill="none" stroke="#000" stroke-linecap="square" stroke-width=".15"/>
	<path d="m124.11 232.87 8.2803 0.0248zm-0.0117 1.4199 8.4366-0.0201zm0.0606 1.32 8.4084-0.12068z" fill="none" stroke="#000" stroke-linecap="square" stroke-width=".15"/>
	<path d="m138.37 232.77 9.25-0.0156zm-0.0117 1.4199 9.4062-0.0605zm0.0164 1.2095 9.3338-0.0506z" fill="none" stroke="#000" stroke-linecap="square" stroke-width=".15"/>
	<path d="m14.783 48.46 7.75 0.0469zm-0.07422 1.0137 7.9062 2e-3zm-0.04609 0.8501 7.8338 0.0119z" fill="none" stroke="#000" stroke-linecap="square" stroke-width=".15"/>
	<path d="m110.53 132.72 0.0312 5.6562" fill="none" stroke="#000" stroke-linecap="square" stroke-width=".15"/>
	<path d="m129.38 132.7-0.0625 5.9219" fill="none" stroke="#000" stroke-linecap="square" stroke-width=".15"/>
	<path d="m115.97 92.656v9.8438" fill="none" stroke="#000" stroke-linecap="square" stroke-width=".15"/>
	<path d="m116 104.16v5.125" fill="none" stroke="#000" stroke-linecap="square" stroke-width=".15"/>
	<path d="m124.91 92.658-0.0937 17.686" fill="none" stroke="#000" stroke-linecap="square" stroke-width=".15"/>
	<path d="m29.279 48.548 7.75 0.0469zm-0.07422 1.0137 7.9062 2e-3zm-0.04609 0.8501 7.8338 0.0119z" fill="none" stroke="#000" stroke-linecap="square" stroke-width=".15"/>
	<path d="m45.404 48.548 7.75 0.0469zm-0.07422 1.0137 7.9062 2e-3zm-0.04609 0.8501 7.8338 0.0119z" fill="none" stroke="#000" stroke-linecap="square" stroke-width=".15"/>
	<path d="m59.279 48.534 7.75 0.0469zm-0.07422 1.0137 7.9062 2e-3zm-0.04609 0.9164 7.8338 0.0119z" fill="none" stroke="#000" stroke-linecap="square" stroke-width=".15"/>
	<path d="m13.369 232.97 7.75 0.0469zm-0.09632 1.0579 7.7958-0.0201zm-0.13448 0.96059 7.8338 0.0119z" fill="none" stroke="#000" stroke-linecap="square" stroke-width=".15"/>
	<path d="m27.865 233.04 7.75 0.0469zm-0.09632 1.0579 7.9062 2e-3zm-0.02399 0.96059 7.8338 0.0119z" fill="none" stroke="#000" stroke-linecap="square" stroke-width=".15"/>
	<path d="m43.99 233.08 7.75 0.0469zm-0.09632 1.1904 7.9062 2e-3zm-0.0019 0.96059 7.8338 0.0119z" fill="none" stroke="#000" stroke-linecap="square" stroke-width=".15"/>
	<path d="m57.865 233.18 7.75 0.0469zm-0.05859 1.123 7.9062 2e-3zm7.85e-4 0.99453 7.8338 0.0119z" fill="none" stroke="#000" stroke-linecap="square" stroke-width=".15"/>
	<path d="m110.78 151.02h7.4219zm0.0215 1.9004h7.4062zm-0.043 1.7676h7.5zm0.0657 1.9881h7.4375zm-0.0618 1.9658 7.5156 0.0156zm0.13258 1.7007 7.3594 0.0312zm-0.18209 2.0357 7.5625 0.0156zm-0.0603 2.0804h7.625zm0.25986 2.1013 7.3156-0.0442zm0.14821 1.908 7.2741 8e-3zm-0.36918 1.9272h7.625zm0 2.1424h7.625zm-0.013 2.0799h7.625zm0.0237 1.6121h7.625zm-0.18209 1.8491h7.7812zm-0.0183 1.9192h7.8125zm0.57984 2.2125 8.1094-0.0312z" fill="none" stroke="#000" stroke-linecap="square" stroke-width=".15"/>
	<path color="#000000" d="m77.154 185.71v0.0742l-0.07919 5.1965v0.0762h0.15039v-0.0762l0.07729-5.1965v-0.0742zm-0.0057 7.6173v0.0742l-0.05791 4.4307v0.0762h0.15039v-0.0762l0.05791-4.4307v-0.0742zm-0.01347 6.457v0.0742l-0.01537 5.4305v0.0762h0.15039v-0.0762l0.01537-5.4305v-0.0742zm0.0156 7.5535v0.0742l-0.01347 4.3031v0.0762h0.15039l-2e-3 -0.0762 0.01537-4.3031v-0.0742zm-0.01347 6.0954v0.0742l-0.01347 4.1116v0.0762h0.15039v-0.0762l0.01347-4.1116v-0.0742zm-0.0037 5.8092v0.0742l0.0059 4.6647v0.0762h0.15039v-0.0762l-0.0078-4.6647v-0.0742zm0.0078 6.2017v0.0742l0.01213 3.8595v0.0762h0.15039v-0.0762l-0.01213-3.8595-2e-3 -0.0742zm-0.06118 4.8276v0.0742l-0.05427 4.7803v0.0762h0.15039v-0.0762l0.05427-4.7803v-0.0742z" fill="none" stroke="#000" stroke-linecap="square" stroke-width=".15"/>
	<path d="m75.929 233.74 1.1732 0.93257 1.0379-0.7972" fill="none" stroke="#000" stroke-linecap="square" stroke-miterlimit="0" stroke-width=".15"/>
	<path color="#000000" d="m77.43 137.17v0.0742l0.0059 3.4947v0.0762h0.15039v-0.0762l-0.0078-3.4947v-0.0742zm-0.11206 5.8731v0.0742l0.0059 3.7713v0.0762h0.15039v-0.0762l-0.0059-3.7713v-0.0742zm0.02907 6.4783v0.0742l0.02717 4.3882v0.0762h0.15039v-0.0762l-0.02717-4.3882v-0.0742zm-0.02694 7.0005v0.0742l0.0078 4.9625v0.0762h0.15039l-2e-3 -0.0762-0.0059-4.9625v-0.0742zm-0.09856 7.393v0.0742l0.0078 5.0688v0.0762h0.15039v-0.0762l-0.0078-5.0688v-0.0742zm0.03884 7.1706v0.0742l0.0059 4.1116v0.0762h0.15039v-0.0762l-0.0078-4.1116v-0.0742zm-0.07465 6.6687v0.0742l-0.07554 5.0569v0.0762h0.15039v-0.0762l0.07554-5.0569v-0.0742zm0.30857-47.024v0.0742l0.01884 1.5526v0.0762h0.15039v-0.0762l-0.02074-1.5526v-0.0742z" fill="none" stroke="#000" stroke-linecap="square" stroke-width=".15"/>
	<path color="#000000" d="m77.664 78.079v0.0742l0.02717 6.0686v0.0762h0.15039v-0.0762l-0.02907-6.0686v-0.0742zm0.01557 8.0428v0.0742l0.0059 4.5158v0.0762h0.15039v-0.0762l-0.0059-4.5158v-0.0742zm0.0078 6.8612v0.0742l0.0059 5.3666v0.0762h0.15039v-0.0762l-0.0059-5.3666v-0.0742zm-0.0057 7.1281v0.0742l0.0078 4.8136v0.0762h0.15039l-2e-3 -0.0762-0.0059-4.8136v-0.0742zm-0.05602 7.2228v0.0742l-0.03474 4.1116v0.0762h0.15039v-0.0762l0.03474-4.1116v-0.0742zm-0.11006 6.6601v0.0742l0.0059 4.1116v0.0762h0.15039v-0.0762l-0.0078-4.1116v-0.0742zm0.0016 6.4026v0.0742l-0.04546 5.4931v0.0762h0.15039v-0.0762l0.04546-5.4931v-0.0742z" fill="none" stroke="#000" stroke-linecap="square" stroke-width=".15"/>
	<path d="m104.22 165.43 2e-3 -0.76687 4.9819 0.0341 0.0227 0.64348" fill="none" stroke="#000" stroke-linecap="square" stroke-width=".15"/>
	<path color="#000000" d="m77.819 23.823v0.0742l0.01213 1.857v0.0762h0.15039v-0.0762l-0.01403-1.857v-0.0742zm0.0093 14.267v0.0742l0.0059 4.7072v0.0762h0.15039v-0.0762l-0.0059-4.7072v-0.0742zm-0.05602 6.8612v0.0742l0.0059 6.8131v0.0762h0.15039v-0.0762l-0.005856-6.8131v-0.0742zm0.01557 7.9151v0.0742l0.0078 6.2388v0.0762h0.15039l-2e-3 -0.0762-0.0059-6.2388v-0.0742zm-0.03845 8.7564v0.0742l-0.01537 5.4305v0.0762h0.15039v-0.0762l0.01347-5.4305v-0.0742zm0.08669 7.6789v0.0742l-0.04546 5.4931v0.0762h0.15039v-0.0762l0.04546-5.4931v-0.0742z" fill="none" stroke="#000" stroke-linecap="square" stroke-width=".15"/>
	<path color="#000000" d="m77.858 7.6623v0.0742l-0.02418 3.9627v0.0762h0.15039v-0.0762l0.02418-3.9627v-0.0742zm0.0041 5.2442v0.0742l0.0059 3.0829v0.0762h0.15039v-0.0762l-0.0059-3.0829v-0.0742zm-0.07468 5.4484v0.0742l0.0078 4.1631v0.0762h0.15039l-2e-3 -0.0762-0.0059-4.1631v-0.0742z" fill="none" stroke="#000" stroke-linecap="square" stroke-width=".15"/>
	<path d="m77.004 8.6789 0.93595-0.95723 0.8296 0.80832" fill="none" stroke="#000" stroke-linecap="square" stroke-miterlimit="0" stroke-width=".15"/>
	<path d="m128.65 157.47 0.0884 5.098" fill="none" stroke="#000" stroke-linecap="square" stroke-miterlimit="0" stroke-width=".15"/>
	<path d="m129.28 157.56 0.0796 4.857" fill="none" stroke="#000" stroke-linecap="square" stroke-miterlimit="0" stroke-width=".15"/>
	<path d="m140.95 157.25 0.0378 5.308" fill="none" stroke="#000" stroke-linecap="square" stroke-miterlimit="0" stroke-width=".15"/>
	<path aria-label="72 ft." d="m76.398 135.26c0.03125-2.7e-4 0.05991 1e-3 0.08598 4e-3 0.02433 2e-3 0.04865 5e-3 0.07301 0.01 0.0226 3e-3 0.04522 9e-3 0.06787 0.0176 0.02089 7e-3 0.04353 0.0152 0.06793 0.0254l2.8073 1.1892c0.02091 9e-3 0.03836 0.0197 0.05237 0.0334 0.01225 0.012 0.02282 0.0284 0.03168 0.0492 0.0071 0.019 0.01167 0.0442 0.01368 0.0754 0.0038 0.0313 0.0058 0.0695 0.0062 0.11454 5.13e-4 0.059-0.0017 0.10503-0.0066 0.13809-0.0049 0.033-0.01251 0.0574-0.0228 0.0731-0.01203 0.014-0.02587 0.0201-0.04151 0.0186-0.01738-2e-3 -0.0374-8e-3 -0.06006-0.0177l-2.8704-1.2511 0.01407 1.6171c2.87e-4 0.033-0.01685 0.0583-0.05142 0.076-0.03458 0.0159-0.08312 0.0241-0.14562 0.0247-0.03299 2.9e-4 -0.06165-1e-3 -0.08598-4e-3 -0.02435-5e-3 -0.04438-0.0119-0.06007-0.0203-0.01744-9e-3 -0.02967-0.0188-0.03673-0.0309-0.0088-0.012-0.01325-0.0259-0.01338-0.0416l-0.01709-1.9635c-2.12e-4 -0.0243 0.0022-0.0452 0.0073-0.0626 5e-3 -0.0191 0.01533-0.0331 0.03089-0.042 0.01554-0.0105 0.03543-0.0185 0.05969-0.0239 0.02427-5e-3 0.05549-8e-3 0.09368-9e-3zm2.9612-2.6795c0.03125-2.8e-4 0.05904 2e-3 0.0834 7e-3 0.02434 3e-3 0.04522 9e-3 0.06266 0.0177 0.01569 7e-3 0.02793 0.017 0.03673 0.0309 7e-3 0.012 0.01065 0.0259 0.01078 0.0416l0.0162 1.8619c2.11e-4 0.0243-0.0022 0.046-0.0072 0.0652-0.0067 0.0174-0.01707 0.0331-0.03084 0.0472-0.01378 0.0122-0.03366 0.022-0.05965 0.0292-0.026 5e-3 -0.05809 9e-3 -0.09628 9e-3 -0.03472 3e-4 -0.06511-4.3e-4 -0.09117-2e-3 -0.02607-3e-3 -0.04869-9e-3 -0.06786-0.0176-0.02091-9e-3 -0.04096-0.0187-0.06017-0.0307-0.02095-0.0137-0.0428-0.0308-0.06555-0.0515l-0.69837-0.64759c-0.16103-0.14965-0.3053-0.26906-0.43282-0.35823-0.12753-0.0909-0.24359-0.16022-0.34818-0.20792-0.1046-0.0494-0.1995-0.0816-0.2847-0.0965-0.0852-0.0149-0.16513-0.022-0.23978-0.0213-0.07465 6.5e-4 -0.14485 0.0135-0.21061 0.0383-0.0675 0.0249-0.12621 0.061-0.17615 0.1083-0.04995 0.0455-0.08938 0.10321-0.11829 0.17291-0.0289 0.0696-0.04297 0.14969-0.04218 0.23997 9.22e-4 0.10589 0.01651 0.20124 0.04676 0.28605 0.03023 0.083 0.063 0.15658 0.09827 0.22051 0.03526 0.0622 0.06784 0.11484 0.09774 0.15801 0.02987 0.0414 0.0449 0.0725 0.04508 0.0933 1.05e-4 0.0121-0.0033 0.0234-0.01012 0.034-0.0068 9e-3 -0.01809 0.0167-0.03365 0.0237-0.01559 5e-3 -0.03637 0.0103-0.06238 0.0136-0.02601 3e-3 -0.05724 6e-3 -0.0937 6e-3 -0.02604 2.3e-4 -0.04862-5.7e-4 -0.06773-2e-3 -0.01912-2e-3 -0.03563-5e-3 -0.04955-8e-3 -0.01393-5e-3 -0.02701-0.0112-0.03922-0.0179-0.01221-7e-3 -0.02709-0.0206-0.04463-0.0413-0.01928-0.0206-0.04476-0.056-0.07645-0.10611-0.0317-0.0518-0.06264-0.11576-0.09282-0.19191-0.03193-0.0778-0.05871-0.16269-0.08035-0.25452-0.02164-0.0935-0.03292-0.19156-0.03381-0.29399-0.0014-0.16318 0.02078-0.30574 0.06659-0.42767 0.04407-0.12366 0.10568-0.22576 0.18484-0.30631 0.07915-0.0823 0.1715-0.14386 0.27705-0.18471 0.10555-0.0408 0.21822-0.0618 0.33801-0.0628 0.10764-9.4e-4 0.21536 8e-3 0.32315 0.0258 0.10606 0.0182 0.22187 0.058 0.34741 0.11938 0.12379 0.0596 0.26257 0.14699 0.41636 0.262 0.15205 0.115 0.32786 0.26799 0.52745 0.45897l0.56192 0.52899-0.01276-1.4661c-1.21e-4 -0.0139 0.0041-0.0269 0.01268-0.0392 0.0068-0.014 0.01801-0.0254 0.03355-0.0342 0.01554-0.0105 0.03544-0.0176 0.05972-0.0213 0.02253-5e-3 0.04941-8e-3 0.08066-9e-3zm-2.3265-4.0425-0.0036-0.30952-0.55727 5e-3c-0.01215 1.1e-4 -0.02347-3e-3 -0.03394-0.0101-0.01048-7e-3 -0.01926-0.018-0.02633-0.0337-0.0088-0.0155-0.01508-0.0372-0.0188-0.0649-0.0037-0.0278-0.0058-0.0634-0.0061-0.10673-3.63e-4 -0.0417 1e-3 -0.0764 0.0043-0.10421 0.0033-0.0278 0.0091-0.0496 0.01766-0.0652 0.0068-0.0157 0.01539-0.027 0.02574-0.0341 0.01036-7e-3 0.02161-0.0106 0.03376-0.0107l0.55727-5e-3 -0.0052-0.59893c-1.21e-4 -0.0139 0.0033-0.026 0.0101-0.0366 0.0051-0.0121 0.01543-0.0218 0.031-0.0289 0.01383-7e-3 0.03201-0.0124 0.05455-0.0161 0.02253-5e-3 0.05027-8e-3 0.08326-9e-3 0.0625-5.4e-4 0.1077 7e-3 0.13561 0.0222 0.02791 0.0154 0.04198 0.036 0.04221 0.0621l0.0052 0.60153 1.3072-0.0114c0.16145-1e-3 0.28364-0.0259 0.36656-0.0735 0.08119-0.0476 0.12124-0.13386 0.12015-0.25886-3.32e-4 -0.0382-0.0041-0.0729-0.01133-0.10408-9e-3 -0.0329-0.0179-0.0614-0.02679-0.0857-0.0089-0.0242-0.01688-0.0451-0.02398-0.0623-0.0089-0.019-0.01332-0.0346-0.01343-0.0468-9.1e-5 -0.0104 0.0024-0.0191 0.0076-0.0261 0.0034-7e-3 0.01117-0.0122 0.0233-0.0158 0.01211-5e-3 0.02856-0.0102 0.04936-0.0134 0.0208-3e-3 0.04684-5e-3 0.07808-6e-3 0.05035-4.4e-4 0.09031 3e-3 0.1199 0.012 0.02957 7e-3 0.05136 0.0169 0.06537 0.0306 0.01401 0.0138 0.0272 0.0336 0.03958 0.0596s0.0222 0.0571 0.02947 0.0935c9e-3 0.0346 0.01625 0.0728 0.02183 0.11439 0.0055 0.0399 0.0085 0.0789 0.0088 0.11712 0.0011 0.12326-0.01363 0.22843-0.04413 0.3155-0.03223 0.0871-0.08022 0.15869-0.14397 0.21481-0.06548 0.0561-0.1476 0.0976-0.24632 0.12453-0.10048 0.0252-0.21842 0.0384-0.35384 0.0396l-1.3697 0.0119 0.0036 0.30884zm0.36038 0.34802 0.0072 0.5747 2.0546-0.0179c0.01389-1.3e-4 0.02607 3e-3 0.03655 0.0101 0.0088 7e-3 0.01666 0.0189 0.02376 0.0363 7e-3 0.0155 0.01248 0.0372 0.0162 0.065 0.0037 0.0278 0.0057 0.0625 0.0061 0.10411 3.63e-4 0.0417-1e-3 0.0764-0.0043 0.10422-0.0033 0.0278-0.0083 0.0505-0.01504 0.0678-0.0068 0.0157-0.01452 0.027-0.02314 0.0341-0.01036 7e-3 -0.02248 0.0106-0.03637 0.0107l-2.0546 0.0179 0.0029 0.33072c2.42e-4 0.0278-0.01347 0.0487-0.04112 0.0629-0.02766 0.0141-0.07274 0.0214-0.13523 0.022-0.03299 2.8e-4 -0.06078-1e-3 -0.08337-4e-3 -0.0226-3e-3 -0.04088-9e-3 -0.05482-0.0151-0.01569-7e-3 -0.02618-0.0154-0.03148-0.0257-7e-3 -0.0103-0.01062-0.0225-0.01074-0.0364l-0.0029-0.33071-0.24218 2e-3c-0.16319 1e-3 -0.30307-0.0122-0.41964-0.0406-0.11832-0.0303-0.21507-0.0754-0.29025-0.13549-0.07519-0.0618-0.13056-0.13946-0.1661-0.23295-0.03729-0.0952-0.05649-0.20697-0.05761-0.33544-5.59e-4 -0.0643 0.0058-0.12682 0.0192-0.18767 0.01162-0.0608 0.0234-0.10435 0.03533-0.13053 0.01019-0.0262 0.02045-0.0445 0.03077-0.055 0.01033-0.0105 0.02415-0.0184 0.04147-0.0238 0.01557-7e-3 0.03549-0.0116 0.05978-0.0135 0.02254-3e-3 0.0503-5e-3 0.08328-6e-3 0.03299-2.9e-4 0.05992 1e-3 0.08077 4e-3 0.01912 2e-3 0.03476 5e-3 0.04696 0.01 0.01219 5e-3 0.02093 0.0112 0.0262 0.018 0.0036 7e-3 0.0053 0.0146 0.0054 0.0233 1.21e-4 0.0139-0.0032 0.0295-0.01001 0.047-0.0085 0.0174-0.01702 0.0392-0.02547 0.0653-0.01019 0.0262-0.0186 0.0575-0.02522 0.0939-0.0084 0.0348-0.01236 0.0756-0.01195 0.12251 5.6e-4 0.0643 0.01145 0.11885 0.03268 0.16378 0.02121 0.0432 0.05451 0.0785 0.09989 0.1059 0.04364 0.0274 0.10111 0.0477 0.17241 0.061 0.06954 0.0115 0.15466 0.0169 0.25536 0.016l0.2552-2e-3 -0.0072-0.57606zm1.8144-3.1981c-0.12326 1e-3 0.2059 0.019 0.24793 0.0603 0.04028 0.0395 0.06089 0.11319 0.06182 0.22082 9.06e-4 0.10417-0.01844 0.17639-0.05802 0.21666-0.03958 0.0403-0.11927 0.0609-0.23905 0.062-0.12326 1e-3 -0.20503-0.0182-0.2453-0.0578-0.04203-0.0413-0.06351-0.11577-0.06445-0.22341-9.07e-4 -0.10416 0.01843-0.17638 0.05802-0.21665 0.03958-0.0403 0.35884-0.063 0.23905-0.062z" stroke="#000" stroke-linecap="square" stroke-miterlimit="0" stroke-width=".15"/>
	<path d="m52.527 48.493 7.3113-0.04932 0.0037 2.134-7.2925-0.018143z"/>
	<path d="m99.091 161.49 0.98002-0.0363 0.0363 1.9963 1.9964 0.0363v-6.9328l-1.9238-0.0363 0.0363 1.706-1.0889 0.1089v-2.2141l-1.3793-0.0726 0.72594-0.79854h5.7713v1.1615h-1.2341v6.9691h1.2341l-0.0363 1.4156h-5.1179z"/>
	<path d="m21.856 48.394 7.5713-0.02717v2.0654l-7.5761-0.0019z"/>
	<path d="m136.93 155.12 5.308-0.0275-9e-3 0.93491-0.81669 0.0181 0.0136 1.2568-0.8666-5e-3v-1.2704l-2.2323 9e-3 0.0363 2.9305-0.7542 0.61927 0.0694 2.1199 0.79359 0.58204 0.0181 0.99817 1.9964 0.0181v-0.88928l1.0205-8e-3 0.0563 2.2355-4.961-0.015-0.0394-1.3222 0.96026-0.0213-0.14736-7.245-0.88182 4e-3z"/>
	<path d="m109.17 191.01 1.5034 6e-3 -0.0491-26.292-1.3062-0.0124-0.0191-1.3853 1.3025 3e-3 -0.0205-6.9932-1.2732 6e-3 0.016-1.136 1.2483 2.7e-4 -0.13205-17.02 1.0318 0.0217-0.0103 4.1528 4.0798-3.9232-0.12747-9.102-3.9603-0.0296-6e-3 3.3361-1.0262 0.0385-0.0398-3.3039-1.4913-0.0119 6e-3 -1.0746 6.4771 0.026-0.0476-1.3441 1.0864 0.0163 0.12206 11.855-5.0567 4.9002 0.22323 47.309 1.5637-0.0264-2e-3 1.0516-4.0736-0.0239z"/>
	<path d="m20.148 232.87 7.9491 0.0241 0.05212 2.3208-7.9569 0.0448z"/>
	<path d="m51.421 233.05 7.3186 0.019 0.03159 2.3157-7.3604-0.0385z"/>
	<path d="m93.322 232.96 0.0096 3.0381h-5.6355l-0.15132-148.14 5.3934-0.0058 0.01865 2.9102-2.692 0.01273-0.046 10.228 1.5639-2e-3 0.14756 13.638-1.461 0.0272 0.08425 13.652 11.974-0.0303 5.8e-4 1.3315-11.949 0.0858-0.01964 25.491 2.2078-4e-3 -0.0041 1.3009-2.2167 0.0262 0.02676 34.578 12.992-0.0843 4e-3 1.1635-13.01 0.13976v12.437l1.7963-0.0153 0.10889 14.407-1.8282-0.0604 0.14078 13.871m33.602 2.7704-7.9888 0.024-7e-3 -2.9338 3.2939-2e-3 -0.0262-40.857-1.4125 0.0224-0.01-0.94624 3.8305-1e-3 0.0103 0.91965-1.3736 0.0102 5e-3 40.832 3.6572 0.0247m26.096-0.24093 0.0137-12.293-1.6683 0.0258-0.11152-13.222 1.4361-0.0369 0.14113-15.082-12.954 0.0309-4e-3 -1.0603 12.932-0.0657-0.0628-12.96-0.0972-21.76-2.3776-0.0726-0.0541-1.1045 2.6175-0.10478-0.16008-25.572-12.569 8e-3 -0.0102-1.173 12.643-0.077-0.0711-13.843-1.6183-0.0253-0.0513-13.452 1.6953-0.0259-9e-3 -9.7709-3.196-0.03007-6e-3 -3.0698 6.4736-1.04e-4 -0.0589 147.59-5.8179 5e-3 -7e-3 -2.8297m-38.551 3.3402-8.4188 0.0307-0.0177-2.963 8.3951 0.0346"/>
	<path d="m39.2 113.92-0.01815-26.847-5.8425 0.0333-0.0081-1.5878 5.9528-9e-3 0.05019-34.95-2.4907-0.0044 0.0054-2.0262 8.8031-0.01305-1e-3 2.08-4.7093-0.0363 0.03626 34.945 6.3799 0.04193 0.0035 1.575-6.4332-0.01203-0.20238 26.894m7.4288 27.419 21.816 0.0721 0.13456-25.386-10.475-0.077-0.03387-1.9983 10.484 0.0328 0.03757-26.921-15.398 0.04729 0.02222-1.7544 15.407 0.03453 0.05878-34.867-3.777-0.06629-0.01626-2.0949 5.8063 0.05556-0.56343 187.02-6.0592-0.15825-0.0036-2.3341 4.1483 0.0625 0.01607-35.008h-15.679v-2.013l15.933 0.17468-0.18506-13.329 0.0917-12.353-10.656 3.1e-4 -8.47e-4 -2.08 10.819 0.20216-0.1412-25.248-21.816-0.18735m-7.6453 27.153v25.6l5.6308 0.19629 3e-3 1.7585-5.6338 0.0532-0.16546 34.978 3.6609 0.0247-0.05198 2.3324-8.8381-0.0483-0.02701-2.2885 3.5701 5e-3 0.0759-35.228-6.1936-0.0958-0.01951-1.6713 6.2288 0.0841 0.13479-25.716m-6.5294-27.102-20.741-0.12806 0.03005 25.078 9.506 0.0876v1.8185l-9.6221 0.0498-0.13794 25.492 14.56 0.172v1.908l-14.543-0.11049-0.07237 35.053 3.0085 0.11449 0.02435 2.2924-5.2535-0.0155 0.79547-186.63 5.5171-0.01556-0.03629 1.9891-3.5604-0.01798-0.37982 35.018h15.46v1.674l-15.354 0.07395-0.03002 26.732h9.944v1.92h-9.9532l0.05733 25.331 20.694-0.0726"/>
	<path d="m28.063 115.78-0.02207-1.856 25.279-5e-5 -0.01815 1.9942z"/>
	<path d="m27.84 170.24 0.13762-1.8036 24.771-0.22336-0.1646 2.1856z"/>
	<path d="m31.637 168.87 0.04265-53.253 1.656-0.0687 0.0056 53.313z"/>
	<path d="m46.832 168.51 0.01056-52.887 1.5198 0.0199-0.0026 53.013z"/>
	<path d="m100.4 87.984 0.0182 2.7586 8.2809-0.02126-0.0233-2.8825z"/>
	<path d="m116.28 87.767 0.0148 2.9252 8.4572-0.0022 0.0123-2.9049z"/>
	<path d="m131.86 87.788 0.0101 2.9725 8.3746 0.0039-0.023-2.9842z"/>
	<path d="m132.23 232.75 0.0301 2.916 6.3652-0.10266-0.0301-2.916z"/>
	<path d="m129.56 163.36 1.3462-0.015 0.0493 1.3544-1.3501-9e-3 0.0356 26.493 1.1304-1e-3 6.5e-4 1.1875-2.686 0.0176-0.0151-1.1902 0.65082-0.0141-0.0783-28.676 0.74168-0.0206"/>
	<path d="m129.47 157.59-0.92186-0.0485-0.0844-14.473-4.4426-4.7065-0.11238-11.324 1.1328 0.019 2e-3 1.232 5.388 0.0573 4e-3 1.1471-0.98178-8e-3 -0.0315 3.2338-0.82246-7e-3 0.0427-3.2018h-3.6045l0.0686 8.5976 3.358 3.6245 3e-3 -3.2701 0.89842-0.0101 0.10314 16.665 1.4528-0.0186-0.0347 0.9281-1.3984 0.0153"/>
	<path d="m115.38 109.1 0.15625 11.788 0.87311 0.0385-0.0164-1.0811 1.2683 6e-3 -0.0242-0.74699-1.2684-7e-3 -0.0625-7.4399 7.6911-0.0628 0.0131 7.4714-1.8555-0.0195-2e-3 0.70758 1.8588-7e-3 8e-3 1.0782 0.77455 0.0118-0.0102-11.913-0.81305 6e-3 6.4e-4 1.9264-3.3912 0.011-0.0156-20.368-0.97656 0.03125 0.10937 20.32-3.3974 0.0172-0.0242-1.7767z"/>
	<path d="m115.35 104.31-9e-3 -2.0354 1.0618 2e-3 0.0116 2.0497"/>
	<path d="m123.87 104.05-0.0246-2.5666 1.0618 2e-3 0.0272 2.5809"/>
	<path d="m115.62 92.661-9e-3 -2.0354 1.0618 2e-3 0.0116 2.0497"/>
	<path d="m123.91 92.68-9e-3 -2.0354 1.0618 2e-3 0.0116 2.0497"/>
	<path aria-label="16 ft." d="m79.648 34.948c0.03299 1.18e-4 0.06075 0.0028 0.0833 0.0081s0.04076 0.01229 0.05462 0.02103c0.01386 0.0087 0.02423 0.01919 0.03114 0.03136 0.0052 0.01044 0.0077 0.02173 0.0077 0.03388l-0.0063 1.7604c-4.3e-5 0.01215-0.0027 0.02343-0.0079 0.03382-0.0069 0.01039-0.01743 0.02078-0.03136 0.03114-0.01392 0.0086-0.03218 0.0155-0.05476 0.02063-0.02259 0.0051-0.05037 0.0076-0.08336 0.0075-0.03125-1.12e-4 -0.05815-0.0028-0.0807-0.0081s-0.04076-0.01143-0.05463-0.01843c-0.0156-0.0088-0.02684-0.01833-0.03375-0.02877-0.0087-0.01218-0.01293-0.02522-0.01288-0.03911l0.0025-0.70312-2.5625-0.0092 0.38569 0.65242c0.01724 0.03305 0.02757 0.06 0.03096 0.08084 0.0034 0.0191-1.31e-4 0.03472-0.01059 0.04683-0.01219 0.01211-0.03132 0.02072-0.05738 0.02584-0.02605 0.0034-0.05905 5e-3 -0.09898 0.0048-0.02951-1.06e-4 -0.05469-0.0011-0.07551-0.0029-0.02082-0.0036-0.03816-0.0079-0.05203-0.01321-0.01387-0.0052-0.026-0.01223-0.03638-0.02096-0.01038-0.01046-0.02076-0.02351-0.03111-0.03917l-0.49462-0.77782c-0.0052-0.0069-0.0094-0.01566-0.01293-0.02609-0.0035-0.01043-0.0068-0.02346-0.01028-0.0391-0.0034-0.01564-0.0051-0.03388-5e-3 -0.05471-0.0016-0.02084-0.0024-0.04689-0.0023-0.07814 1.49e-4 -0.04167 2e-3 -0.07638 0.0056-0.10415 0.0036-0.02777 0.0089-0.04945 0.01586-0.06504 0.0053-0.01561 0.0131-0.02599 0.02355-0.03117 0.0087-0.0052 0.01826-0.0077 0.02868-0.0077l2.9609 0.01059 0.0022-0.60937c5e-5 -0.01389 0.0044-0.02689 0.01316-0.03901 0.0069-0.01212 0.01831-0.02163 0.03395-0.02853 0.01392-0.0087 0.03217-0.01465 0.05476-0.01803 0.02259-0.0051 0.04951-0.0076 0.08076-0.0075zm-0.90411-2.7845c0.14757 5.28e-4 0.29072 0.02361 0.42944 0.06925 0.13699 0.04563 0.25827 0.11551 0.36384 0.20964 0.10383 0.09412 0.18761 0.21335 0.25133 0.35767 0.06198 0.14432 0.09262 0.31457 0.09192 0.51075-5.03e-4 0.14062-0.01831 0.26469-0.05341 0.37221-0.03511 0.10751-0.08492 0.20109-0.14944 0.28072-0.06453 0.07963-0.14376 0.14619-0.2377 0.19967-0.09394 0.05175-0.20086 0.09389-0.32077 0.12646-0.1199 0.03082-0.25106 0.05292-0.39347 0.0663s-0.29521 0.01977-0.4584 0.01919c-0.1441-5.15e-4 -0.2899-0.0088-0.43741-0.02501-0.14751-0.01616-0.28977-0.04444-0.42678-0.08486s-0.26529-0.0947-0.38484-0.16284c-0.12128-0.06988-0.226-0.15619-0.31418-0.25894-0.08991-0.10449-0.16064-0.22888-0.21221-0.37316-0.05157-0.14428-0.07701-0.31191-0.07633-0.50288 2.3e-4 -0.06423 0.0048-0.12932 0.01372-0.19526 0.0071-0.06594 0.01781-0.12667 0.0319-0.18218 0.01235-0.05551 0.02641-0.10234 0.04217-0.14047 0.01577-0.03813 0.02888-0.06327 0.03933-0.07538 0.0087-0.01212 0.01917-0.02076 0.03134-0.02593 0.01044-0.0069 0.02261-0.01208 0.03652-0.0155 0.01216-0.0035 0.02693-6e-3 0.0443-0.0076 0.01564-0.0016 0.0356-0.0025 0.0599-0.0024 0.03125 1.12e-4 0.05816 0.0011 0.08072 0.0029 0.02257 8.1e-5 0.04079 0.0036 0.05465 0.01062 0.01387 0.0052 0.02425 0.0131 0.03117 0.02355 0.0069 0.0087 0.01035 0.02087 0.01029 0.0365-6.8e-5 0.0191-0.0063 0.04512-0.01851 0.07806-0.01227 0.03295-0.02543 0.07283-0.03949 0.11965-0.0158 0.04681-0.02989 0.10406-0.04228 0.17172-0.01239 0.06593-0.01874 0.14316-0.01906 0.2317-5.77e-4 0.16146 0.03192 0.30046 0.09747 0.41702 0.06555 0.11656 0.15376 0.21236 0.2646 0.28741 0.11085 0.07332 0.23999 0.12846 0.38743 0.16545 0.14571 0.03524 0.29841 0.05576 0.45812 0.06154-0.02588-0.04523-0.05174-0.09568-0.07759-0.15132-0.02584-0.05738-0.04905-0.1191-0.06965-0.18514-0.02059-0.06778-0.03683-0.13902-0.04872-0.21372-0.01362-0.0747-0.02028-0.15459-0.01997-0.23966 6.52e-4 -0.18229 0.02637-0.33584 0.07717-0.46066 0.04906-0.12482 0.118-0.22527 0.20681-0.30134 0.08708-0.07782 0.19058-0.133 0.31049-0.16556 0.11817-0.03257 0.2467-0.0486 0.38559-0.0481zm0.04005 0.45327c-0.10069-3.61e-4 -0.19188 0.0097-0.27355 0.03027-0.0834 0.01879-0.15383 0.05153-0.21129 0.09821-0.05746 0.04666-0.10196 0.10901-0.13348 0.18702-0.03153 0.07802-0.04749 0.17431-0.0479 0.28889-2.3e-4 0.06423 0.0056 0.12849 0.01754 0.19277 0.01019 0.06427 0.02559 0.12682 0.0462 0.18767 0.01888 0.0591 0.04211 0.11647 0.06969 0.17213 0.02585 0.05391 0.05432 0.10349 0.08541 0.14874 0.22396 8.02e-4 0.4115-0.01242 0.56264-0.03966 0.15115-0.02897 0.27282-0.0702 0.36503-0.1237 0.09048-0.05523 0.15582-0.12357 0.19605-0.20503 0.03848-0.08146 0.05792-0.17688 0.05831-0.28625 3.98e-4 -0.11111-0.02009-0.20754-0.06146-0.28928-0.04138-0.08175-0.09668-0.14965-0.16594-0.20372-0.07099-0.05408-0.14984-0.09342-0.23656-0.11804-0.08845-0.02636-0.17868-0.0397-0.27069-0.04003zm-1.3576-4.3267-9.59e-4 -0.31901-0.55729-2e-3c-0.01215-4.3e-5 -0.02343-0.0036-0.03381-0.01054-0.0104-0.0069-0.01903-0.0183-0.02592-0.03394-0.0086-0.01566-0.01463-0.03738-0.018-0.06517-0.0034-0.02779-5e-3 -0.06339-0.0048-0.10679 1.49e-4 -0.04167 2e-3 -0.07638 0.0056-0.10415 0.0036-0.02777 0.0097-0.04945 0.01846-0.06503 7e-3 -0.01561 0.01573-0.02685 0.02616-0.03376 0.01045-0.0069 0.02174-0.01034 0.03389-0.0103l0.55729 2e-3 0.0021-0.59895c4.9e-5 -0.01389 0.0036-0.02603 0.01055-0.03642 0.0052-0.01213 0.0157-0.02164 0.03135-0.02854 0.01391-0.0069 0.03216-0.01205 0.05475-0.01543 0.02259-0.0051 0.05037-0.0076 0.08336-0.0075 0.0625 2.24e-4 0.10761 0.0082 0.13533 0.02393s0.04154 0.03661 0.04145 0.06265l-0.0022 0.60156 1.3073 0.0047c0.16146 5.78e-4 0.28394-0.02242 0.36744-0.069 0.08177-0.04658 0.12287-0.13237 0.12332-0.25737 1.36e-4 -0.03819-0.0032-0.07293-0.01005-0.1042-0.0086-0.03302-0.01714-0.06169-0.02573-0.08603-0.0086-0.02434-0.01633-0.0452-0.02322-0.06258-0.0086-0.01913-0.0129-0.03477-0.01285-0.04692 3.7e-5 -0.01042 0.0027-0.01909 0.0079-0.02601 0.0035-0.0069 0.01132-0.01212 0.0235-0.01555 0.01217-0.0052 0.02868-0.0094 0.04953-0.01284 0.02084-0.0034 0.0469-5e-3 0.07815-0.0049 0.05035 1.81e-4 0.09026 0.0046 0.11974 0.01345 0.02949 7e-3 0.05115 0.01754 0.06499 0.03148s0.02679 0.03395 0.03885 0.06004c0.01206 0.02608 0.0215 0.05737 0.02831 0.09385 0.0086 0.03475 0.01536 0.07296 0.02042 0.11466 0.0051 0.03995 0.0075 0.07903 0.0074 0.11722-4.41e-4 0.12326-0.01644 0.22824-0.048 0.31493-0.0333 0.08669-0.08217 0.15769-0.1466 0.21302-0.06617 0.05531-0.14878 0.09582-0.24783 0.12151-0.10078 0.02395-0.21888 0.03568-0.35429 0.03519l-1.3698-0.0049 0.0011 0.31835zm0.35792 0.31899 2e-3 0.6367 2.0547 0.0074c0.01389 5e-5 0.02603 0.0036 0.03642 0.01055 0.0087 0.0069 0.01642 0.01916 0.02331 0.03654 0.0068 0.01566 0.01203 0.03737 0.0154 0.06516 0.0034 0.02779 5e-3 0.06252 0.0048 0.10418-1.49e-4 0.04167-2e-3 0.07638-0.0056 0.10415-0.0036 0.02777-0.0089 0.05032-0.01587 0.06765-7e-3 0.01561-0.01486 0.02686-0.02356 0.03377-0.01045 0.0069-0.02261 0.01034-0.0365 0.01029l-2.0547-0.0074-0.0012 0.33073c-1e-4 0.02778-0.01406 0.04856-0.04189 0.06235s-0.07299 0.02057-0.13549 0.02035c-0.03299-1.18e-4 -0.06075-0.0019-0.08331-0.0055s-0.04077-0.0088-0.05463-0.01583c-0.0156-7e-3 -0.02598-0.01572-0.03116-0.02615-0.0069-0.01044-0.01034-0.02261-0.01029-0.0365l0.0012-0.33073-0.24218-8.66e-4c-0.16319-5.84e-4 -0.3029-0.01584-0.41911-0.04577-0.11794-0.03167-0.21413-0.07802-0.28857-0.13905-0.07443-0.06277-0.12884-0.14109-0.16322-0.23496-0.03612-0.09562-0.05395-0.20766-0.05349-0.33613 2.29e-4 -0.06423 0.0074-0.12671 0.0215-0.18742 0.01237-0.06073 0.02468-0.10408 0.03693-0.13008 0.01051-0.026 0.021-0.04419 0.03144-0.05458 0.01046-0.01038 0.02438-0.01814 0.04175-0.02329 0.01566-0.0068 0.03563-0.01116 0.05995-0.01281 0.02258-0.0034 0.05036-5e-3 0.08335-0.0049 0.03299 1.18e-4 0.05989 0.0019 0.08071 0.0055 0.01909 0.0018 0.0347 0.0053 0.04683 0.01059 0.01213 0.0052 0.02079 0.01136 0.02597 0.01832 0.0035 0.0069 0.0051 0.01478 0.0051 0.02346-4.9e-5 0.01389-0.0036 0.0295-0.01059 0.04683-0.0088 0.01733-0.0175 0.039-0.02627 0.06501-0.01051 0.026-0.0193 0.05722-0.02637 0.09366-0.0088 0.03469-0.01329 0.07547-0.01346 0.12235-2.3e-4 0.06423 0.01 0.11896 0.03066 0.16417 0.02067 0.04347 0.05354 0.07918 0.09858 0.10712 0.0433 0.02794 0.10052 0.04897 0.17165 0.06311 0.0694 0.0124 0.15445 0.01878 0.25514 0.01914l0.25521 9.13e-4 -2e-3 -0.63802zm1.721-2.9802c-0.06801-0.1028 0.20565 0.02157 0.24717 0.06339 0.03979 0.04007 0.05949 0.11393 0.05911 0.22157-3.73e-4 0.10417-0.0206 0.17614-0.06067 0.21593-0.04007 0.03979-0.12001 0.05947-0.2398 0.05904-0.12326-4.41e-4 -0.20479-0.0207-0.24458-0.06077-0.04152-0.04182-0.06208-0.11654-0.0617-0.22418 3.73e-4 -0.10416 0.0206-0.17614 0.06067-0.21593 0.04007-0.03979 0.30588 0.04087 0.2398-0.05903z" stroke="#000" stroke-linecap="square" stroke-miterlimit="0" stroke-width=".15"/>
	<path aria-label="BEDROOM" d="m94.145 142.27q0 0.13913-0.06845 0.24567-0.06845 0.10655-0.18415 0.17548-0.13689 0.0827-0.30149 0.11783-0.16297 0.0351-0.41556 0.0351h-0.86046v-1.8664h0.71868q0.26564 0 0.39764 0.0151 0.132 0.015 0.2526 0.0627 0.13363 0.0538 0.19393 0.13913 0.0603 0.084 0.0603 0.2018 0 0.13286-0.088 0.22688-0.088 0.0928-0.23467 0.14915v0.01q0.24608 0.0388 0.38786 0.1667 0.14178 0.12661 0.14178 0.32089zm-0.54268-0.84106q0-0.0677-0.02934-0.11406-0.02934-0.0464-0.09451-0.0753-0.07659-0.0339-0.18578-0.0414-0.10919-9e-3 -0.27052-9e-3h-0.3846v0.53898h0.41719q0.15156 0 0.24119-0.0113 0.08963-0.0125 0.16622-0.0502 0.07659-0.0376 0.10756-0.0965 0.03259-0.0602 0.03259-0.14164zm0.20697 0.85109q0-0.11281-0.044-0.17925-0.044-0.0664-0.15971-0.1128-0.07822-0.0313-0.19067-0.0401-0.11082-0.01-0.27052-0.01h-0.50682v0.69441h0.42697q0.21186 0 0.34712-0.0163 0.13526-0.0175 0.22163-0.0627 0.09126-0.0488 0.13363-0.11156 0.04237-0.0627 0.04237-0.16169zm2.3923 0.56405h-1.5987v-1.8664h1.5987v0.22061h-1.276v0.5114h1.276v0.22061h-1.276v0.69315h1.276zm2.5618-0.93131q0 0.25445-0.14504 0.46126-0.14341 0.20682-0.38297 0.32089-0.16622 0.0789-0.37156 0.11406-0.20371 0.0351-0.53779 0.0351h-0.61275v-1.8664h0.60623q0.35527 0 0.56386 0.0401 0.21022 0.0388 0.35526 0.10779 0.24771 0.11908 0.38623 0.31713 0.13852 0.19804 0.13852 0.47004zm-0.33734-4e-3q0-0.21935-0.09941-0.36976-0.09941-0.15042-0.2966-0.23691-0.14341-0.0627-0.30475-0.0865-0.16134-0.0251-0.38623-0.0251h-0.30312v1.4402h0.30312q0.23304 0 0.40578-0.0263 0.17437-0.0263 0.31941-0.0978 0.18089-0.089 0.27052-0.23439 0.09126-0.1454 0.09126-0.3635zm2.8666 0.93507h-0.41882l-0.81157-0.74204h-0.45468v0.74204h-0.32267v-1.8664h0.67957q0.22 0 0.36667 0.0225 0.14667 0.0213 0.26401 0.0777 0.132 0.0639 0.20533 0.16169 0.075 0.0965 0.075 0.24568 0 0.20181-0.132 0.33843-0.132 0.13538-0.36341 0.20432zm-0.75453-1.3412q0-0.0803-0.0375-0.14164-0.0359-0.0627-0.1206-0.10529-0.0701-0.0363-0.16622-0.0502-0.0962-0.015-0.22652-0.015h-0.37971v0.70444h0.32593q0.15319 0 0.26726-0.0201 0.11408-0.0213 0.19393-0.0777 0.0733-0.0526 0.10756-0.12034 0.0358-0.0689 0.0358-0.17422zm2.8763-0.31086q0.1483 0.12535 0.22652 0.30709 0.0798 0.18176 0.0798 0.41239t-0.0815 0.41363q-0.0798 0.18176-0.22489 0.30334-0.14993 0.1266-0.35527 0.19053-0.2037 0.0639-0.46608 0.0639-0.25585 0-0.46608-0.0652-0.20859-0.0652-0.35526-0.18928-0.14667-0.12409-0.22653-0.30458-0.0782-0.1805-0.0782-0.41238 0-0.22813 0.0782-0.40863 0.0782-0.18175 0.22816-0.31085 0.14341-0.12284 0.35526-0.18802 0.21349-0.0652 0.46445-0.0652 0.26075 0 0.46771 0.0664 0.2086 0.0652 0.35364 0.18676zm-0.0293 0.71948q0-0.3635-0.21185-0.56029-0.21186-0.19804-0.57853-0.19804-0.36993 0-0.58179 0.19804-0.21022 0.19679-0.21022 0.56029 0 0.36726 0.21511 0.5628 0.21511 0.19428 0.5769 0.19428 0.36178 0 0.57527-0.19428 0.21511-0.19554 0.21511-0.5628zm2.6563-0.71948q0.1483 0.12535 0.22652 0.30709 0.0799 0.18176 0.0799 0.41239t-0.0815 0.41363q-0.0799 0.18176-0.22489 0.30334-0.14993 0.1266-0.35527 0.19053-0.2037 0.0639-0.46608 0.0639-0.25585 0-0.46608-0.0652-0.2086-0.0652-0.35526-0.18928-0.14667-0.12409-0.22653-0.30458-0.0782-0.1805-0.0782-0.41238 0-0.22813 0.0782-0.40863 0.0782-0.18175 0.22815-0.31085 0.14341-0.12284 0.35527-0.18802 0.21348-0.0652 0.46445-0.0652 0.26075 0 0.46771 0.0664 0.2086 0.0652 0.35364 0.18676zm-0.0293 0.71948q0-0.3635-0.21185-0.56029-0.21186-0.19804-0.57853-0.19804-0.36993 0-0.58179 0.19804-0.21023 0.19679-0.21023 0.56029 0 0.36726 0.21512 0.5628 0.21511 0.19428 0.5769 0.19428 0.36178 0 0.57527-0.19428 0.21511-0.19554 0.21511-0.5628zm3.0083 0.93256h-0.32267v-1.6082l-0.67468 1.0942h-0.19229l-0.66979-1.0942v1.6082h-0.30149v-1.8664h0.44001l0.64697 1.0391 0.62579-1.0391h0.44815z" stroke="#000" stroke-linecap="square" stroke-miterlimit="0" stroke-width=".13172"/>
	<path aria-label="BEDROOM" d="m94.06 176.82q0 0.13913-0.06845 0.24567t-0.18415 0.17549q-0.13689 0.0827-0.30149 0.11781-0.16297 0.0351-0.41556 0.0351h-0.86046v-1.8664h0.71868q0.26563 0 0.39764 0.015 0.132 0.0151 0.2526 0.0627 0.13363 0.0539 0.19393 0.13913 0.0603 0.084 0.0603 0.20181 0 0.13287-0.088 0.22687-0.088 0.0928-0.23467 0.14916v0.01q0.24608 0.0388 0.38786 0.16671 0.14178 0.12659 0.14178 0.32088zm-0.54268-0.84106q0-0.0677-0.02934-0.11407-0.02934-0.0464-0.09451-0.0752-0.07659-0.0339-0.18578-0.0414-0.10919-9e-3 -0.27052-9e-3h-0.3846v0.53898h0.41719q0.15156 0 0.24119-0.0113 0.08963-0.0125 0.16622-0.0502 0.07659-0.0376 0.10756-0.0965 0.03259-0.0602 0.03259-0.14163zm0.20697 0.85108q0-0.11281-0.044-0.17924-0.044-0.0664-0.1597-0.11281-0.07822-0.0313-0.19067-0.0401-0.11082-0.01-0.27052-0.01h-0.50682v0.69441h0.42697q0.21186 0 0.34712-0.0163 0.13526-0.0175 0.22163-0.0627 0.09126-0.0488 0.13363-0.11155 0.04237-0.0627 0.04237-0.1617zm2.3923 0.56405h-1.5987v-1.8664h1.5987v0.2206h-1.276v0.5114h1.276v0.22061h-1.276v0.69316h1.276zm2.5618-0.9313q0 0.25444-0.14504 0.46126-0.14341 0.20682-0.38297 0.32088-0.16622 0.0789-0.37156 0.11406-0.20371 0.0351-0.53779 0.0351h-0.61275v-1.8664h0.60623q0.35527 0 0.56386 0.0401 0.21022 0.0388 0.35526 0.1078 0.24771 0.11907 0.38623 0.31712t0.13852 0.47004zm-0.33734-4e-3q0-0.21935-0.09941-0.36977-0.09941-0.15041-0.2966-0.2369-0.14341-0.0627-0.30475-0.0865-0.16134-0.0251-0.38623-0.0251h-0.30312v1.4402h0.30312q0.23304 0 0.40578-0.0263 0.17437-0.0263 0.31941-0.0978 0.18089-0.089 0.27052-0.2344 0.09126-0.14539 0.09126-0.36349zm2.8666 0.93507h-0.41882l-0.81157-0.74204h-0.45468v0.74204h-0.32267v-1.8664h0.67957q0.22 0 0.36667 0.0225 0.14667 0.0213 0.26401 0.0777 0.132 0.0639 0.20533 0.1617 0.075 0.0965 0.075 0.24568 0 0.2018-0.132 0.33842-0.132 0.13538-0.36341 0.20432zm-0.75453-1.3412q0-0.0803-0.0375-0.14164-0.0358-0.0627-0.12059-0.10529-0.0701-0.0363-0.16623-0.0502-0.0962-0.0151-0.22652-0.0151h-0.37971v0.70444h0.32593q0.15319 0 0.26726-0.0201 0.11408-0.0213 0.19393-0.0777 0.0733-0.0526 0.10756-0.12033 0.0358-0.0689 0.0358-0.17423zm2.8763-0.31086q0.1483 0.12536 0.22652 0.3071 0.0798 0.18175 0.0798 0.41239 0 0.23063-0.0815 0.41363-0.0799 0.18175-0.22489 0.30333-0.14993 0.12661-0.35527 0.19053-0.2037 0.0639-0.46608 0.0639-0.25585 0-0.46608-0.0652-0.20859-0.0652-0.35526-0.18927-0.14667-0.12409-0.22652-0.30459-0.0782-0.1805-0.0782-0.41238 0-0.22813 0.0782-0.40862 0.0782-0.18175 0.22815-0.31086 0.14341-0.12283 0.35526-0.18801 0.21349-0.0652 0.46445-0.0652 0.26075 0 0.46772 0.0664 0.20859 0.0652 0.35363 0.18675zm-0.0293 0.71949q0-0.36351-0.21185-0.56029-0.21186-0.19805-0.57853-0.19805-0.36993 0-0.58179 0.19805-0.21022 0.19678-0.21022 0.56029 0 0.36725 0.21511 0.56279 0.21512 0.19428 0.5769 0.19428t0.57527-0.19428q0.21511-0.19554 0.21511-0.56279zm2.6563-0.71949q0.1483 0.12536 0.22652 0.3071 0.0798 0.18175 0.0798 0.41239 0 0.23063-0.0815 0.41363-0.0798 0.18175-0.22489 0.30333-0.14993 0.12661-0.35526 0.19053-0.20371 0.0639-0.46609 0.0639-0.25585 0-0.46608-0.0652-0.20859-0.0652-0.35526-0.18927-0.14667-0.12409-0.22652-0.30459-0.0782-0.1805-0.0782-0.41238 0-0.22813 0.0782-0.40862 0.0782-0.18175 0.22815-0.31086 0.14341-0.12283 0.35526-0.18801 0.21349-0.0652 0.46445-0.0652 0.26075 0 0.46772 0.0664 0.20859 0.0652 0.35363 0.18675zm-0.0293 0.71949q0-0.36351-0.21185-0.56029-0.21186-0.19805-0.57853-0.19805-0.36993 0-0.58179 0.19805-0.21022 0.19678-0.21022 0.56029 0 0.36725 0.21511 0.56279 0.21512 0.19428 0.5769 0.19428t0.57527-0.19428q0.21511-0.19554 0.21511-0.56279zm3.0084 0.93256h-0.32268v-1.6082l-0.67467 1.0943h-0.1923l-0.66979-1.0943v1.6082h-0.30149v-1.8664h0.44001l0.64697 1.0391 0.62579-1.0391h0.44816z" stroke="#000" stroke-linecap="square" stroke-miterlimit="0" stroke-width=".13172"/>
	<path aria-label="SITTING ROOM" d="m95.184 213.11q0 0.10905-0.06682 0.21559-0.06519 0.10655-0.18415 0.1805-0.13037 0.0802-0.30474 0.12534-0.17274 0.0452-0.41719 0.0452-0.26237 0-0.4726-0.0376-0.2086-0.0376-0.42534-0.11155v-0.31086h0.02282q0.18415 0.11783 0.42534 0.18175 0.24119 0.0639 0.45304 0.0639 0.29986 0 0.46608-0.0865 0.16785-0.0865 0.16785-0.23063 0-0.12409-0.07985-0.183-0.07822-0.0589-0.23956-0.0915-0.12222-0.0251-0.26563-0.0414-0.14178-0.0163-0.30149-0.0414-0.32267-0.0526-0.47912-0.17924-0.15482-0.12785-0.15482-0.33217 0-0.23439 0.25748-0.38355 0.25749-0.15042 0.65349-0.15042 0.25586 0 0.46934 0.0376 0.21349 0.0376 0.37808 0.0927v0.29331h-0.02282q-0.13852-0.0902-0.36504-0.14916-0.22489-0.0602-0.46119-0.0602-0.25912 0-0.41719 0.0827-0.15645 0.0827-0.15645 0.21308 0 0.11657 0.07822 0.183 0.07822 0.0664 0.27541 0.10153 0.1043 0.0175 0.2966 0.0426t0.32593 0.0514q0.27052 0.0552 0.40741 0.16671 0.13689 0.11155 0.13689 0.31211zm1.3738 0.53272h-0.95824v-0.19053h0.31778v-1.4853h-0.31778v-0.19053h0.95824v0.19053h-0.31778v1.4853h0.31778zm2.2799-1.6458h-0.86698v1.6458h-0.32267v-1.6458h-0.86698v-0.22062h2.0566zm1.9426 0h-0.86698v1.6458h-0.32267v-1.6458h-0.86698v-0.22062h2.0566zm1.1815 1.6458h-0.95824v-0.19053h0.31778v-1.4853h-0.31778v-0.19053h0.95824v0.19053h-0.31778v1.4853h0.31778zm2.4005 0h-0.39926l-1.1505-1.6696v1.6696h-0.30149v-1.8664h0.50031l1.0495 1.5242v-1.5242h0.30149zm2.6694-0.13789q-0.19882 0.0702-0.43512 0.12285-0.23467 0.0514-0.45468 0.0514-0.28356 0-0.51986-0.0602t-0.40252-0.1805q-0.16786-0.12158-0.25912-0.30333-0.0913-0.18301-0.0913-0.42742 0-0.44749 0.33897-0.7057 0.34059-0.25946 0.93379-0.25946 0.20697 0 0.42208 0.0388 0.21674 0.0376 0.46608 0.12911v0.29456h-0.0293q-0.0505-0.0301-0.14667-0.0789-0.0961-0.0489-0.18904-0.0815-0.11245-0.0388-0.25585-0.0639-0.14178-0.0263-0.32267-0.0263-0.40742 0-0.64535 0.20181-0.2363 0.20054-0.2363 0.54399 0 0.36225 0.24771 0.56405 0.24771 0.20055 0.67468 0.20055 0.15644 0 0.31126-0.0238 0.15645-0.0238 0.27378-0.0614v-0.45751h-0.65023v-0.2181h0.96965zm3.7449 0.13789h-0.41882l-0.81157-0.74204h-0.45467v0.74204h-0.32267v-1.8664h0.67956q0.22001 0 0.36668 0.0225 0.14667 0.0213 0.264 0.0777 0.132 0.0639 0.20534 0.16169 0.075 0.0965 0.075 0.24568 0 0.2018-0.13201 0.33843-0.132 0.13536-0.36341 0.20431zm-0.75453-1.3412q0-0.0802-0.0375-0.14164-0.0358-0.0627-0.12059-0.10529-0.0701-0.0363-0.16623-0.0502-0.0961-0.015-0.22652-0.015h-0.37971v0.70443h0.32593q0.15319 0 0.26727-0.0201 0.11407-0.0213 0.19392-0.0777 0.0733-0.0526 0.10756-0.12032 0.0358-0.0689 0.0358-0.17423zm2.8764-0.31085q0.14829 0.12534 0.22652 0.30709 0.0799 0.18175 0.0799 0.41238t-0.0815 0.41364q-0.0798 0.18174-0.22489 0.30333-0.14993 0.1266-0.35527 0.19052-0.20371 0.0639-0.46608 0.0639-0.25586 0-0.46608-0.0652-0.2086-0.0652-0.35527-0.18927-0.14667-0.12409-0.22652-0.30459-0.0782-0.1805-0.0782-0.41239 0-0.22812 0.0782-0.40861 0.0782-0.18175 0.22815-0.31086 0.14341-0.12283 0.35527-0.18801 0.21348-0.0652 0.46445-0.0652 0.26074 0 0.46771 0.0664 0.2086 0.0652 0.35364 0.18676zm-0.0293 0.71947q0-0.3635-0.21186-0.56029-0.21185-0.19804-0.57853-0.19804-0.36993 0-0.58178 0.19804-0.21023 0.19679-0.21023 0.56029 0 0.36726 0.21512 0.56279 0.21511 0.19429 0.57689 0.19429 0.36179 0 0.57527-0.19429 0.21512-0.19553 0.21512-0.56279zm2.6563-0.71947q0.1483 0.12534 0.22652 0.30709 0.0798 0.18175 0.0798 0.41238t-0.0815 0.41364q-0.0798 0.18174-0.22489 0.30333-0.14993 0.1266-0.35526 0.19052-0.20372 0.0639-0.46609 0.0639-0.25586 0-0.46608-0.0652-0.2086-0.0652-0.35527-0.18927-0.14667-0.12409-0.22652-0.30459-0.0782-0.1805-0.0782-0.41239 0-0.22812 0.0782-0.40861 0.0782-0.18175 0.22815-0.31086 0.14341-0.12283 0.35527-0.18801 0.21349-0.0652 0.46445-0.0652 0.26074 0 0.46772 0.0664 0.20859 0.0652 0.35363 0.18676zm-0.0293 0.71947q0-0.3635-0.21186-0.56029-0.21186-0.19804-0.57852-0.19804-0.36994 0-0.58179 0.19804-0.21023 0.19679-0.21023 0.56029 0 0.36726 0.21511 0.56279 0.21512 0.19429 0.57691 0.19429 0.36178 0 0.57526-0.19429 0.21512-0.19553 0.21512-0.56279zm3.0083 0.93257h-0.32267v-1.6082l-0.67468 1.0943h-0.19229l-0.66979-1.0943v1.6082h-0.30149v-1.8664h0.44001l0.64697 1.0391 0.62578-1.0391h0.44816z" stroke="#000" stroke-linecap="square" stroke-miterlimit="0" stroke-width=".13172"/>
	<path aria-label="VAULT" d="m64.6 27.465 2.7736 1.285 0.0052 0.63691-2.7523 1.3302-0.0042-0.51146 2.4216-1.1465-2.44-1.1068zm2.7366-3.2554 0.0042 0.50904-0.76719 0.35852 0.01269 1.5537 0.77295 0.34594 4e-3 0.48492-2.7736-1.285-0.0052-0.63691zm-1.0773 1.0173-1.3513 0.64075 1.3616 0.62101zm-0.0587-4.2338q0.3006-0.0025 0.52584 0.08256 0.22336 0.08263 0.3734 0.27682 0.14254 0.18461 0.20952 0.43257 0.06698 0.24796 0.06968 0.57848 0.0028 0.33775-0.06385 0.58922-0.06661 0.25146-0.19881 0.42384-0.15056 0.19666-0.3651 0.28527-0.21456 0.0862-0.52815 0.08876l-1.6533 0.0135-0.0039-0.47768 1.6719-0.01365q0.22453-0.0018 0.3541-0.04149 0.12956-0.04207 0.23456-0.13703 0.11975-0.10714 0.1795-0.28858 0.05973-0.18385 0.05765-0.43958-0.0021-0.25814-0.06297-0.4386-0.06271-0.18044-0.18607-0.288-0.10654-0.09323-0.24231-0.13072-0.13765-0.03989-0.33991-0.03824l-1.6812 0.01373-0.0039-0.47768zm1.0836-3.1936 0.01856 2.2726-2.763 0.02256-0.0039-0.47768 2.4364-0.01989-0.01466-1.7949zm-2.4579-2.6098 0.01048 1.2835 2.4364-0.01989 0.0039 0.47768-2.4364 0.01989 0.01048 1.2835-0.32658 0.0027-0.02486-3.0446z" stroke="#000" stroke-linecap="square" stroke-miterlimit="0" stroke-width=".13172"/>
</svg>
