<?xml version="1.0" encoding="utf-8"?>
<svg xmlns="http://www.w3.org/2000/svg" version="1.1" viewBox="0 0 632 952">
	<title>A floor plan on the left shows twelve unlabeled rooms around a central staircase. There are windows at the front and back. A line indicates 72 feet form front to back. An additional 16 feet of space is indicated at the back, with a small area labeled as a vault. A floor plan on the right shows eight rooms around a central staircase. The four rooms on the left are labeled: a kitchen, two bedrooms, and a sitting room.</title>
	<path aria-label="KITCHEN" d="m384.08 427.87h-1.6753l-3.8395-3.3242-0.96476 0.7922v2.532h-1.2907v-7.4656h1.2907v3.8957l4.7128-3.8957h1.5645l-4.3348 3.5096zm4.8696 0h-3.833v-0.76212h1.2711v-5.9412h-1.2711v-0.76208h3.833v0.76208h-1.2711v5.9412h1.2711zm9.1196-6.5832h-3.4679v6.5832h-1.2907v-6.5832h-3.4679v-0.88244h8.2264zm8.5392 6.0416q-0.3584 0.1204-0.65184 0.2256-0.2868 0.1052-0.75616 0.2208-0.3976 0.0956-0.867 0.1604-0.4628 0.07-1.0234 0.07-1.056 0-1.923-0.2256-0.86044-0.2304-1.4993-0.71696-0.6258-0.47628-0.9778-1.2083-0.352-0.73704-0.352-1.7097 0-0.92252 0.3388-1.6495t0.9778-1.2284q0.61924-0.48636 1.4928-0.74208 0.88-0.2556 1.949-0.2556 0.78224 0 1.558 0.1452 0.78224 0.1452 1.734 0.5114v1.1782h-0.0976q-0.80176-0.5164-1.5905-0.75204-0.78876-0.2356-1.6883-0.2356-0.7366 0-1.3298 0.1856-0.58668 0.1808-1.0495 0.56656-0.4498 0.376-0.704 0.9526-0.2476 0.5716-0.2476 1.3236 0 0.78716 0.2736 1.3537 0.2804 0.56656 0.71708 0.92252 0.45628 0.3712 1.0625 0.55156 0.61276 0.1752 1.2907 0.1752 0.93216 0 1.747-0.2456t1.5254-0.73704h0.0912zm9.25 0.54148h-1.2907v-3.655h-4.8432v3.655h-1.2907v-7.4656h1.2907v2.928h4.8432v-2.928h1.2907zm9.0024 0h-6.3948v-7.4656h6.3948v0.88244h-5.104v2.0456h5.104v0.88244h-5.104v2.7726h5.104zm9.452 0h-1.5971l-4.602-6.6784v6.6784h-1.206v-7.4656h2.0012l4.198 6.0968v-6.0968h1.206z" stroke="#000" stroke-linecap="square" stroke-miterlimit="0" stroke-width=".52688"/>
	<path d="m297.95 187.17 8.4192 9.3596m-8.7288-0.20968 8.5584-8.8096" fill="none" stroke="#000" stroke-linecap="square" stroke-miterlimit="0" stroke-width=".6"/>
	<path d="m469.65 590.87c-5.5212 8e-3 -6.2496 5.0516-6.2496 5.0516l0.68736 121.27s0.71056 4.7044 5.8336 4.53c4.7752-0.1624 5.448-4.482 5.448-4.482l0.0516-122.13s0.0472-4.25-5.7712-4.2408z" fill="none" stroke="#000" stroke-linecap="square" stroke-width=".6"/>
	<path d="m469.65 594.95c-2.7836 0.016-2.9686 2.8997-2.9633 2.8989l0.1776 116.71s0.16 2.8148 2.9436 2.7659c2.7467-0.048 2.849-2.9721 2.849-2.9721l-0.168-116.51s-0.334-2.9054-2.839-2.8909z" fill="none" stroke="#000" stroke-linecap="square" stroke-width=".6"/>
	<path d="m29.993 187.24 0.40404-166.58 249.34 1.1213-1.0392 165.84" fill="none" stroke="#000" stroke-linecap="square" stroke-width=".6"/>
	<path d="m508.17 613.51 34.656 0.1304" fill="none" stroke="#000" stroke-linecap="square" stroke-miterlimit="0" stroke-width=".6"/>
	<path d="m514.21 620.91-0.0892-4.0256 26.322 0.0808" fill="none" stroke="#000" stroke-linecap="square" stroke-miterlimit="0" stroke-width=".6"/>
	<path d="m514.37 643.31-0.028 2.7977 22.863 0.0904-0.0604-2.7977" fill="none" stroke="#000" stroke-linecap="square" stroke-miterlimit="0" stroke-width=".6"/>
	<path d="m513.53 651.27 24.277-0.1204" fill="none" stroke="#000" stroke-linecap="square" stroke-miterlimit="0" stroke-width=".6"/>
	<path d="m556.69 646.03 35.137 0.1204" fill="none" stroke="#000" stroke-linecap="square" stroke-miterlimit="0" stroke-width=".6"/>
	<path d="m556.57 651.23 34.716 0.1804" fill="none" stroke="#000" stroke-linecap="square" stroke-miterlimit="0" stroke-width=".6"/>
	<path d="m229.44 21.435-0.0795 124.92 48.96 0.625" fill="none" stroke="#000" stroke-linecap="square" stroke-width=".6"/>
	<path d="m122.03 495.31 29.75 0.25 0.25 126.25" fill="none" stroke="#000" stroke-linecap="square" stroke-width=".6"/>
	<path d="m121.28 502.35h30.5zm0.0859 7.6016h30.5zm-0.17188 7.0704h30.5zm0.0859 6.008h30.5zm-0.0703 7.1564h30.5zm0 7.1564h30.5zm-0.375 6.3752h30.5zm0 6.8048h30.5zm0.28908 8.2344h30.5zm-0.375 7.8752h30.5zm0.25 6.25h30.5zm-0.25 7.5h30.5zm0 6.6248h30.5zm0.125 6.3752h30.5zm0.625 6.6248h30.5zm-0.375 7.75h30.5zm-0.25 7.5h30.5zm0.375 6.3752h30.5z" fill="none" stroke="#000" stroke-linecap="square" stroke-width=".6"/>
	<path d="m361.65 344.92 31 0.18752zm-0.0469 5.6796 31.625 8e-3zm0.0656 4.838 31.335 0.0476z" fill="none" stroke="#000" stroke-linecap="square" stroke-width=".6"/>
	<path d="m424.57 344.57 31 0.18752zm-0.0468 5.6796 31.625 8e-3zm0.0656 4.838 31.335 0.0476z" fill="none" stroke="#000" stroke-linecap="square" stroke-width=".6"/>
	<path d="m456.09 472.47 30.375-0.3748" fill="none" stroke="#000" stroke-linecap="square" stroke-width=".6"/>
	<path d="m351.06 647.15 36.328 0.1768" fill="none" stroke="#000" stroke-linecap="square" stroke-width=".6"/>
	<path d="m351.94 651.75 35.631 0.016" fill="none" stroke="#000" stroke-linecap="square" stroke-width=".6"/>
	<path d="m387.22 625.87-0.0884 13.965" fill="none" stroke="#000" stroke-linecap="square" stroke-width=".6"/>
	<path d="m406.85 646.55h21.302" fill="none" stroke="#000" stroke-linecap="square" stroke-width=".6"/>
	<path d="m406.77 614.11 21.426-0.012" fill="none" stroke="#000" stroke-linecap="square" stroke-width=".6"/>
	<path d="m407.77 621.39-0.036-3.578 19.928 0.1364 0.1332 3.0844" fill="none" stroke="#000" stroke-linecap="square" stroke-width=".6"/>
	<path d="m488.93 344.5 31 0.18752zm-0.0468 5.6796 31.625 8e-3zm0.0656 4.838 31.335 0.0476z" fill="none" stroke="#000" stroke-linecap="square" stroke-width=".6"/>
	<path d="m550.37 344.3 30.47 0.27592zm-0.1352 5.8564 30.741 0.18476zm0.41916 5.1032 30.716 0.40112z" fill="none" stroke="#000" stroke-linecap="square" stroke-width=".6"/>
	<path d="m361.91 925.43 31 0.1876zm-0.0781 5.742 31.656 0.1016zm0.22948 5.1288 31.14-0.024z" fill="none" stroke="#000" stroke-linecap="square" stroke-width=".6"/>
	<path d="m425.25 925.35 31.312-0.1248zm-0.0468 5.6796 31.938-0.3044zm0.0656 4.838 31.648-0.2648z" fill="none" stroke="#000" stroke-linecap="square" stroke-width=".6"/>
	<path d="m486.97 924.31 33.121 0.0992zm-0.0468 5.6796 33.746-0.0804zm0.2424 5.28 33.634-0.48272z" fill="none" stroke="#000" stroke-linecap="square" stroke-width=".6"/>
	<path d="m544.01 923.91 37-0.0624zm-0.0468 5.6796 37.625-0.242zm0.0656 4.838 37.335-0.2024z" fill="none" stroke="#000" stroke-linecap="square" stroke-width=".6"/>
	<path d="m49.659 186.67 31 0.1876zm-0.29688 4.0548 31.625 8e-3zm-0.18436 3.4004 31.335 0.0476z" fill="none" stroke="#000" stroke-linecap="square" stroke-width=".6"/>
	<path d="m432.65 523.71 0.1248 22.625" fill="none" stroke="#000" stroke-linecap="square" stroke-width=".6"/>
	<path d="m508.05 523.63-0.25 23.688" fill="none" stroke="#000" stroke-linecap="square" stroke-width=".6"/>
	<path d="m454.41 363.45v39.375" fill="none" stroke="#000" stroke-linecap="square" stroke-width=".6"/>
	<path d="m454.53 409.47v20.5" fill="none" stroke="#000" stroke-linecap="square" stroke-width=".6"/>
	<path d="m490.17 363.46-0.3748 70.744" fill="none" stroke="#000" stroke-linecap="square" stroke-width=".6"/>
	<path d="m107.64 187.02 31 0.1876zm-0.29688 4.0548 31.625 8e-3zm-0.18436 3.4004 31.335 0.0476z" fill="none" stroke="#000" stroke-linecap="square" stroke-width=".6"/>
	<path d="m172.14 187.02 31 0.1876zm-0.29688 4.0548 31.625 8e-3zm-0.18436 3.4004 31.335 0.0476z" fill="none" stroke="#000" stroke-linecap="square" stroke-width=".6"/>
	<path d="m227.64 186.96 31 0.1876zm-0.29688 4.0548 31.625 8e-3zm-0.18436 3.6656 31.335 0.0476z" fill="none" stroke="#000" stroke-linecap="square" stroke-width=".6"/>
	<path d="m44.003 924.71 31 0.1876zm-0.38528 4.2316 31.183-0.0804zm-0.53792 3.8424 31.335 0.0476z" fill="none" stroke="#000" stroke-linecap="square" stroke-width=".6"/>
	<path d="m101.99 924.99 31 0.1876zm-0.38528 4.2316 31.625 8e-3zm-0.096 3.8424 31.335 0.0476z" fill="none" stroke="#000" stroke-linecap="square" stroke-width=".6"/>
	<path d="m166.49 925.15 31 0.1876zm-0.38528 4.7616 31.625 8e-3zm-8e-3 3.8424 31.335 0.0476z" fill="none" stroke="#000" stroke-linecap="square" stroke-width=".6"/>
	<path d="m221.99 925.55 31 0.1876zm-0.23436 4.492 31.625 8e-3zm3e-3 3.9781 31.335 0.0476z" fill="none" stroke="#000" stroke-linecap="square" stroke-width=".6"/>
	<path d="m433.65 596.91h29.688zm0.086 7.6016h29.625zm-0.172 7.0704h30zm0.2628 7.9524h29.75zm-0.2472 7.8632 30.062 0.0624zm0.53032 6.8028 29.438 0.1248zm-0.72836 8.1428 30.25 0.0624zm-0.2412 8.3216h30.5zm1.0394 8.4052 29.262-0.1768zm0.59284 7.632 29.096 0.032zm-1.4767 7.7088h30.5zm0 8.5696h30.5zm-0.052 8.3196h30.5zm0.0948 6.4484h30.5zm-0.72836 7.3964h31.125zm-0.0732 7.6768h31.25zm2.3194 8.85 32.438-0.1248z" fill="none" stroke="#000" stroke-linecap="square" stroke-width=".6"/>
	<path color="#000000" d="m299.14 735.67v0.2968l-0.31676 20.786v0.3048h0.60156v-0.3048l0.30916-20.786v-0.2968zm-0.0228 30.469v0.2968l-0.23164 17.723v0.3048h0.60156v-0.3048l0.23164-17.723v-0.2968zm-0.0539 25.828v0.2968l-0.0615 21.722v0.3048h0.60156v-0.3048l0.0615-21.722v-0.2968zm0.0624 30.214v0.2968l-0.0539 17.212v0.3048h0.60156l-8e-3 -0.3048 0.0615-17.212v-0.2968zm-0.0539 24.382v0.2968l-0.0539 16.446v0.3048h0.60156v-0.3048l0.0539-16.446v-0.2968zm-0.0148 23.237v0.2968l0.0236 18.659v0.3048h0.60156v-0.3048l-0.0312-18.659v-0.2968zm0.0312 24.807v0.2968l0.0485 15.438v0.3048h0.60156v-0.3048l-0.0485-15.438-8e-3 -0.2968zm-0.24472 19.31v0.2968l-0.21708 19.121v0.3048h0.60156v-0.3048l0.21708-19.121v-0.2968z" fill="none" stroke="#000" stroke-linecap="square" stroke-width=".6"/>
	<path d="m294.24 927.79 4.6928 3.7303 4.1516-3.1888" fill="none" stroke="#000" stroke-linecap="square" stroke-miterlimit="0" stroke-width=".6"/>
	<path color="#000000" d="m300.25 541.51v0.2968l0.0236 13.979v0.3048h0.60156v-0.3048l-0.0312-13.979v-0.2968zm-0.44824 23.492v0.2968l0.0236 15.085v0.3048h0.60156v-0.3048l-0.0236-15.085v-0.2968zm0.11628 25.913v0.2968l0.10868 17.553v0.3048h0.60156v-0.3048l-0.10868-17.553v-0.2968zm-0.10776 28.002v0.2968l0.0312 19.85v0.3048h0.60157l-8e-3 -0.3048-0.0236-19.85v-0.2968zm-0.39424 29.572v0.2968l0.0312 20.275v0.3048h0.60156v-0.3048l-0.0312-20.275v-0.2968zm0.15536 28.682v0.2968l0.0236 16.446v0.3048h0.60156v-0.3048l-0.0312-16.446v-0.2968zm-0.2986 26.675v0.2968l-0.30216 20.228v0.3048h0.60156v-0.3048l0.30216-20.228v-0.2968zm1.2343-188.1v0.2968l0.0754 6.2104v0.3048h0.60156v-0.3048l-0.083-6.2104v-0.2968z" fill="none" stroke="#000" stroke-linecap="square" stroke-width=".6"/>
	<path color="#000000" d="m301.18 305.14v0.2968l0.10868 24.274v0.3048h0.60156v-0.3048l-0.11628-24.274v-0.2968zm0.0623 32.171v0.2968l0.0236 18.063v0.3048h0.60156v-0.3048l-0.0236-18.063v-0.2968zm0.0312 27.445v0.2968l0.0236 21.466v0.3048h0.60156v-0.3048l-0.0236-21.466v-0.2968zm-0.0228 28.512v0.2968l0.0312 19.254v0.3048h0.60156l-8e-3 -0.3048-0.0236-19.254v-0.2968zm-0.22408 28.891v0.2968l-0.13896 16.446v0.3048h0.60156v-0.3048l0.13896-16.446v-0.2968zm-0.44024 26.64v0.2968l0.0236 16.446v0.3048h0.60156v-0.3048l-0.0312-16.446v-0.2968zm6e-3 25.61v0.2968l-0.18184 21.972v0.3048h0.60156v-0.3048l0.18184-21.972v-0.2968z" fill="none" stroke="#000" stroke-linecap="square" stroke-width=".6"/>
	<path d="m407.41 654.55 8e-3 -3.0675 19.928 0.1364 0.0908 2.5739" fill="none" stroke="#000" stroke-linecap="square" stroke-width=".6"/>
	<path color="#000000" d="m301.8 88.117v0.2968l0.0485 7.428v0.3048h0.60156v-0.3048l-0.0561-7.428v-0.2968zm0.0372 57.068v0.2968l0.0236 18.829v0.3048h0.60156v-0.3048l-0.0236-18.829v-0.2968zm-0.22408 27.445v0.2968l0.0236 27.252v0.3048h0.60156v-0.3048l-0.0236-27.252v-0.2968zm0.0623 31.66v0.2968l0.0312 24.955v0.3048h0.60156l-8e-3 -0.3048-0.0236-24.955v-0.2968zm-0.1538 35.026v0.2968l-0.0615 21.722v0.3048h0.60156v-0.3048l0.0539-21.722v-0.2968zm0.34676 30.716v0.2968l-0.18184 21.972v0.3048h0.60156v-0.3048l0.18184-21.972v-0.2968z" fill="none" stroke="#000" stroke-linecap="square" stroke-width=".6"/>
	<path color="#000000" d="m301.96 23.475v0.2968l-0.0967 15.851v0.3048h0.60156v-0.3048l0.0967-15.851v-0.2968zm0.0164 20.977v0.2968l0.0236 12.332v0.3048h0.60156v-0.3048l-0.0236-12.332v-0.2968zm-0.29872 21.794v0.2968l0.0312 16.652v0.3048h0.60156l-8e-3 -0.3048-0.0236-16.652v-0.2968z" fill="none" stroke="#000" stroke-linecap="square" stroke-width=".6"/>
	<path d="m298.54 27.541 3.7438-3.8289 3.3184 3.2333" fill="none" stroke="#000" stroke-linecap="square" stroke-miterlimit="0" stroke-width=".6"/>
	<path d="m505.13 622.71 0.3536 20.392" fill="none" stroke="#000" stroke-linecap="square" stroke-miterlimit="0" stroke-width=".6"/>
	<path d="m507.65 623.07 0.3184 19.428" fill="none" stroke="#000" stroke-linecap="square" stroke-miterlimit="0" stroke-width=".6"/>
	<path d="m554.33 621.83 0.1512 21.232" fill="none" stroke="#000" stroke-linecap="square" stroke-miterlimit="0" stroke-width=".6"/>
	<path aria-label="72 ft." d="m296.12 533.87c0.125-1e-3 0.23964 4e-3 0.34392 0.016 0.0973 8e-3 0.1946 0.02 0.29204 0.04 0.0904 0.012 0.18088 0.036 0.27148 0.0704 0.0836 0.028 0.17412 0.0608 0.27172 0.1016l11.229 4.7568c0.0836 0.036 0.15344 0.0788 0.20948 0.1336 0.049 0.048 0.0913 0.1136 0.12672 0.1968 0.0284 0.076 0.0467 0.1768 0.0547 0.3016 0.0152 0.1252 0.0232 0.278 0.0248 0.45816 2e-3 0.236-7e-3 0.42012-0.0264 0.55236-0.0196 0.132-0.05 0.2296-0.0912 0.2924-0.0481 0.056-0.10348 0.0804-0.16604 0.0744-0.0695-8e-3 -0.1496-0.032-0.24024-0.0708l-11.482-5.0044 0.0563 6.4684c1e-3 0.132-0.0674 0.2332-0.20568 0.304-0.13832 0.0636-0.33248 0.0964-0.58248 0.0988-0.13196 1e-3 -0.2466-4e-3 -0.34392-0.016-0.0974-0.02-0.17752-0.0476-0.24028-0.0812-0.0698-0.036-0.11868-0.0752-0.14692-0.1236-0.0352-0.048-0.053-0.1036-0.0535-0.1664l-0.0684-7.854c-8.4e-4 -0.0972 9e-3 -0.1808 0.0292-0.2504 0.02-0.0764 0.0613-0.1324 0.12356-0.168 0.0622-0.042 0.14172-0.074 0.23876-0.0956 0.0971-0.02 0.22196-0.032 0.37472-0.036zm11.845-10.718c0.125-1e-3 0.23616 8e-3 0.3336 0.028 0.0974 0.012 0.18088 0.036 0.25064 0.0708 0.0628 0.028 0.11172 0.068 0.14692 0.1236 0.028 0.048 0.0426 0.1036 0.0431 0.1664l0.0648 7.4476c8.5e-4 0.0972-9e-3 0.184-0.0288 0.2608-0.0268 0.0696-0.0683 0.1324-0.12336 0.1888-0.0551 0.0488-0.13464 0.088-0.2386 0.1168-0.104 0.02-0.23236 0.036-0.38512 0.036-0.13888 1e-3 -0.26044-2e-3 -0.36468-8e-3 -0.10428-0.012-0.19476-0.036-0.27144-0.0704-0.0836-0.036-0.16384-0.0748-0.24068-0.1228-0.0838-0.0548-0.1712-0.1232-0.2622-0.206l-2.7935-2.5904c-0.64412-0.5986-1.2212-1.0762-1.7313-1.4329-0.51012-0.3636-0.97436-0.64088-1.3927-0.83168-0.4184-0.1976-0.798-0.3264-1.1388-0.386s-0.66052-0.088-0.95912-0.0852c-0.2986 3e-3 -0.5794 0.054-0.84244 0.1532-0.27 0.0996-0.50484 0.244-0.7046 0.4332-0.1998 0.182-0.35752 0.41284-0.47316 0.69164-0.1156 0.2784-0.17188 0.59876-0.16872 0.95988 4e-3 0.42356 0.066 0.80496 0.18704 1.1442 0.12092 0.332 0.252 0.62632 0.39308 0.88204 0.14104 0.2488 0.27136 0.45936 0.39096 0.63204 0.11948 0.1656 0.1796 0.29 0.18032 0.3732 4.2e-4 0.0484-0.0132 0.0936-0.0405 0.136-0.0272 0.036-0.0724 0.0668-0.1346 0.0948-0.0624 0.02-0.14548 0.0412-0.24952 0.0544-0.10404 0.012-0.22896 0.024-0.3748 0.024-0.10416 9.2e-4 -0.19448-2e-3 -0.27092-8e-3 -0.0765-8e-3 -0.14252-0.02-0.1982-0.032-0.0557-0.02-0.10804-0.0448-0.15688-0.0716-0.0488-0.028-0.10836-0.0824-0.17852-0.1652-0.0771-0.0824-0.17904-0.224-0.3058-0.42444-0.1268-0.2072-0.25056-0.46304-0.37128-0.76764-0.12772-0.3112-0.23484-0.65076-0.3214-1.0181-0.0866-0.374-0.13168-0.76624-0.13524-1.176-6e-3 -0.65272 0.0831-1.223 0.26636-1.7107 0.17628-0.49464 0.42272-0.90304 0.73936-1.2252 0.3166-0.3292 0.686-0.57544 1.1082-0.73884 0.4222-0.1632 0.87288-0.2472 1.352-0.2512 0.43056-4e-3 0.86144 0.032 1.2926 0.1032 0.42424 0.0728 0.88748 0.232 1.3896 0.47752 0.49516 0.2384 1.0503 0.58796 1.6654 1.048 0.6082 0.46 1.3114 1.072 2.1098 1.8359l2.2477 2.116-0.051-5.8644c-4.8e-4 -0.0556 0.0164-0.1076 0.0507-0.1568 0.0272-0.056 0.072-0.1016 0.1342-0.1368 0.0622-0.042 0.14176-0.0704 0.23888-0.0852 0.0901-0.02 0.19764-0.032 0.32264-0.036zm-9.306-16.17-0.0144-1.2381-2.2291 0.02c-0.0486 4.4e-4 -0.0939-0.012-0.13576-0.0404-0.0419-0.028-0.077-0.072-0.10532-0.1348-0.0352-0.062-0.0603-0.1488-0.0752-0.2596-0.0148-0.1112-0.0232-0.2536-0.0244-0.42692-2e-3 -0.1668 4e-3 -0.3056 0.0172-0.41684 0.0132-0.1112 0.0364-0.1984 0.0706-0.2608 0.0272-0.0628 0.0616-0.108 0.10296-0.1364 0.0414-0.028 0.0864-0.0424 0.13504-0.0428l2.2291-0.02-0.0208-2.3957c-4.8e-4 -0.0556 0.0132-0.104 0.0404-0.1464 0.0204-0.0484 0.0617-0.0872 0.124-0.1156 0.0553-0.028 0.12804-0.0496 0.2182-0.0644 0.0901-0.02 0.20108-0.032 0.33304-0.036 0.25-2e-3 0.4308 0.028 0.54244 0.0888 0.11164 0.0616 0.16792 0.144 0.16884 0.2484l0.0208 2.4061 5.2288-0.0456c0.6458-4e-3 1.1346-0.1036 1.4662-0.294 0.32476-0.1904 0.48496-0.53544 0.4806-1.0354-1e-3 -0.1528-0.0164-0.2916-0.0453-0.41632-0.036-0.1316-0.0716-0.2456-0.10716-0.3428-0.0356-0.0968-0.0675-0.1804-0.0959-0.2492-0.0356-0.076-0.0533-0.1384-0.0537-0.1872-3.6e-4 -0.0416 0.01-0.0764 0.0304-0.1044 0.0136-0.028 0.0447-0.0488 0.0932-0.0632 0.0484-0.02 0.11424-0.0408 0.19744-0.0536 0.0832-0.012 0.18736-0.02 0.31232-0.024 0.2014-2e-3 0.36124 0.012 0.4796 0.048 0.11828 0.028 0.20544 0.0676 0.26148 0.1224 0.056 0.0552 0.1088 0.1344 0.15832 0.2384 0.0495 0.104 0.0888 0.2284 0.11788 0.374 0.036 0.1384 0.065 0.2912 0.0873 0.45756 0.022 0.1596 0.034 0.3156 0.0352 0.46848 4e-3 0.49304-0.0545 0.91372-0.17652 1.262-0.12892 0.3484-0.32088 0.63476-0.57588 0.85924-0.26192 0.2244-0.5904 0.3904-0.98528 0.49812-0.40192 0.1008-0.87368 0.1536-1.4154 0.1584l-5.4788 0.0476 0.0144 1.2354zm1.4415 1.3921 0.0288 2.2988 8.2184-0.0716c0.0556-5.2e-4 0.10428 0.012 0.1462 0.0404 0.0352 0.028 0.0666 0.0756 0.095 0.1452 0.028 0.062 0.0499 0.1488 0.0648 0.26 0.0148 0.1112 0.0228 0.25 0.0244 0.41644 2e-3 0.1668-4e-3 0.3056-0.0172 0.41688-0.0132 0.1112-0.0332 0.202-0.0602 0.2712-0.0272 0.0628-0.0581 0.108-0.0926 0.1364-0.0414 0.028-0.0899 0.0424-0.14548 0.0428l-8.2184 0.0716 0.0116 1.3229c9.7e-4 0.1112-0.0539 0.1948-0.16448 0.2516-0.11064 0.0564-0.29096 0.0856-0.54092 0.088-0.13196 1e-3 -0.24312-4e-3 -0.33348-0.016-0.0904-0.012-0.16352-0.036-0.21928-0.0604-0.0628-0.028-0.10472-0.0616-0.12592-0.1028-0.028-0.0412-0.0425-0.09-0.043-0.1456l-0.0116-1.3228-0.96872 8e-3c-0.65276 4e-3 -1.2123-0.0488-1.6786-0.1624-0.47328-0.1212-0.86028-0.3016-1.161-0.54196-0.30076-0.2472-0.52224-0.55784-0.6644-0.9318-0.14916-0.3808-0.22596-0.82788-0.23044-1.3418-2e-3 -0.2572 0.0232-0.50728 0.0768-0.75068 0.0465-0.2432 0.0936-0.4174 0.14132-0.52212 0.0408-0.1048 0.0818-0.178 0.12308-0.22 0.0413-0.042 0.0966-0.0736 0.16588-0.0952 0.0623-0.028 0.14196-0.0464 0.23912-0.054 0.0902-0.012 0.2012-0.02 0.33312-0.024 0.13196-1e-3 0.23968 4e-3 0.32308 0.016 0.0765 8e-3 0.13904 0.02 0.18784 0.04s0.0837 0.0448 0.1048 0.072c0.0144 0.028 0.0212 0.0584 0.0216 0.0932 4.9e-4 0.0556-0.0128 0.118-0.04 0.188-0.034 0.0696-0.0681 0.1568-0.10188 0.2612-0.0408 0.1048-0.0744 0.23-0.10088 0.3756-0.0336 0.1392-0.0494 0.3024-0.0478 0.49004 2e-3 0.2572 0.0458 0.4754 0.13072 0.65512 0.0848 0.1728 0.21804 0.314 0.39956 0.4236 0.17456 0.1096 0.40444 0.1908 0.68964 0.244 0.27816 0.046 0.61864 0.0676 1.0214 0.064l1.0208-8e-3 -0.0288-2.3042zm7.2576-12.792c-0.49304 4e-3 0.8236 0.076 0.99172 0.2412 0.16112 0.158 0.24356 0.45276 0.24728 0.88328 4e-3 0.41668-0.0738 0.70556-0.23208 0.86664-0.15832 0.1612-0.47708 0.2436-0.9562 0.248-0.49304 4e-3 -0.82012-0.0728-0.9812-0.2312-0.16812-0.1652-0.25404-0.46308-0.2578-0.89364-4e-3 -0.41664 0.0737-0.70552 0.23208-0.8666 0.15832-0.1612 1.4354-0.252 0.9562-0.248z" stroke="#000" stroke-linecap="square" stroke-miterlimit="0" stroke-width=".6"/>
	<path d="m200.64 186.8 29.245-0.19728 0.0148 8.536-29.17-0.0726z" stroke-width="4"/>
	<path d="m386.89 638.79 3.9201-0.1452 0.1452 7.9852 7.9856 0.1452v-27.731l-7.6952-0.1452 0.1452 6.824-4.3556 0.4356v-8.8564l-5.5172-0.2904 2.9038-3.1942h23.085v4.646h-4.9364v27.876h4.9364l-0.1452 5.6624h-20.472z" stroke-width="4"/>
	<path d="m77.951 186.4 30.285-0.10868v8.2616l-30.304-8e-3z" stroke-width="4"/>
	<path d="m538.25 613.31 21.232-0.11-0.036 3.7396-3.2668 0.0724 0.0544 5.0272-3.4664-0.02v-5.0816l-8.9292 0.036 0.1452 11.722-3.0168 2.4771 0.2776 8.4796 3.1744 2.3282 0.0724 3.9927 7.9856 0.0724v-3.5571l4.082-0.032 0.2252 8.942-19.844-0.06-0.1576-5.2888 3.841-0.0852-0.58944-28.98-3.5273 0.016z" stroke-width="4"/>
	<path d="m427.21 756.87 6.0136 0.024-0.1964-105.17-5.2248-0.0496-0.0764-5.5412 5.21 0.012-0.082-27.973-5.0928 0.024 0.064-4.544 4.9932 1e-3 -0.5282-68.08 4.1272 0.0868-0.0412 16.611 16.319-15.693-0.50988-36.408-15.841-0.1184-0.024 13.344-4.1048 0.154-0.1592-13.216-5.9652-0.0476 0.024-4.2984 25.908 0.104-0.1904-5.3764 4.3456 0.0652 0.48824 47.42-20.227 19.601 0.89292 189.24 6.2548-0.1056-8e-3 4.2064-16.294-0.0956z" stroke-width="4"/>
	<path d="m71.119 924.31 31.796 0.0964 0.20848 9.2832-31.828 0.1792z" stroke-width="4"/>
	<path d="m196.21 925.03 29.274 0.076 0.12636 9.2628-29.442-0.154z" stroke-width="4"/>
	<path d="m363.82 924.67 0.0384 12.152h-22.542l-0.60528-592.56 21.574-0.0232 0.0746 11.641-10.768 0.0509-0.184 40.912 6.2556-8e-3 0.59024 54.552-5.844 0.1088 0.337 54.608 47.896-0.1212 2e-3 5.326-47.796 0.3432-0.0786 101.96 8.8312-0.016-0.0164 5.2036-8.8668 0.1048 0.10704 138.31 51.968-0.3372 0.016 4.654-52.04 0.55904v49.748l7.1852-0.0612 0.43556 57.628-7.3128-0.2416 0.56312 55.484m134.41 11.082-31.955 0.096-0.028-11.735 13.176-8e-3 -0.1048-163.43-5.65 0.0896-0.04-3.785 15.322-4e-3 0.0412 3.6786-5.4944 0.0408 0.02 163.33 14.629 0.0988m104.38-0.96372 0.0548-49.172-6.6732 0.1032-0.44608-52.888 5.7444-0.1476 0.56452-60.328-51.816 0.1236-0.016-4.2412 51.728-0.2628-0.2512-51.84-0.3888-87.04-9.5104-0.2904-0.2164-4.418 10.47-0.41912-0.64032-102.29-50.276 0.032-0.0408-4.692 50.572-0.308-0.2844-55.372-6.4732-0.1012-0.2052-53.808 6.7812-0.1036-0.036-39.084-12.784-0.12028-0.024-12.279 25.894-4.2e-4 -0.2356 590.36-23.272 0.02-0.028-11.319m-154.2 13.361-33.675 0.1228-0.0708-11.852 33.58 0.1384" stroke-width="4"/>
	<path d="m147.33 448.51-0.0726-107.39-23.37 0.1332-0.0324-6.3512 23.811-0.036 0.20076-139.8-9.9628-0.0176 0.0216-8.1048 35.212-0.0522-4e-3 8.32-18.837-0.1452 0.14504 139.78 25.52 0.16772 0.014 6.3-25.733-0.0481-0.80951 107.58m29.715 109.68 87.264 0.2884 0.53823-101.54-41.9-0.308-0.13548-7.9932 41.936 0.1312 0.15028-107.68-61.592 0.18916 0.0889-7.0176 61.628 0.13812 0.23512-139.47-15.108-0.26516-0.065-8.3796 23.225 0.22224-2.2537 748.08-24.237-0.633-0.0144-9.3364 16.593 0.25 0.0643-140.03h-62.716v-8.052l63.732 0.69872-0.74024-53.316 0.3668-49.412-42.624 1e-3 -3e-3 -8.32 43.276 0.80864-0.5648-100.99-87.264-0.7494m-30.581 108.61v102.4l22.523 0.78516 0.012 7.034-22.535 0.2128-0.66184 139.91 14.644 0.0988-0.20792 9.3296-35.352-0.1932-0.10804-9.154 14.28 0.02 0.3036-140.91-24.774-0.3832-0.078-6.6852 24.915 0.3364 0.53917-102.86m-26.118-108.41-82.964-0.51224 0.1202 100.31 38.024 0.3504v7.274l-38.488 0.1992-0.55176 101.97 58.24 0.688v7.632l-58.172-0.44196-0.28948 140.21 12.034 0.45796 0.0974 9.1696-21.014-0.062 3.1819-746.52 22.068-0.0622-0.14516 7.9564-14.242-0.0719-1.5193 140.07h61.84v6.696l-61.416 0.2958-0.12008 106.93h39.776v7.68h-39.813l0.22932 101.32 82.776-0.2904" stroke-width="4"/>
	<path d="m102.78 455.95-0.0883-7.424 101.12-2e-4 -0.0726 7.9768z" stroke-width="4"/>
	<path d="m101.89 673.79 0.55048-7.2144 99.084-0.89344-0.6584 8.7424z" stroke-width="4"/>
	<path d="m117.08 668.31 0.1706-213.01 6.624-0.2748 0.0224 213.25z" stroke-width="4"/>
	<path d="m177.86 666.87 0.0422-211.55 6.0792 0.0796-0.0104 212.05z" stroke-width="4"/>
	<path d="m392.13 344.76 0.0728 11.034 33.124-0.085-0.0932-11.53z" stroke-width="4"/>
	<path d="m455.65 343.89 0.0592 11.701 33.829-9e-3 0.0492-11.62z" stroke-width="4"/>
	<path d="m517.97 343.98 0.0404 11.89 33.498 0.0156-0.092-11.937z" stroke-width="4"/>
	<path d="m519.45 923.83 0.1204 11.664 25.461-0.41064-0.1204-11.664z" stroke-width="4"/>
	<path d="m508.77 646.27 5.3848-0.06 0.1972 5.4176-5.4004-0.036 0.1424 105.97 4.5216-4e-3 3e-3 4.75-10.744 0.0704-0.0604-4.7608 2.6033-0.0564-0.3132-114.7 2.9667-0.0824" stroke-width="4"/>
	<path d="m508.41 623.19-3.6874-0.194-0.3376-57.892-17.77-18.826-0.44952-45.296 4.5312 0.076 8e-3 4.928 21.552 0.2292 0.016 4.5884-3.9271-0.032-0.126 12.935-3.2898-0.028 0.1708-12.807h-14.418l0.2744 34.39 13.432 14.498 0.012-13.08 3.5937-0.0404 0.41256 66.66 5.8112-0.0744-0.1388 3.7124-5.5936 0.0612" stroke-width="4"/>
	<path d="m452.05 429.23 0.625 47.152 3.4924 0.154-0.0656-4.3244 5.0732 0.024-0.0968-2.988-5.0736-0.028-0.25-29.76 30.764-0.2512 0.0524 29.886-7.422-0.078-8e-3 2.8303 7.4352-0.028 0.032 4.3128 3.0982 0.0472-0.0408-47.652-3.2522 0.024 3e-3 7.7056-13.565 0.044-0.0624-81.472-3.9062 0.125 0.43748 81.28-13.59 0.0688-0.0968-7.1068z" stroke-width="4"/>
	<path d="m451.93 410.07-0.036-8.1416 4.2472 8e-3 0.0464 8.1988" stroke-width="4"/>
	<path d="m486.01 409.03-0.0984-10.266 4.2472 8e-3 0.1088 10.324" stroke-width="4"/>
	<path d="m453.01 363.47-0.036-8.1416 4.2472 8e-3 0.0464 8.1988" stroke-width="4"/>
	<path d="m486.17 363.55-0.036-8.1416 4.2472 8e-3 0.0464 8.1988" stroke-width="4"/>
	<path aria-label="16 ft." d="m309.12 132.62c0.13196 4.7e-4 0.243 0.0112 0.3332 0.0324s0.16304 0.0492 0.21848 0.0841c0.0554 0.0348 0.0969 0.0768 0.12456 0.12544 0.0208 0.0418 0.0308 0.0869 0.0308 0.13552l-0.0252 7.0416c-1.7e-4 0.0486-0.0108 0.0937-0.0316 0.13528-0.0276 0.0416-0.0697 0.0831-0.12544 0.12456-0.0557 0.0344-0.12872 0.062-0.21904 0.0825-0.0904 0.0204-0.20148 0.0304-0.33344 0.03-0.125-4.5e-4 -0.2326-0.0112-0.3228-0.0324s-0.16304-0.0457-0.21852-0.0737c-0.0624-0.0352-0.10736-0.0733-0.135-0.11508-0.0348-0.0487-0.0517-0.10088-0.0515-0.15644l0.01-2.8125-10.25-0.0368 1.5428 2.6097c0.069 0.1322 0.11028 0.24 0.12384 0.32336 0.0136 0.0764-5.2e-4 0.13888-0.0424 0.18732-0.0488 0.0484-0.12528 0.0829-0.22952 0.10336-0.1042 0.0136-0.2362 0.02-0.39592 0.0192-0.11804-4.3e-4 -0.21876-4e-3 -0.30204-0.0116-0.0833-0.0144-0.15264-0.0316-0.20812-0.0528-0.0555-0.0208-0.104-0.0489-0.14552-0.0838-0.0415-0.0418-0.083-0.094-0.12444-0.15668l-1.9785-3.1113c-0.0208-0.0276-0.0376-0.0626-0.0517-0.10436-0.014-0.0417-0.0272-0.0938-0.0411-0.1564-0.0136-0.0626-0.0204-0.13552-0.02-0.21884-6e-3 -0.0834-0.01-0.18756-9e-3 -0.31256 6e-4 -0.16668 8e-3 -0.30552 0.0224-0.4166s0.0356-0.1978 0.0634-0.26016c0.0212-0.0624 0.0524-0.10396 0.0942-0.12468 0.0348-0.0208 0.073-0.0308 0.11472-0.0308l11.844 0.0424 9e-3 -2.4375c2e-4 -0.0556 0.0176-0.10756 0.0526-0.15604 0.0276-0.0485 0.0732-0.0865 0.1358-0.11412 0.0557-0.0348 0.12868-0.0586 0.21904-0.0721 0.0904-0.0204 0.19804-0.0304 0.32304-0.03zm-3.6164-11.138c0.59028 2e-3 1.1629 0.0944 1.7178 0.277 0.54796 0.18252 1.0331 0.46204 1.4554 0.83856 0.41532 0.37648 0.75044 0.8534 1.0053 1.4307 0.24792 0.57728 0.37048 1.2583 0.36768 2.043-2e-3 0.56248-0.0732 1.0588-0.21364 1.4888-0.14044 0.43004-0.33968 0.80436-0.59776 1.1229-0.25812 0.31852-0.57504 0.58476-0.9508 0.79868-0.37576 0.207-0.80344 0.37556-1.2831 0.50584-0.4796 0.12328-1.0042 0.21168-1.5739 0.2652-0.56964 0.0535-1.1808 0.0791-1.8336 0.0768-0.5764-2e-3 -1.1596-0.0352-1.7496-0.10004-0.59004-0.0646-1.1591-0.17776-1.7071-0.33944s-1.0612-0.3788-1.5394-0.65136c-0.48512-0.27952-0.904-0.62476-1.2567-1.0358-0.35964-0.41796-0.64256-0.91552-0.84884-1.4926s-0.30804-1.2476-0.30532-2.0115c9.2e-4 -0.25692 0.0192-0.51728 0.0549-0.78104 0.0284-0.26376 0.0712-0.50668 0.1276-0.72872 0.0494-0.22204 0.10564-0.40936 0.16868-0.56188 0.0631-0.15252 0.11552-0.25308 0.15732-0.30152 0.0348-0.0485 0.0767-0.083 0.12536-0.10372 0.0418-0.0276 0.0904-0.0483 0.14608-0.062 0.0486-0.014 0.10772-0.024 0.1772-0.0304 0.0626-6e-3 0.1424-0.01 0.2396-0.01 0.125 4.4e-4 0.23264 4e-3 0.32288 0.0116 0.0903 3.2e-4 0.16316 0.0144 0.2186 0.0425 0.0555 0.0208 0.097 0.0524 0.12468 0.0942 0.0276 0.0348 0.0414 0.0835 0.0412 0.146-2.7e-4 0.0764-0.0252 0.18048-0.074 0.31224-0.0491 0.1318-0.10172 0.29132-0.15796 0.4786-0.0632 0.18724-0.11956 0.41624-0.16912 0.68688-0.0496 0.26372-0.075 0.57264-0.0762 0.9268-2e-3 0.64584 0.12768 1.2018 0.38988 1.6681s0.61504 0.84944 1.0584 1.1496c0.4434 0.29328 0.95997 0.51384 1.5497 0.6618 0.58284 0.14096 1.1936 0.22304 1.8325 0.24616-0.10352-0.18092-0.20696-0.38272-0.31036-0.60528-0.10336-0.22952-0.1962-0.4764-0.2786-0.74056-0.0824-0.27112-0.14732-0.55608-0.19488-0.85488-0.0545-0.2988-0.0811-0.61836-0.0799-0.95864 3e-3 -0.72916 0.10548-1.3434 0.30868-1.8426 0.19624-0.49928 0.472-0.90108 0.82724-1.2054 0.34832-0.31128 0.76232-0.532 1.242-0.66224 0.47268-0.13028 0.9868-0.1944 1.5424-0.1924zm0.1602 1.8131c-0.40276-1e-3 -0.76752 0.0388-1.0942 0.12108-0.3336 0.0752-0.61532 0.20612-0.84516 0.39284-0.22984 0.18664-0.40784 0.43604-0.53392 0.74808-0.12612 0.31208-0.18996 0.69724-0.1916 1.1556-9.2e-4 0.25692 0.0224 0.51396 0.0702 0.77108 0.0408 0.25708 0.10236 0.50728 0.1848 0.75068 0.0755 0.2364 0.16844 0.46588 0.27876 0.68852 0.1034 0.21564 0.21728 0.41396 0.34164 0.59496 0.89584 3e-3 1.646-0.0497 2.2506-0.15864 0.6046-0.11588 1.0913-0.2808 1.4601-0.4948 0.36192-0.22092 0.62328-0.49428 0.7842-0.82012 0.15392-0.32584 0.23168-0.70752 0.23324-1.145 2e-3 -0.44444-0.0804-0.83016-0.24584-1.1571-0.16552-0.327-0.38672-0.5986-0.66376-0.81488-0.28396-0.21632-0.59936-0.37368-0.94624-0.47216-0.3538-0.10544-0.71472-0.1588-1.0828-0.16012zm-5.4304-17.307-4e-3 -1.276-2.2292-8e-3c-0.0486-1.8e-4 -0.0937-0.0144-0.13524-0.0422-0.0416-0.0276-0.0761-0.0732-0.10368-0.13576-0.0344-0.0626-0.0585-0.14952-0.072-0.26068-0.0136-0.11116-0.02-0.25356-0.0192-0.42716 6e-4 -0.16668 8e-3 -0.30552 0.0224-0.4166s0.0388-0.1978 0.0738-0.26012c0.028-0.0624 0.0629-0.1074 0.10464-0.13504 0.0418-0.0276 0.087-0.0414 0.13556-0.0412l2.2292 8e-3 8e-3 -2.3958c2e-4 -0.0556 0.0144-0.10412 0.0422-0.14568 0.0208-0.0485 0.0628-0.0866 0.1254-0.11416 0.0556-0.0276 0.12864-0.0482 0.219-0.0617 0.0904-0.0204 0.20148-0.0304 0.33344-0.03 0.25 8.9e-4 0.43044 0.0328 0.54132 0.0957s0.16616 0.14644 0.1658 0.2506l-9e-3 2.4062 5.2292 0.0188c0.64584 2e-3 1.1358-0.0897 1.4698-0.276 0.32708-0.18632 0.49148-0.52948 0.49328-1.0295 5.5e-4 -0.15276-0.0128-0.29172-0.0402-0.4168-0.0344-0.13208-0.0686-0.24676-0.10292-0.34412-0.0344-0.0974-0.0653-0.1808-0.0929-0.25032-0.0344-0.0765-0.0516-0.13908-0.0514-0.18768 1.5e-4 -0.0417 0.0108-0.0764 0.0316-0.10404 0.014-0.0276 0.0453-0.0485 0.094-0.0622 0.0487-0.0208 0.11472-0.0376 0.19812-0.0514 0.0834-0.0136 0.1876-0.02 0.3126-0.0196 0.2014 7.2e-4 0.36104 0.0184 0.47896 0.0538 0.11796 0.028 0.2046 0.0702 0.25996 0.12592 0.0554 0.0558 0.10716 0.1358 0.1554 0.24016 0.0482 0.10432 0.086 0.22948 0.11324 0.3754 0.0344 0.139 0.0614 0.29184 0.0817 0.45864 0.0204 0.1598 0.03 0.31612 0.0296 0.46888-2e-3 0.49304-0.0658 0.91296-0.192 1.2597-0.1332 0.34676-0.32868 0.63076-0.5864 0.85208-0.26468 0.22124-0.59512 0.38328-0.99132 0.48604-0.40312 0.0958-0.87552 0.14272-1.4172 0.14076l-5.4792-0.0196 4e-3 1.2734zm1.4317 1.276 8e-3 2.5468 8.2188 0.0296c0.0556 2e-4 0.10412 0.0144 0.14568 0.0422 0.0348 0.0276 0.0657 0.0766 0.0932 0.14616 0.0272 0.0626 0.0481 0.14948 0.0616 0.26064 0.0136 0.11116 0.02 0.25008 0.0192 0.41672-5.9e-4 0.16668-8e-3 0.30552-0.0224 0.4166s-0.0356 0.20128-0.0635 0.2706c-0.028 0.0624-0.0594 0.10744-0.0942 0.13508-0.0418 0.0276-0.0904 0.0414-0.146 0.0412l-8.2188-0.0296-5e-3 1.3229c-4e-4 0.11112-0.0562 0.19424-0.16756 0.2494-0.11132 0.0552-0.29196 0.0823-0.54196 0.0814-0.13196-4.8e-4 -0.243-8e-3 -0.33324-0.022-0.0902-0.0144-0.16308-0.0352-0.21852-0.0633-0.0624-0.028-0.10392-0.0629-0.12464-0.1046-0.0276-0.0418-0.0414-0.0904-0.0412-0.146l5e-3 -1.3229-0.96872-3e-3c-0.65276-2e-3 -1.2116-0.0634-1.6764-0.18308-0.47176-0.12668-0.85652-0.31208-1.1543-0.5562-0.29772-0.25108-0.51536-0.56436-0.65288-0.93984-0.14448-0.38248-0.2158-0.83064-0.21396-1.3445 9.2e-4 -0.25692 0.0296-0.50684 0.086-0.74968 0.0495-0.24292 0.0987-0.41632 0.14772-0.52032 0.042-0.104 0.084-0.17676 0.12576-0.21832 0.0418-0.0415 0.0975-0.0726 0.167-0.0932 0.0626-0.0272 0.14252-0.0446 0.2398-0.0512 0.0903-0.0136 0.20144-0.02 0.3334-0.0196 0.13196 4.7e-4 0.23956 8e-3 0.32284 0.022 0.0764 7e-3 0.1388 0.0212 0.18732 0.0424 0.0485 0.0208 0.0832 0.0454 0.10388 0.0733 0.014 0.0276 0.0204 0.0591 0.0204 0.0938-1.9e-4 0.0556-0.0144 0.118-0.0424 0.18732-0.0352 0.0693-0.07 0.156-0.10508 0.26004-0.042 0.104-0.0772 0.22888-0.10548 0.37464-0.0352 0.13876-0.0532 0.30188-0.0538 0.4894-9.2e-4 0.25692 0.04 0.47584 0.12264 0.65668 0.0827 0.17388 0.21416 0.31672 0.39432 0.42848 0.1732 0.11176 0.40208 0.19588 0.6866 0.25244 0.2776 0.0496 0.6178 0.0751 1.0206 0.0766l1.0208 4e-3 -8e-3 -2.5521zm6.884-11.921c-0.27204-0.4112 0.8226 0.0863 0.98868 0.25356 0.15916 0.16028 0.23796 0.45572 0.23644 0.88628-2e-3 0.41668-0.0824 0.70456-0.24268 0.86372s-0.48004 0.23788-0.9592 0.23616c-0.49304-2e-3 -0.81916-0.0828-0.97832-0.24308-0.16608-0.16728-0.24832-0.46616-0.2468-0.89672 2e-3 -0.41664 0.0824-0.70456 0.24268-0.86372s1.2235 0.16348 0.9592-0.23612z" stroke="#000" stroke-linecap="square" stroke-miterlimit="0" stroke-width=".6"/>
	<path aria-label="BEDROOM" d="m367.11 561.91q0 0.55652-0.2738 0.98268-0.2738 0.4262-0.7366 0.70192-0.54756 0.3308-1.206 0.47132-0.65188 0.1404-1.6622 0.1404h-3.4418v-7.4656h2.8747q1.0626 0 1.5906 0.0604 0.528 0.06 1.0104 0.2508 0.53452 0.2152 0.77572 0.55652 0.2412 0.336 0.2412 0.8072 0 0.53144-0.352 0.90752-0.352 0.3712-0.93868 0.5966v0.04q0.98432 0.1552 1.5514 0.6668 0.56712 0.50644 0.56712 1.2836zm-2.1707-3.3642q0-0.2708-0.11736-0.45624-0.11736-0.1856-0.37804-0.3012-0.30636-0.1356-0.74312-0.1656-0.43676-0.036-1.0821-0.036h-1.5384v2.1559h1.6688q0.60624 0 0.96476-0.0452 0.35852-0.05 0.66488-0.2008 0.30636-0.1504 0.43024-0.386 0.13036-0.2408 0.13036-0.56656zm0.82788 3.4044q0-0.45124-0.176-0.717-0.176-0.2656-0.63884-0.4512-0.31288-0.1252-0.76268-0.1604-0.44328-0.04-1.0821-0.04h-2.0273v2.7776h1.7079q0.84744 0 1.3885-0.0652 0.54104-0.07 0.88652-0.2508 0.36504-0.1952 0.53452-0.44624 0.16948-0.2508 0.16948-0.64676zm9.5692 2.2562h-6.3948v-7.4656h6.3948v0.88244h-5.104v2.0456h5.104v0.88244h-5.104v2.7726h5.104zm10.247-3.7252q0 1.0178-0.58016 1.845-0.57364 0.82728-1.5319 1.2836-0.66488 0.3156-1.4862 0.45624-0.81484 0.1404-2.1512 0.1404h-2.451v-7.4656h2.4249q1.4211 0 2.2554 0.1604 0.84088 0.1552 1.421 0.43116 0.99084 0.47632 1.5449 1.2685 0.55408 0.79216 0.55408 1.8802zm-1.3494-0.016q0-0.8774-0.39764-1.479-0.39764-0.60168-1.1864-0.94764-0.57364-0.2508-1.219-0.346-0.64536-0.1004-1.5449-0.1004h-1.2125v5.7608h1.2125q0.93216 0 1.6231-0.1052 0.69748-0.1052 1.2776-0.3912 0.72356-0.356 1.0821-0.93756 0.36504-0.5816 0.36504-1.454zm11.466 3.7403h-1.6753l-3.2463-2.9682h-1.8187v2.9682h-1.2907v-7.4656h2.7183q0.88 0 1.4667 0.09 0.58668 0.0852 1.056 0.3108 0.528 0.2556 0.82132 0.64676 0.3 0.386 0.3 0.98272 0 0.80724-0.528 1.3537-0.528 0.54152-1.4536 0.81728zm-3.0181-5.3648q0-0.3212-0.15-0.56656-0.1436-0.2508-0.4824-0.42116-0.2804-0.1452-0.66488-0.2008-0.3848-0.06-0.90608-0.06h-1.5188v2.8178h1.3037q0.61276 0 1.069-0.0804 0.45632-0.0852 0.77572-0.3108 0.2932-0.2104 0.43024-0.48136 0.1432-0.2756 0.1432-0.69688zm11.505-1.2434q0.5932 0.5014 0.90608 1.2284 0.3192 0.72704 0.3192 1.6496t-0.326 1.6545q-0.3192 0.72704-0.89956 1.2134-0.59972 0.5064-1.4211 0.76212-0.8148 0.2556-1.8643 0.2556-1.0234 0-1.8643-0.2608-0.83436-0.2608-1.421-0.75712-0.58668-0.49636-0.90612-1.2183-0.3128-0.722-0.3128-1.6495 0-0.91252 0.3128-1.6345 0.3128-0.727 0.91264-1.2434 0.57364-0.49136 1.421-0.75208 0.85396-0.2608 1.8578-0.2608 1.043 0 1.8708 0.2656 0.8344 0.2608 1.4146 0.74704zm-0.1172 2.8779q0-1.454-0.8474-2.2412-0.84744-0.79216-2.3141-0.79216-1.4797 0-2.3272 0.79216-0.84088 0.78716-0.84088 2.2412 0 1.469 0.86044 2.2512 0.86044 0.77712 2.3076 0.77712 1.4471 0 2.3011-0.77712 0.86044-0.78216 0.86044-2.2512zm10.625-2.8779q0.5932 0.5014 0.90608 1.2284 0.3196 0.72704 0.3196 1.6496t-0.326 1.6545q-0.3196 0.72704-0.89956 1.2134-0.59972 0.5064-1.4211 0.76212-0.8148 0.2556-1.8643 0.2556-1.0234 0-1.8643-0.2608-0.8344-0.2608-1.421-0.75712-0.58668-0.49636-0.90612-1.2183-0.3128-0.722-0.3128-1.6495 0-0.91252 0.3128-1.6345 0.3128-0.727 0.9126-1.2434 0.57364-0.49136 1.4211-0.75208 0.85392-0.2608 1.8578-0.2608 1.043 0 1.8708 0.2656 0.8344 0.2608 1.4146 0.74704zm-0.1172 2.8779q0-1.454-0.8474-2.2412-0.84744-0.79216-2.3141-0.79216-1.4797 0-2.3272 0.79216-0.84092 0.78716-0.84092 2.2412 0 1.469 0.86048 2.2512 0.86044 0.77712 2.3076 0.77712 1.4471 0 2.3011-0.77712 0.86044-0.78216 0.86044-2.2512zm12.033 3.7302h-1.2907v-6.4328l-2.6987 4.3768h-0.76916l-2.6792-4.3768v6.4328h-1.206v-7.4656h1.76l2.5879 4.1564 2.5032-4.1564h1.7926z" stroke="#000" stroke-linecap="square" stroke-miterlimit="0" stroke-width=".52688"/>
	<path aria-label="BEDROOM" d="m366.77 700.11q0 0.55652-0.2738 0.98268t-0.7366 0.70196q-0.54756 0.3308-1.206 0.47124-0.65188 0.1404-1.6622 0.1404h-3.4418v-7.4656h2.8747q1.0625 0 1.5906 0.06 0.528 0.0604 1.0104 0.2508 0.53452 0.2156 0.77572 0.55652 0.2412 0.336 0.2412 0.80724 0 0.53148-0.352 0.90748-0.352 0.3712-0.93868 0.59664v0.04q0.98432 0.1552 1.5514 0.66684 0.56712 0.50636 0.56712 1.2835zm-2.1707-3.3642q0-0.2708-0.11736-0.45628-0.11736-0.1856-0.37804-0.3008-0.30636-0.1356-0.74312-0.1656-0.43676-0.036-1.0821-0.036h-1.5384v2.1559h1.6688q0.60624 0 0.96476-0.0452 0.35852-0.05 0.66488-0.2008 0.30636-0.1504 0.43024-0.386 0.13036-0.2408 0.13036-0.56652zm0.82788 3.4043q0-0.45124-0.176-0.71696-0.176-0.2656-0.6388-0.45124-0.31288-0.1252-0.76268-0.1604-0.44328-0.04-1.0821-0.04h-2.0273v2.7776h1.7079q0.84744 0 1.3885-0.0652 0.54104-0.07 0.88652-0.2508 0.36504-0.1952 0.53452-0.4462 0.16948-0.2508 0.16948-0.6468zm9.5692 2.2562h-6.3948v-7.4656h6.3948v0.8824h-5.104v2.0456h5.104v0.88244h-5.104v2.7726h5.104zm10.247-3.7252q0 1.0178-0.58016 1.845-0.57364 0.82728-1.5319 1.2835-0.66488 0.3156-1.4862 0.45624-0.81484 0.1404-2.1512 0.1404h-2.451v-7.4656h2.4249q1.4211 0 2.2554 0.1604 0.84088 0.1552 1.421 0.4312 0.99084 0.47628 1.5449 1.2685t0.55408 1.8802zm-1.3494-0.016q0-0.8774-0.39764-1.4791-0.39764-0.60164-1.1864-0.9476-0.57364-0.2508-1.219-0.346-0.64536-0.1004-1.5449-0.1004h-1.2125v5.7608h1.2125q0.93216 0 1.6231-0.1052 0.69748-0.1052 1.2776-0.3912 0.72356-0.356 1.0821-0.9376 0.36504-0.58156 0.36504-1.454zm11.466 3.7403h-1.6753l-3.2463-2.9682h-1.8187v2.9682h-1.2907v-7.4656h2.7183q0.88 0 1.4667 0.09 0.58668 0.0852 1.056 0.3108 0.528 0.2556 0.82132 0.6468 0.3 0.386 0.3 0.98272 0 0.8072-0.528 1.3537-0.528 0.54152-1.4536 0.81728zm-3.0181-5.3648q0-0.3212-0.15-0.56656-0.1432-0.2508-0.48236-0.42116-0.2804-0.1452-0.66492-0.2008-0.3848-0.0604-0.90608-0.0604h-1.5188v2.8178h1.3037q0.61276 0 1.069-0.0804 0.45632-0.0852 0.77572-0.3108 0.2932-0.2104 0.43024-0.48132 0.1432-0.2756 0.1432-0.69692zm11.505-1.2434q0.5932 0.50144 0.90608 1.2284 0.3192 0.727 0.3192 1.6496 0 0.92252-0.326 1.6545-0.3196 0.727-0.89956 1.2133-0.59972 0.50644-1.4211 0.76212-0.8148 0.2556-1.8643 0.2556-1.0234 0-1.8643-0.2608-0.83436-0.2608-1.421-0.75708-0.58668-0.49636-0.90608-1.2184-0.3128-0.722-0.3128-1.6495 0-0.91252 0.3128-1.6345 0.3128-0.727 0.9126-1.2434 0.57364-0.49132 1.421-0.75204 0.85396-0.2608 1.8578-0.2608 1.043 0 1.8709 0.2656 0.83436 0.2608 1.4145 0.747zm-0.1172 2.878q0-1.454-0.8474-2.2412-0.84744-0.7922-2.3141-0.7922-1.4797 0-2.3272 0.7922-0.84088 0.78712-0.84088 2.2412 0 1.469 0.86044 2.2512 0.86048 0.77712 2.3076 0.77712t2.3011-0.77712q0.86044-0.78216 0.86044-2.2512zm10.625-2.878q0.5932 0.50144 0.90608 1.2284 0.3192 0.727 0.3192 1.6496 0 0.92252-0.326 1.6545-0.3192 0.727-0.89956 1.2133-0.59972 0.50644-1.421 0.76212-0.81484 0.2556-1.8644 0.2556-1.0234 0-1.8643-0.2608-0.83436-0.2608-1.421-0.75708-0.58668-0.49636-0.90608-1.2184-0.3128-0.722-0.3128-1.6495 0-0.91252 0.3128-1.6345 0.3128-0.727 0.9126-1.2434 0.57364-0.49132 1.421-0.75204 0.85396-0.2608 1.8578-0.2608 1.043 0 1.8709 0.2656 0.83436 0.2608 1.4145 0.747zm-0.1172 2.878q0-1.454-0.8474-2.2412-0.84744-0.7922-2.3141-0.7922-1.4797 0-2.3272 0.7922-0.84088 0.78712-0.84088 2.2412 0 1.469 0.86044 2.2512 0.86048 0.77712 2.3076 0.77712t2.3011-0.77712q0.86044-0.78216 0.86044-2.2512zm12.034 3.7302h-1.2907v-6.4328l-2.6987 4.3772h-0.7692l-2.6792-4.3772v6.4328h-1.206v-7.4656h1.76l2.5879 4.1564 2.5032-4.1564h1.7926z" stroke="#000" stroke-linecap="square" stroke-miterlimit="0" stroke-width=".52688"/>
	<path aria-label="SITTING ROOM" d="m371.26 845.27q0 0.4362-0.26728 0.86236-0.26076 0.4262-0.7366 0.722-0.52148 0.3208-1.219 0.50136-0.69096 0.1808-1.6688 0.1808-1.0495 0-1.8904-0.1504-0.8344-0.1504-1.7014-0.4462v-1.2434h0.0913q0.7366 0.47132 1.7014 0.727 0.96476 0.2556 1.8122 0.2556 1.1994 0 1.8643-0.346 0.6714-0.346 0.6714-0.92252 0-0.49636-0.3194-0.732-0.31288-0.2356-0.95824-0.366-0.48888-0.1004-1.0625-0.1656-0.56712-0.0652-1.206-0.1656-1.2907-0.2104-1.9165-0.71696-0.61928-0.5114-0.61928-1.3287 0-0.93756 1.0299-1.5342 1.03-0.60168 2.614-0.60168 1.0234 0 1.8774 0.1504 0.85396 0.1504 1.5123 0.3708v1.1732h-0.0913q-0.55408-0.3608-1.4602-0.59664-0.89956-0.2408-1.8448-0.2408-1.0365 0-1.6688 0.3308-0.6258 0.3308-0.6258 0.85232 0 0.46628 0.31288 0.732 0.31288 0.2656 1.1016 0.40612 0.4172 0.07 1.1864 0.1704t1.3037 0.2056q1.0821 0.2208 1.6296 0.66684 0.54756 0.4462 0.54756 1.2484zm5.4952 2.1309h-3.833v-0.76212h1.2711v-5.9412h-1.2711v-0.76212h3.833v0.76212h-1.2711v5.9412h1.2711zm9.1196-6.5832h-3.4679v6.5832h-1.2907v-6.5832h-3.4679v-0.88248h8.2264zm7.7704 0h-3.4679v6.5832h-1.2907v-6.5832h-3.4679v-0.88248h8.2264zm4.726 6.5832h-3.833v-0.76212h1.2711v-5.9412h-1.2711v-0.76212h3.833v0.76212h-1.2711v5.9412h1.2711zm9.602 0h-1.597l-4.602-6.6784v6.6784h-1.206v-7.4656h2.0012l4.198 6.0968v-6.0968h1.206zm10.678-0.55156q-0.79528 0.2808-1.7405 0.4914-0.93868 0.2056-1.8187 0.2056-1.1342 0-2.0794-0.2408t-1.6101-0.722q-0.67144-0.48632-1.0365-1.2133-0.3652-0.73204-0.3652-1.7097 0-1.79 1.3559-2.8228 1.3624-1.0378 3.7352-1.0378 0.82788 0 1.6883 0.1552 0.86696 0.1504 1.8643 0.51644v1.1782h-0.1172q-0.202-0.1204-0.58668-0.3156-0.3844-0.1956-0.75616-0.326-0.4498-0.1552-1.0234-0.2556-0.56712-0.1052-1.2907-0.1052-1.6297 0-2.5814 0.80724-0.9452 0.80216-0.9452 2.176 0 1.449 0.99084 2.2562 0.99084 0.8022 2.6987 0.8022 0.62576 0 1.245-0.0952 0.6258-0.0952 1.0951-0.2456v-1.83h-2.6009v-0.8724h3.8786zm14.98 0.55156h-1.6753l-3.2463-2.9682h-1.8187v2.9682h-1.2907v-7.4656h2.7182q0.88004 0 1.4667 0.09 0.58668 0.0852 1.056 0.3108 0.528 0.2556 0.82136 0.64676 0.3 0.386 0.3 0.98272 0 0.8072-0.52804 1.3537-0.528 0.54144-1.4536 0.81724zm-3.0181-5.3648q0-0.3208-0.15-0.56656-0.1432-0.2508-0.48236-0.42116-0.2804-0.1452-0.66492-0.2008-0.3844-0.06-0.90608-0.06h-1.5188v2.8177h1.3037q0.61276 0 1.0691-0.0804 0.45628-0.0852 0.77568-0.3108 0.2932-0.2104 0.43024-0.48128 0.1432-0.2756 0.1432-0.69692zm11.506-1.2434q0.59316 0.50136 0.90608 1.2284 0.3196 0.727 0.3196 1.6495t-0.326 1.6546q-0.3192 0.72696-0.89956 1.2133-0.59972 0.5064-1.4211 0.76208-0.81484 0.2556-1.8643 0.2556-1.0234 0-1.8643-0.2608-0.8344-0.2608-1.4211-0.75708-0.58668-0.49636-0.90608-1.2184-0.3128-0.722-0.3128-1.6496 0-0.91248 0.3128-1.6344 0.3128-0.727 0.9126-1.2434 0.57364-0.49132 1.4211-0.75204 0.85392-0.2608 1.8578-0.2608 1.043 0 1.8708 0.2656 0.8344 0.2608 1.4146 0.74704zm-0.1172 2.8779q0-1.454-0.84744-2.2412-0.8474-0.79216-2.3141-0.79216-1.4797 0-2.3271 0.79216-0.84092 0.78716-0.84092 2.2412 0 1.469 0.86048 2.2512 0.86044 0.77716 2.3076 0.77716 1.4472 0 2.3011-0.77716 0.86048-0.78212 0.86048-2.2512zm10.625-2.8779q0.5932 0.50136 0.90608 1.2284 0.3192 0.727 0.3192 1.6495t-0.326 1.6546q-0.3192 0.72696-0.89956 1.2133-0.59972 0.5064-1.421 0.76208-0.81488 0.2556-1.8644 0.2556-1.0234 0-1.8643-0.2608-0.8344-0.2608-1.4211-0.75708-0.58668-0.49636-0.90608-1.2184-0.3128-0.722-0.3128-1.6496 0-0.91248 0.3128-1.6344 0.3128-0.727 0.9126-1.2434 0.57364-0.49132 1.4211-0.75204 0.85396-0.2608 1.8578-0.2608 1.043 0 1.8709 0.2656 0.83436 0.2608 1.4145 0.74704zm-0.1172 2.8779q0-1.454-0.84744-2.2412-0.84744-0.79216-2.3141-0.79216-1.4798 0-2.3272 0.79216-0.84092 0.78716-0.84092 2.2412 0 1.469 0.86044 2.2512 0.86048 0.77716 2.3076 0.77716 1.4471 0 2.301-0.77716 0.86048-0.78212 0.86048-2.2512zm12.033 3.7303h-1.2907v-6.4328l-2.6987 4.3772h-0.76916l-2.6792-4.3772v6.4328h-1.206v-7.4656h1.76l2.5879 4.1564 2.5031-4.1564h1.7926z" stroke="#000" stroke-linecap="square" stroke-miterlimit="0" stroke-width=".52688"/>
	<path aria-label="VAULT" d="m248.93 102.69 11.094 5.14 0.0208 2.5476-11.009 5.3208-0.0168-2.0458 9.6864-4.586-9.76-4.4272zm10.946-13.022 0.0168 2.0362-3.0688 1.4341 0.0508 6.2148 3.0918 1.3838 0.016 1.9397-11.094-5.14-0.0208-2.5476zm-4.3092 4.0692-5.4052 2.563 5.4464 2.484zm-0.2348-16.935q1.2024-0.01 2.1034 0.33024 0.89344 0.33052 1.4936 1.1073 0.57016 0.73844 0.83808 1.7303t0.27872 2.3139q0.0112 1.351-0.2554 2.3569-0.26644 1.0058-0.79524 1.6954-0.60224 0.78664-1.4604 1.1411-0.85824 0.3448-2.1126 0.35504l-6.6132 0.054-0.0156-1.9107 6.6876-0.0546q0.89812-7e-3 1.4164-0.16596 0.51824-0.16828 0.93824-0.54812 0.479-0.42856 0.718-1.1543 0.23892-0.7354 0.2306-1.7583-8e-3 -1.0326-0.25188-1.7544-0.25084-0.72176-0.74428-1.152-0.42616-0.37292-0.96924-0.52288-0.5506-0.15956-1.3596-0.15296l-6.7248 0.0549-0.0156-1.9107zm4.3344-12.774 0.0742 9.0904-11.052 0.0902-0.0156-1.9107 9.7456-0.0796-0.0586-7.1796zm-9.8316-10.439 0.0419 5.134 9.7456-0.0796 0.0156 1.9107-9.7456 0.0796 0.0419 5.134-1.3063 0.0108-0.0994-12.178z" stroke="#000" stroke-linecap="square" stroke-miterlimit="0" stroke-width=".52688"/>
</svg>
