<?xml version="1.0" encoding="UTF-8"?>
<svg version="1.1" viewBox="0 0 20 42" xml:space="preserve" xmlns="http://www.w3.org/2000/svg">
	<title>A floor plan with an irregular outline is divided into many small rooms. Some rooms adjacent to outside walls are marked as light. Other rooms are marked as dark. Four rooms show stairways and two of these are marked as halls.</title>
	<path d="m12.472 7.0295 2e-3 0.40566-0.64121 0.00309-4.12e-4 -0.085265 0.56542-0.00273-0.0015-0.32039z" stroke="#000" stroke-linecap="square" stroke-width=".03" aria-label="L"/><path d="m2.1896 7.1386-0.82174 0.29814zm0.084557 0.21326-0.83292 0.30399zm0.084972 0.20186-0.8042 0.2923z" stroke="#000" stroke-linecap="square" stroke-width=".05"/><path d="m4.7855 6.1915-1.2368 0.46185zm0.084557 0.21326-1.248 0.46769zm0.087039 0.2184-1.2255 0.44773z" stroke="#000" stroke-linecap="square" stroke-width=".05"/><path d="m4.3642 13.514h0.64906m-0.6666 2.2568h0.66973m-0.66117-0.2012 0.678-0.0041m-0.66317-0.19811h0.66973m-0.68727-0.21632h0.66973m-0.65532-0.20947 0.65319 0.0041m-0.6562-0.20876h0.66973m-0.67741-0.21361 0.67386 0.0083m-0.68343-0.21077h0.66973m-0.6405-0.18709 0.64906 0.0041m-0.68414-0.22627h0.66973m-0.64463-0.20906 0.66146 0.0041m0.14679-0.5988 0.00585 2.8356m0.14616-1.9703-0.013413-0.97046s-0.028168-0.07546-0.067382-0.09803c-0.044118-0.0254-0.10817-0.02633-0.15272-0.0017-0.037998 0.02101-0.070097 0.09248-0.070097 0.09248l0.013699 3.0471 0.073583 0.12892 0.13754-0.0055 0.07565-0.11971-0.00342-1.1559m-0.9788-1.5868h0.66973" fill="none" stroke="#000" stroke-linecap="square" stroke-width=".03"/><path d="m15.573 12.193-0.81881 4.7e-4m0.83635 2.2563-0.83948 4.7e-4m0.83092-0.2017-0.84775-0.0036m0.83292-0.19861-0.83948 4.7e-4m0.85702-0.21682-0.83948 4.7e-4m0.82507-0.20997-0.82294 0.0046m0.82595-0.20926-0.83948 4.7e-4m0.84716-0.21411-0.84361 0.0088m0.85318-0.21127-0.83948 4.7e-4m0.81025-0.18759-0.81881 0.0046m0.85389-0.22677-0.83948 4.7e-4m0.81438-0.20956-0.83121 0.0046m-0.14679-0.5988-0.0058 2.8356m-0.14616-1.9703-4e-3 -1.1987 0.31395 3.33e-4 -0.0084 3.3233s-0.04004 0.09612-0.07358 0.13184c-0.03188 0.03396-0.10415 0.03629-0.13961 0.0061-0.04032-0.03433-0.07358-0.13418-0.07358-0.13418l-0.0083-1.2114m1.1486-1.5873-0.83948 4.7e-4" fill="none" stroke="#000" stroke-linecap="square" stroke-width=".03"/><path d="m14.122 26.103 0.0076 0.81276m-2.3521-0.83584 0.0076 0.86558m0.19355-0.85757 0.01172 0.84169m0.20215-0.82741 0.0076 0.83343m0.2086-0.85156 0.0076 0.84804m0.20476-0.82251 0.0035 0.8169m0.1982-0.83216 0.0076 0.83343m0.20884-0.84169 0.0052 0.84636m0.20306-0.8477 0.0076 0.83343m0.21458-0.82517 0.0035 0.81277m0.2244-0.82507 0.0076 0.83343m0.2073-0.81182 0.0035 0.82517m0.64012 0.14808-2.8355 0.01351m1.9707 0.14079s1.2382 0.0071 1.263-7e-3c0.04673-0.02657 0.07276-0.09056 0.07492-0.14428 0.0021-0.05236-0.04187-0.15151-0.04187-0.15151s-2.343 0.0075-3.4801 0.01565c0 0-0.10485 0.03059-0.12872 0.07393-0.02213 0.04019-0.01715 0.09785 0.0059 0.13752 0.02372 0.04081 0.11991 0.07532 0.11991 0.07532l1.2699-0.0037m1.5607-1.1381 0.0076 0.83343" fill="none" stroke="#000" stroke-linecap="square" stroke-width=".03"/><path d="m11.567 33.718-6.68e-4 0.90371m-2.3802-0.9399 0.011734 0.95745m0.19769-0.93704 0.00345 0.93264m0.23451-0.92834-6.682e-4 0.92438m0.21829-0.91599-6.682e-4 0.92438m0.21424-0.93535-0.0048 0.90785m0.23813-0.89075-0.0048 0.90371m0.24333-0.9161-0.0089 0.91614m0.232-0.91385-0.0048 0.91611m0.20844-0.9246 0.0035 0.92026m0.20223-0.94354-0.0048 0.94505m0.20901-0.92002-0.0048 0.91612m0.46741 0.15292-2.8355 0.01351m1.9707 0.14079s1.2382 0.0071 1.263-7e-3c0.04673-0.02657 0.07276-0.09056 0.07492-0.14428 0.0021-0.05236-0.04187-0.15151-0.04187-0.15151s-2.343 0.0075-3.4801 0.01565c0 0-0.10485 0.03059-0.12872 0.07393-0.02213 0.04019-0.01715 0.09785 0.0059 0.13752 0.02372 0.04081 0.11991 0.07532 0.11991 0.07532l1.2699-0.0037m-1.1089-1.2378 0.011731 0.94092" fill="none" stroke="#000" stroke-linecap="square" stroke-width=".03"/><path d="m6.6545 5.5015-0.82174 0.29814zm0.084557 0.21326-0.83292 0.30399zm0.084972 0.20186-0.8042 0.2923z" stroke="#000" stroke-linecap="square" stroke-width=".05"/><path d="m9.0436 4.6205-1.2368 0.46185zm0.084557 0.21326-1.248 0.46769zm0.087039 0.2184-1.2255 0.44773z" stroke="#000" stroke-linecap="square" stroke-width=".05"/><path d="m11.291 3.7943-1.0965 0.40923zm0.08456 0.21326-1.1077 0.41507zm0.08497 0.20186-1.079 0.40338z" stroke="#000" stroke-linecap="square" stroke-width=".05"/><path d="m13.528 2.9393-1.0965 0.40923zm0.08456 0.21326-1.1077 0.41507zm0.08497 0.20186-1.079 0.40338z" stroke="#000" stroke-linecap="square" stroke-width=".05"/><path d="m15.925 2.0623-1.0965 0.40923zm0.08456 0.21326-1.1077 0.41507zm0.08497 0.20186-1.079 0.40338z" stroke="#000" stroke-linecap="square" stroke-width=".05"/><path d="m18.156 1.2229-1.0965 0.40923zm0.08456 0.21326-1.1077 0.41507zm0.08497 0.20186-1.079 0.40338z" stroke="#000" stroke-linecap="square" stroke-width=".05"/><path d="m19.013 2.9831 0.01139 1.0991zm0.24826 0.032019 9e-3 1.0845zm0.24575 0.00308-3.05e-4 1.0757z" stroke="#000" stroke-linecap="square" stroke-width=".05"/><path d="m19.01 11.109 0.0052 1.097zm0.24206 0.02995 9e-3 1.0845zm0.24575 0.0031-3.05e-4 1.0757z" stroke="#000" stroke-linecap="square" stroke-width=".05"/><path d="m18.98 14.194 0.01139 1.0991zm0.24826 0.03202 9e-3 1.0845zm0.24575 0.0031-3.05e-4 1.0757z" stroke="#000" stroke-linecap="square" stroke-width=".05"/><path d="m18.972 16.377 0.01139 1.0991zm0.24826 0.03202 9e-3 1.0845zm0.24575 0.0031-3.05e-4 1.0757z" stroke="#000" stroke-linecap="square" stroke-width=".05"/><path d="m18.97 19.483 0.01139 1.0991zm0.24826 0.03202 9e-3 1.0845zm0.24575 0.0031-3.05e-4 1.0757z" stroke="#000" stroke-linecap="square" stroke-width=".05"/><path d="m18.97 21.728 0.01139 1.0991zm0.24826 0.03202 9e-3 1.0845zm0.24575 0.0031-3.05e-4 1.0757z" stroke="#000" stroke-linecap="square" stroke-width=".05"/><path d="m18.949 26.695 0.01139 1.0991zm0.24826 0.03202 9e-3 1.0845zm0.24575 0.0031-3.05e-4 1.0757z" stroke="#000" stroke-linecap="square" stroke-width=".05"/><path d="m18.967 24.093 0.01139 1.0991zm0.24826 0.03202 9e-3 1.0845zm0.24575 0.0031-3.05e-4 1.0757z" stroke="#000" stroke-linecap="square" stroke-width=".05"/><path d="m18.938 29.045 0.01139 1.0991zm0.24826 0.03202 9e-3 1.0845zm0.24575 0.0031-3.05e-4 1.0757z" stroke="#000" stroke-linecap="square" stroke-width=".05"/><path d="m18.938 31.313 0.01139 1.0991zm0.24826 0.03202 9e-3 1.0845zm0.24575 0.0031-3.05e-4 1.0757z" stroke="#000" stroke-linecap="square" stroke-width=".05"/><path d="m18.937 34.177 0.0073 1.1777zm0.24826 0.03202 0.0049 1.163zm0.24575 0.0031-0.0044 1.1543z" stroke="#000" stroke-linecap="square" stroke-width=".05"/><path d="m18.925 36.645 0.0073 1.1777zm0.24826 0.03202 0.0049 1.163zm0.24575 0.0031-0.0044 1.1543z" stroke="#000" stroke-linecap="square" stroke-width=".05"/><path d="m18.905 39.185 0.01139 1.0991zm0.24826 0.03202 9e-3 1.0845zm0.24575 0.0031-3.05e-4 1.0757z" stroke="#000" stroke-linecap="square" stroke-width=".05"/><path d="m1.136 34.057 0.0073 1.1777zm0.24826 0.03202 0.0049 1.163zm0.24575 0.0031-0.0044 1.1543z" stroke="#000" stroke-linecap="square" stroke-width=".05"/><path d="m1.1411 36.612 0.0073 1.1777zm0.24826 0.03202 0.0049 1.163zm0.24575 0.0031-0.0044 1.1543z" stroke="#000" stroke-linecap="square" stroke-width=".05"/><path d="m1.1504 39.105 0.01139 1.0991zm0.24826 0.03202 9e-3 1.0845zm0.24575 0.0031-3.05e-4 1.0757z" stroke="#000" stroke-linecap="square" stroke-width=".05"/><path d="m6.8188 26.655 0.0073 1.1777zm0.24826 0.03202 0.0049 1.163zm0.24575 0.0031-0.0044 1.1543z" stroke="#000" stroke-linecap="square" stroke-width=".05"/><path d="m6.8181 29.105 0.0073 1.1777zm0.24826 0.03202 0.0049 1.163zm0.24575 0.0031-0.0044 1.1543z" stroke="#000" stroke-linecap="square" stroke-width=".05"/><path d="m6.8098 31.423 0.01139 1.0991zm0.24826 0.03202 9e-3 1.0845zm0.24575 0.0031-3.05e-4 1.0757z" stroke="#000" stroke-linecap="square" stroke-width=".05"/><path d="m12.504 36.794 0.0073 1.0206zm0.16972-0.0011 0.0049 1.0349zm0.16307-1e-3 -2.65e-4 1.022z" stroke="#000" stroke-linecap="square" stroke-width=".05"/><path d="m12.496 38.481 0.0073 1.0206zm0.16972-0.0011 0.0049 1.0349zm0.16307-1e-3 -2.65e-4 1.022z" stroke="#000" stroke-linecap="square" stroke-width=".05"/><path d="m6.9812 38.407 0.0073 1.0206zm0.16972-0.0011 0.0049 1.0349zm0.16307-1e-3 -2.65e-4 1.022z" stroke="#000" stroke-linecap="square" stroke-width=".05"/><path d="m6.9812 36.72 0.0073 1.0206zm0.16972-0.0011 0.0049 1.0349zm0.16307-1e-3 -2.65e-4 1.022z" stroke="#000" stroke-linecap="square" stroke-width=".05"/><path d="m11.728 31.11 0.0073 1.0702zm0.16972-0.0011 0.0049 1.0845zm0.16307-1e-3 -2.65e-4 1.0716z" stroke="#000" stroke-linecap="square" stroke-width=".05"/><path d="m14.591 29.601 0.01144 1.0454zm0.14491 0.01127 0.0049 1.0184zm0.1424 0.0031-2.65e-4 1.022z" stroke="#000" stroke-linecap="square" stroke-width=".05"/><path d="m13.521 23.751 0.0073 1.0702zm0.16972-0.0011 0.0049 1.0845zm0.16307-1e-3 -2.65e-4 1.0716z" stroke="#000" stroke-linecap="square" stroke-width=".05"/><path d="m13.508 22.056 0.0073 1.0702zm0.16972-0.0011 0.0049 1.0845zm0.16307-1e-3 -2.65e-4 1.0716z" stroke="#000" stroke-linecap="square" stroke-width=".05"/><path d="m13.508 18.608 0.0073 1.0702zm0.16972-0.0011 0.0049 1.0845zm0.16307-1e-3 -2.65e-4 1.0716z" stroke="#000" stroke-linecap="square" stroke-width=".05"/><path d="m13.524 16.963 0.0073 1.0702zm0.16972-0.0011 0.0049 1.0845zm0.16307-1e-3 -2.65e-4 1.0716z" stroke="#000" stroke-linecap="square" stroke-width=".05"/><path d="m14.204 36.044-1.0701 0.01669zm0.0026 0.1697-1.0844 0.01442zm0.0024 0.16305-1.0716 0.0091z" stroke="#000" stroke-linecap="square" stroke-width=".05"/><path d="m18.348 36.02-1.0702 0.0077zm0.0012 0.16972-1.0845 0.0053zm1e-3 0.16307-1.0716 4.8e-5z" stroke="#000" stroke-linecap="square" stroke-width=".05"/><path d="m6.8735 36.006-1.0702 0.0077zm0.0012 0.16972-1.0845 0.0053zm1e-3 0.16307-1.0716 4.8e-5z" stroke="#000" stroke-linecap="square" stroke-width=".05"/><path d="m3.1936 36.022-1.0702 0.0077zm0.0012 0.16972-1.0845 0.0053zm1e-3 0.16307-1.0716 4.8e-5z" stroke="#000" stroke-linecap="square" stroke-width=".05"/><path d="m8.9772 28.655-1.2923-4e-3zm0.0012 0.16972-1.3067-0.0064zm1e-3 0.16307-1.2938-0.01165z" stroke="#000" stroke-linecap="square" stroke-width=".05"/><path d="m11.59 28.676-0.88306-4e-3zm0.0012 0.16972-0.89739-0.0064zm1e-3 0.16307-0.88449-0.01165z" stroke="#000" stroke-linecap="square" stroke-width=".05"/><path d="m2.9352 22.313-1.2221-0.0081zm-0.011202 0.30201-1.2116-0.0064zm0.013402 0.22921-1.2152 7.53e-4z" stroke="#000" stroke-linecap="square" stroke-width=".05"/><path d="m5.2337 22.338-1.2221-0.0081zm-0.011202 0.30201-1.2116-0.0064zm0.013402 0.22921-1.2152 7.53e-4z" stroke="#000" stroke-linecap="square" stroke-width=".05"/><path d="m7.3215 22.342-1.2014-4e-3zm-0.01947 0.2772-1.1248 0.0019zm9.997e-4 0.23335-1.1408-0.0034z" stroke="#000" stroke-linecap="square" stroke-width=".05"/><path d="m9.1806 22.33-1.2014-4e-3zm-0.01947 0.2772-1.1248 0.0019zm9.997e-4 0.23335-1.1408-0.0034z" stroke="#000" stroke-linecap="square" stroke-width=".05"/><path d="m15.954 25.704-0.94445-0.0098zm7e-3 0.21064-0.95293-5.53e-4zm0.0039 0.18353-0.96634-0.0087z" stroke="#000" stroke-linecap="square" stroke-width=".05"/><path d="m15.865 28.638-0.88306-4e-3zm0.0136 0.13664-0.89739-0.0064zm-0.01554 0.1424-0.88449-0.01165z" stroke="#000" stroke-linecap="square" stroke-width=".05"/><path d="m18.572 28.643-0.8934 0.0043zm0.0136 0.13664-0.90772 0.0019zm-0.02174 0.13413-0.89482-0.0034z" stroke="#000" stroke-linecap="square" stroke-width=".05"/><path d="m9.5959 22.958-9.682e-4 1.1405zm0.16972-0.0011-0.00337 1.1548zm0.16307-1e-3 -0.00853 1.1419z" stroke="#000" stroke-linecap="square" stroke-width=".05"/><path d="m15.032 15.942-0.99122 0.01062zm0.0012 0.16972-1.0055 0.0082zm1e-3 0.16307-0.99265 3e-3z" stroke="#000" stroke-linecap="square" stroke-width=".05"/><path d="m18.985 15.928-1.1929 0.01062zm0.0012 0.16972-1.2073 0.0082zm1e-3 0.16307-1.1944 3e-3z" stroke="#000" stroke-linecap="square" stroke-width=".05"/><path d="m7.9361 16.958-0.69975-0.0036zm0.0012 0.16972-0.71408-6e-3zm1e-3 0.16307-0.70118-0.0113z" stroke="#000" stroke-linecap="square" stroke-width=".05"/><path d="m6.3499 16.964-0.51719 1.34e-4zm0.0012 0.16972-0.53152-0.0023zm1e-3 0.16307-0.51862-0.0075z" stroke="#000" stroke-linecap="square" stroke-width=".05"/><path d="m5.397 16.976-0.88306-4e-3zm0.0012 0.16972-0.89739-0.0064zm1e-3 0.16307-0.88449-0.01165z" stroke="#000" stroke-linecap="square" stroke-width=".05"/><path d="m3.7764 16.951-0.88306-4e-3zm0.0012 0.16972-0.89739-0.0064zm1e-3 0.16307-0.88449-0.01165z" stroke="#000" stroke-linecap="square" stroke-width=".05"/><path d="m8.1875 11.483-0.91608 0.0081zm0.0012 0.16972-0.9304 0.0057zm1e-3 0.16307-0.9175 4.3e-4z" stroke="#000" stroke-linecap="square" stroke-width=".05"/><path d="m6.4041 11.484-0.51513-0.0081zm0.0012 0.16972-0.52945-0.01057zm1e-3 0.16307-0.51655-0.01577z" stroke="#000" stroke-linecap="square" stroke-width=".05"/><path d="m5.352 11.482-0.81278 1.35e-4zm0.0012 0.16972-0.82711-0.0023zm1e-3 0.16307-0.81421-0.0075z" stroke="#000" stroke-linecap="square" stroke-width=".05"/><path d="m3.6858 11.464-0.7866-0.0069zm0.0012 0.16972-0.80092-0.0093zm1e-3 0.16307-0.78802-0.01457z" stroke="#000" stroke-linecap="square" stroke-width=".05"/><path d="m13.032 10.189-0.92715 0.0044zm0.0012 0.16972-0.94147 2e-3zm1e-3 0.16307-0.92857-0.0032z" stroke="#000" stroke-linecap="square" stroke-width=".05"/><path d="m14.215 10.185-0.54681 0.0024zm0.0012 0.16972-0.56113-6.8e-5zm1e-3 0.16307-0.54823-0.0053z" stroke="#000" stroke-linecap="square" stroke-width=".05"/><path d="m15.529 10.193-0.55921-0.0018zm0.0012 0.16972-0.57353-0.0042zm1e-3 0.16307-0.56063-0.0094z" stroke="#000" stroke-linecap="square" stroke-width=".05"/><path d="m16.704 10.182-0.75765 0.0044zm0.0012 0.16972-0.77197 2e-3zm1e-3 0.16307-0.75907-0.0032z" stroke="#000" stroke-linecap="square" stroke-width=".05"/><path d="m16.945 6.4094 2e-3 0.40566-0.64121 0.00309-4.11e-4 -0.085265 0.56542-0.00273-0.0015-0.32039z" stroke="#000" stroke-linecap="square" stroke-width=".03" aria-label="L"/><path d="m15.864 2.0502 1.2226-0.45622 0.19159 0.48843-1.2245 0.46644z"/><path d="m18.995 3.0394-0.0183-1.6018-0.65891 0.2572-0.20046-0.50552 1.4207-0.55872-8e-3 2.4153z"/><path d="m11.224 3.7968 1.2451-0.49529 0.18512 0.47262-1.2313 0.48485z"/><path d="m14.15 10.158 0.35295 2e-3 0.0152-7.0653-0.82304 0.3417-0.21143-0.52161 1.4339-0.53161 0.18708 0.48273-0.32305 0.13871 0.0273 7.1575 0.25929 8.3e-4 1e-3 0.3853-0.92128 8e-4z"/><path d="m18.991 10.556-2.382-8e-3 -9e-3 -0.41117 2.3824 0.0117 0.0435-2.9162-0.36999 0.0459 2e-3 -0.3603 0.36086-0.14456-2e-3 -0.92169-0.30198-0.19905-0.0116-0.36296 0.29316 0.0712-5e-3 -1.2957 0.54677 2.1e-4 -3e-3 7.0914-0.54409-0.01z"/><path d="m4.9549 6.6642-0.18963-0.49756 1.1314-0.43137 0.17141 0.49064"/><path d="m5.861 6.2748-0.0179 5.178 0.0943 4e-3 -1e-3 0.37382-0.61354-5e-3 -3e-3 -0.36798 0.1841 8.7e-4 -7e-3 -5.0685"/><path d="m6.8049 5.9571-0.17381-0.47265 1.2099-0.43733 0.16444 0.45879"/><path d="m15.53 15.912 0.036-5.3615-0.12721 1e-3 -1e-3 -0.3956 0.57241 3e-3 3e-3 0.38343-0.18082 5e-3 7e-5 1.3268v1.2586l3.1471-0.0168 2e-3 -0.91705 0.51614 5e-3 -4e-3 2.0264-0.51551-8e-3 -3e-3 -0.71494-3.1434 0.0375 3e-3 2.3684 1.9752-3e-3 4e-3 0.37123-2.8249 7e-3 -2e-3 -0.37937z"/><path d="m19.493 15.3 2e-3 1.1845-0.53006 4e-3 -7e-3 -1.1894z"/><path d="m18.956 19.265-0.30059 1e-3 -0.0121-0.39961s0.14513-0.0105 0.28508-0.14276c0.0434-0.041 0.0619-0.25397 0.0619-0.25397s-0.036-0.21938-0.0658-0.26223c-0.11696-0.16778-0.26855-0.13169-0.26855-0.13169l-0.0126-0.41868 0.32588-5e-3 2e-3 -0.27581 0.50991-3e-3 -3e-3 2.1688-0.51858 6e-3z"/><path d="m7.1934 22.297 1.1435 8.3e-4 -0.0101 0.60141-1.1389 8.3e-4z"/><path d="m5.2148 22.301 0.26375 1e-3 -0.0107-4.9735-0.2017 3e-3 -4e-3 -0.38322 0.64873-0.0113 3e-3 0.38076-0.17882 9e-3 0.0414 4.9727 0.4766-5e-3 2e-4 0.595-1.0402 4e-3z"/><path d="m2.8614 22.893-5.18e-4 -0.59154 1.1975-3e-3 -0.0059 0.59547z"/><path d="m2.3309 7.6016-0.19781-0.46662 1.4716-0.535 0.18328 0.48491"/><path d="m13.487 23.538-3.5588-0.0225-1e-3 0.25356-0.34272-4e-3 -5e-3 -0.55615 3.9078 0.0284-4e-3 -0.20301 0.38974-2e-3 -4.2e-4 0.81942-0.38232-1e-3z"/><path d="m18.948 22.69 0.53723 3e-3 3e-3 1.5211-0.53139-9e-3z"/><path d="m18.925 28.928-0.38795 2e-3 -7e-3 -0.31378 0.38811-1.3e-4 -6e-3 -0.82971 0.5305-1e-3 -5e-3 1.3321-0.51083-5e-3z"/><path d="m6.7817 29.285 5.1e-4 -1.4281 0.56646-7.4e-4 -7e-3 0.7628 0.36418 1e-3 -3e-3 0.38729-0.34415-8.6e-4 -4e-3 0.27551z"/><path d="m18.906 30.013 0.54973 5e-3 -3e-3 1.3966h-0.54098z"/><path d="m6.7739 30.268 0.57993-5e-3 4e-3 1.243-0.572 2e-3z"/><path d="m18.901 36.372-0.68106-7e-3 -5e-3 -0.37396 0.69781-3e-3 -3e-3 -0.65385 0.53745-0.0139 1e-3 1.4058-0.54521 1.5e-4z"/><path d="m1.0846 35.231 0.57733-0.01 0.01994 0.76753 0.59451-6e-3 0.0089 0.39632-0.5935 3e-3 0.0077 0.39978-0.60443 0.0138z"/><path d="m1.1009 37.676h0.59267v1.524h-0.59267z"/><path d="m18.895 37.618 0.53568-2e-3 -1e-3 1.6433-0.53107-7e-3z"/><path d="m7.3376 38.272 2e-3 0.23777-0.37072-1.3e-4 -0.0138-0.81995 0.37295-2e-3 5e-3 0.29655 5.1459 0.0125-7e-3 -0.27611 0.38117 2e-3 0.02 0.88869-0.38943-5e-3 -5e-3 -0.3399z"/><path d="m1.119 40.041 0.55966-6e-3 0.0057 0.69908 1.6335-7e-3 -9.52e-4 -0.38344 0.43985-1e-3s0.05808 0.2503 0.1624 0.3222c0.08215 0.0566 0.93306 0.0697 0.99587 0.0245 0.12576-0.0905 0.1953-0.34173 0.1953-0.34173l0.36394-5e-3 -8e-5 0.39039 1.493-0.0193-3e-3 -1.3494 0.36049 0.0139 8e-3 1.3461 2.3634-7e-3 1e-3 -2.4545 0.36724-4e-3 0.0247 2.4598 2.3682 0.0238 0.0304-1.2808 0.35782-5e-3 0.0175 1.2931 1.778 0.0176 6e-3 -0.45862 0.393 3e-3s0.0963 0.28385 0.24379 0.44694c0.0662 0.0526 0.7604 0.0554 0.8211-0.0145 0.17577-0.2033 0.29864-0.43524 0.29864-0.43524l0.37183 3e-3 -0.0117 0.45539 2.1255-5e-3 -5e-3 -0.62701 0.56248-4e-3v1.1785l-9.248 6e-3 -9.0909-6e-3z"/><path d="m9.6976 35.736-2.3233 7e-3 1.4e-4 1.0435-0.40797-8.6e-4 -6e-3 -0.41232-0.15326-7e-3 -0.0123-0.3697 0.14893-6e-3 -2e-3 -0.67305s3.6222-5e-3 5.9373 0.0112l0.0164 0.67446 0.39421-8.7e-4 2e-3 0.41133-0.4103 4e-3 -5e-3 0.39804-0.38927 3e-3 -0.0174-1.108s-1.6309 0.0143-2.4471 0.0142l0.0358 2.4045-0.33146-0.025z"/><path d="m5.1894 33.762-0.62664 0.0139 4.43e-4 0.30051-0.57842 4e-3 -0.0088-0.28449-1.0731-7e-3 -0.19575 0.30892-0.5527 0.0103-0.01205-0.18386 0.20514-0.11362-0.68704-0.0206-0.0094 0.2874-0.56042 0.0127 0.0046-0.86486 5.6828-0.0289 0.0141-0.76465 0.54689 6e-3 2e-3 0.75881 0.96624 0.0137 2e-3 -0.34836 0.4203 2e-3s0.0329 0.19105 0.18863 0.31807c0.0471 0.0384 0.39522 0.0821 0.39522 0.0821s0.40208-0.0253 0.4503-0.0691c0.14911-0.13555 0.2677-0.34803 0.2677-0.34803l0.32299 8.3e-4 3e-3 0.45557 1.3512-0.0165 0.0186-1.1401 0.3808 5.3e-4 -5e-3 1.1313 3.7343-0.0124 0.0177-0.41836 0.42963-5e-3s0.0464 0.27061 0.20069 0.37291c0.0547 0.0362 0.40641 0.0463 0.40641 0.0463s0.36159-0.0364 0.39734-0.0711c0.13416-0.13027 0.22221-0.33157 0.22221-0.33157l0.34922 5e-3 4e-3 0.3977 1.0413-8e-3 8e-3 -1.08h0.55959l-3e-3 2.0428-0.55423 2e-3 1e-3 -0.42674-1.0615-1.3e-4 0.0152 0.39366-0.50314 0.0167s-4e-3 -0.29045-0.13193-0.3739c-0.0661-0.0432-0.33598-0.0447-0.33598-0.0447s-0.34771-2e-3 -0.39853 0.0531c-0.13484 0.14574-0.19201 0.33996-0.19201 0.33996l-0.45854-0.01-7e-3 -0.42144-10.215 0.01z"/><path d="m3.1329 36.004 2.1167-8e-3 0.0123-2.2731 0.38468 9e-3 5e-3 2.2527 0.27011 4e-3 2e-3 0.37332-2.7867 7e-3 -4e-3 -0.36544z"/><path d="m14.901 33.689 1e-3 2.3032 2.4501-7e-3 -4e-3 0.39671-3.1551 0.0417 4e-3 -0.42954 0.36215 7.3e-4 8e-3 -2.2916z"/><path d="m14.568 33.469-0.0152-2.532-2.474-3e-3 2e-3 0.19885-0.37007 6e-3 -4e-3 -2.1121-0.18916-2e-3 -1e-3 -0.36935 0.19498 1e-3 2e-3 -0.50007 3.2017 6e-3 -3e-3 0.44134 0.16126 3e-3 1e-3 0.32258-0.13643-5e-3 -7e-3 0.77287-0.36833-2e-3 -2e-3 -1.2004-2.4841-9e-3 0.0117 2.1764 2.469-6e-3 -4e-3 -0.24984 0.34962-1e-3 0.0207 3.0427z"/><path d="m8.9224 29.014 9.2e-4 -0.37988 1.2273 9e-3 0.01-2.4824-2.8174 0.0234-2e-3 0.59746-0.53954 6e-3 0.0143-1.1215 2.7558-0.0215-4e-3 -1.5936 0.35875 0.0127 6.6e-4 1.5851 3.5693-3e-3 -7e-3 -0.93191 0.38588 4e-3 3e-3 0.92692 1.1687 3e-3 5e-5 0.49764-4.5554 0.0234 0.0139 2.4878 0.32778-7e-3 -6e-3 0.3735z"/><path d="m15.909 25.314 0.38974 8e-3s0.087 0.20972 0.19371 0.28508c0.0783 0.0553 0.34375 0.0453 0.34375 0.0453s0.33871-0.0285 0.37885-0.0453c0.15619-0.0652 0.19114-0.30575 0.19114-0.30575l0.31902 4e-3 -8e-5 0.36363 1.1817-5e-3 1e-3 -0.56868 0.56528-4e-3 6e-3 1.6474-0.56738 9.2e-4 -3e-3 -0.59468-2.3984 0.0115v2.46l1.1852-7e-4 2e-3 0.31691-1.861-3e-4 -4e-3 -0.31032 0.32134 3e-3 1e-3 -2.4719-0.24166 4e-3z"/><path d="m1.5857 7.8647c-0.19678 0.0843-0.25003 0.0902-0.25003 0.0902l0.01301 0.78458 0.23976-0.0288-0.0032 0.42358-0.23278 0.15073 0.01876 0.55634 0.23373 0.20908 0.01233 0.46406-0.31896-8e-3 -0.0091 0.93031 1.6651-0.013 0.0088 0.40343-1.6666 0.0197 0.0058 2.3707 2.7033 0.0307 0.0083 0.33115-2.6858-0.0165v2.3619l1.5782-2e-3 0.0063 0.39876h-1.5977l0.0088 1.4622 0.27517 1.5e-4 0.01591 0.50389-0.26932 0.0624 0.0058 0.81897 0.24594 0.0919-0.0013 0.4788-0.28686 0.0166-0.0058 1.5104c0.16974-2e-3 0.30626 1e-3 0.47592 5e-3l-0.01323 0.64273c-0.33453-4e-3 -0.66907-6e-3 -1.0036-9e-3l7.48e-4 -7.6831 7.57e-4 -7.6826 0.65126-0.15342"/><path d="m3.9791 11.829-0.31004 1.5e-4 8.7e-4 -0.38566 0.90774 6e-3 -0.0026 0.38375-0.18599-8e-3 0.0085 5.125 0.18075 4e-5 -0.0099 0.38191-0.88642-0.0205 0.0011-0.37979 0.2903-5e-4"/><path d="m9.5565 22.854-0.51801 6e-3 -4e-3 -0.55243 0.51822-0.01-7e-3 -1.1391-0.30699-3e-3 2.3e-4 -0.40217 0.29513-0.0815-1e-3 -1.0753-0.30234-0.10724 1.9e-4 -0.42713 0.30989-7e-3 8e-3 -1.7242-1.6651-0.0134 7e-3 -0.38512h1.6789l-3.4e-4 -5.079-1.403-0.01-1e-3 -0.40471 1.4292-4e-5 -0.0236-2.5298-0.37852-0.0111 0.0115-0.31459 0.36169-0.27012-0.0103-0.67114-0.31549-0.20601-4e-3 -0.37772 0.36076-3e-3 -8e-3 -2.0817-0.43609 0.15705-0.1846-0.51108 1.2899-0.47959 0.19533 0.49952-0.46008 0.17789 0.029 2.2287 0.3229 2e-3 8e-3 0.47172-0.30051 0.15396-0.0566 0.59743 0.3238 0.22948 0.0336 0.39135-0.37135 7e-3 4e-3 1.2597h2.1746v0.38182l-2.1747-3e-3 4e-3 3.965 3.2744 5e-3 0.011-3.9563-0.30603 2e-3 -1e-3 -0.39876 0.7631-1.3e-4 8.7e-4 0.38629-0.17846 9.4e-4 -0.0115 4.2553-3.5432 0.0224-0.0229 4.5585 1.501-8e-3 0.0398-3.4353 2.5756-5e-3 -7e-3 0.38746-0.19934 9.3e-4 2e-3 0.83567-0.3843 5e-3 -8e-3 -0.82121-1.68-4e-3 -0.014 1.9534 1.6739-5e-3 -2.2e-4 -0.33888 0.40887-2e-3 -1e-3 0.83451-0.40998-1.3e-4 5e-3 -0.26339-1.6822 0.0117-0.0144 1.129-1.826 0.0253-2e-3 1.0674 3.5241-0.01-6e-3 -1.1796 0.3798-5e-3 6e-3 1.1912 5.1104-0.0216-4.8e-4 -0.24739 0.51061-6e-3 6e-3 1.3666-0.51929-0.0117 1e-3 -0.83061-5.0918 0.059-5e-3 1.0972-0.38539-1e-3 -5e-3 -1.0948-3.5259 0.028 8e-3 1.9195-0.39865 2e-3z"/><path d="m9.5676 14.563h-2.6247c-0.02 0.7848 2e-3 1.5699 0.0117 2.3548l0.30959 6e-3 4e-3 0.38458-0.99264 0.0167-5e-3 -0.40388 0.33232 1e-3 0.0188-5.0803-0.29068-3.2e-4 -1e-3 -0.38792 0.95844 2e-3 -1e-3 0.38566-0.33888-2.1e-4 -6e-3 2.3824h2.6247z"/><path d="m7.8594 8.5258 0.00196 0.40566-0.64121 0.00309-4.111e-4 -0.085265 0.56542-0.00273-0.00154-0.32039z" stroke="#000" stroke-linecap="square" stroke-width=".03" aria-label="L"/><path d="m3.7902 9.2625 0.00196 0.40566-0.64121 0.00309-4.111e-4 -0.085265 0.56542-0.00273-0.00154-0.32039z" stroke="#000" stroke-linecap="square" stroke-width=".03" aria-label="L"/><path d="m3.8136 19.541 0.00196 0.40566-0.64121 0.0031-4.112e-4 -0.08527 0.56542-0.0027-0.00154-0.32039z" stroke="#000" stroke-linecap="square" stroke-width=".03" aria-label="L"/><path d="m7.8243 19.623 0.00196 0.40566-0.64121 0.0031-4.112e-4 -0.08527 0.56542-0.0027-0.00154-0.32039z" stroke="#000" stroke-linecap="square" stroke-width=".03" aria-label="L"/><path d="m16.59 18.397 2e-3 0.40566-0.64121 0.0031-4.11e-4 -0.08527 0.56542-0.0027-0.0015-0.32039z" stroke="#000" stroke-linecap="square" stroke-width=".03" aria-label="L"/><path d="m16.623 23.379 2e-3 0.40566-0.64121 0.0031-4.11e-4 -0.08527 0.56542-0.0027-0.0015-0.32039z" stroke="#000" stroke-linecap="square" stroke-width=".03" aria-label="L"/><path d="m9.7531 30.722 0.00196 0.40566-0.64121 0.0031-4.112e-4 -0.08527 0.56542-0.0027-0.00154-0.32039z" stroke="#000" stroke-linecap="square" stroke-width=".03" aria-label="L"/><path d="m17.132 30.965 2e-3 0.40566-0.64121 0.0031-4.11e-4 -0.08527 0.56542-0.0027-0.0015-0.32039z" stroke="#000" stroke-linecap="square" stroke-width=".03" aria-label="L"/><path d="m16.015 38.575 2e-3 0.40565-0.64121 0.0031-4.11e-4 -0.08527 0.56542-0.0027-0.0015-0.32039z" stroke="#000" stroke-linecap="square" stroke-width=".03" aria-label="L"/><path d="m4.3683 38.242 0.00196 0.40566-0.64121 0.0031-4.111e-4 -0.08527 0.56542-0.0027-0.00154-0.32039z" stroke="#000" stroke-linecap="square" stroke-width=".03" aria-label="L"/><path d="m11.642 12.357q0.08742-5.37e-4 0.15871 0.03736 0.07128 0.03746 0.11086 0.10052 0.0274 0.04375 0.03979 0.09794 0.01239 0.05376 0.01293 0.14203l9.94e-4 0.16192-0.64121 0.0039-9.83e-4 -0.16019q-5.76e-4 -0.09388 0.01286-0.14908 0.01301-0.05563 0.03645-0.09411 0.04051-0.06571 0.10832-0.10273 0.06781-0.03702 0.16126-0.03759zm-7.53e-4 0.08915q-0.07536 4.62e-4 -0.12687 0.02705-0.05152 0.02659-0.08091 0.07888-0.0213 0.03803-0.02922 0.08071-0.0083 0.04268-8e-3 0.10211l4.91e-4 0.0801 0.49479-3e-3 -4.92e-4 -0.0801q-3.77e-4 -0.06158-0.0097-0.10717-0.0093-0.04602-0.03411-0.0842-0.03087-0.04761-0.08097-0.07099-0.0501-0.02381-0.12503-0.02335z" stroke="#000" stroke-linecap="square" stroke-width=".03" aria-label="D"/><path d="m17.331 11.596q0.08742-5.36e-4 0.15871 0.03736 0.07129 0.03746 0.11086 0.10052 0.0274 0.04376 0.03979 0.09795 0.01239 0.05375 0.01293 0.14203l9.93e-4 0.16192-0.64121 0.0039-9.83e-4 -0.16019q-5.76e-4 -0.09388 0.01287-0.14908 0.01301-0.05563 0.03646-0.09411 0.04051-0.06571 0.10832-0.10273 0.06781-0.03702 0.16126-0.03759zm-7.54e-4 0.08915q-0.07536 4.62e-4 -0.12687 0.02705-0.05152 0.02659-0.08091 0.07888-0.0213 0.03803-0.02922 0.08071-0.0083 0.04268-8e-3 0.10211l4.92e-4 0.0801 0.49479-3e-3 -4.91e-4 -0.0801q-3.78e-4 -0.06158-0.0097-0.10717-0.0093-0.04602-0.03411-0.08419-0.03087-0.04761-0.08097-0.07099-0.0501-0.02381-0.12503-0.02335z" stroke="#000" stroke-linecap="square" stroke-width=".03" aria-label="D"/><path d="m17.347 14.523q0.08742-5.36e-4 0.15871 0.03736 0.07129 0.03746 0.11086 0.10052 0.0274 0.04375 0.03979 0.09795 0.01239 0.05375 0.01293 0.14203l9.94e-4 0.16192-0.64121 0.0039-9.83e-4 -0.16019q-5.76e-4 -0.09388 0.01287-0.14908 0.01301-0.05563 0.03645-0.09411 0.04051-0.06571 0.10832-0.10273 0.06781-0.03702 0.16126-0.03759zm-7.53e-4 0.08915q-0.07536 4.62e-4 -0.12687 0.02705-0.05152 0.02659-0.08091 0.07888-0.0213 0.03803-0.02922 0.08071-0.0083 0.04268-8e-3 0.10211l4.91e-4 0.0801 0.49479-3e-3 -4.92e-4 -0.0801q-3.77e-4 -0.06158-0.0097-0.10717-0.0093-0.04602-0.03411-0.08419-0.03086-0.04761-0.08097-0.071-0.0501-0.02381-0.12503-0.02335z" stroke="#000" stroke-linecap="square" stroke-width=".03" aria-label="D"/><path d="m12.651 16.987q0.08742-5.36e-4 0.15871 0.03736 0.07129 0.03746 0.11086 0.10052 0.0274 0.04375 0.03979 0.09794 0.01239 0.05376 0.01293 0.14203l9.93e-4 0.16192-0.64121 0.0039-9.83e-4 -0.16019q-5.76e-4 -0.09388 0.01287-0.14908 0.01301-0.05563 0.03646-0.0941 0.04051-0.06571 0.10832-0.10273 0.06781-0.03702 0.16126-0.03759zm-7.53e-4 0.08915q-0.07536 4.62e-4 -0.12687 0.02705-0.05152 0.02659-0.08091 0.07888-0.0213 0.03803-0.02921 0.08071-0.0083 0.04268-8e-3 0.10211l4.92e-4 0.0801 0.49479-3e-3 -4.91e-4 -0.0801q-3.78e-4 -0.06158-0.0097-0.10717-0.0093-0.04602-0.03411-0.0842-0.03086-0.04761-0.08097-0.07099-0.0501-0.02381-0.12503-0.02335z" stroke="#000" stroke-linecap="square" stroke-width=".03" aria-label="D"/><path d="m12.535 19.335q0.08742-5.37e-4 0.15871 0.03736 0.07128 0.03746 0.11086 0.10052 0.0274 0.04375 0.03979 0.09795 0.01239 0.05376 0.01293 0.14203l9.93e-4 0.16192-0.64121 0.0039-9.82e-4 -0.16019q-5.76e-4 -0.09388 0.01286-0.14908 0.01301-0.05563 0.03645-0.09411 0.04051-0.06571 0.10832-0.10273 0.06781-0.03702 0.16126-0.03759zm-7.53e-4 0.08915q-0.07536 4.62e-4 -0.12688 0.02705-0.05152 0.02659-0.08091 0.07888-0.0213 0.03803-0.02922 0.08071-0.0083 0.04268-8e-3 0.10211l4.91e-4 0.0801 0.49479-3e-3 -4.92e-4 -0.0801q-3.78e-4 -0.06158-0.0097-0.10717-0.0093-0.04602-0.03411-0.08419-0.03087-0.04761-0.08097-0.07099-0.0501-0.02381-0.12503-0.02335z" stroke="#000" stroke-linecap="square" stroke-width=".03" aria-label="D"/><path d="m8.2687 15.515q0.087417-5.36e-4 0.15871 0.03736 0.071286 0.03746 0.11086 0.10052 0.027399 0.04375 0.03979 0.09795 0.012388 0.05376 0.01293 0.14203l9.933e-4 0.16192-0.64121 0.0039-9.828e-4 -0.16019q-5.759e-4 -0.09388 0.012866-0.14908 0.013009-0.05563 0.036458-0.09411 0.040508-0.06571 0.10832-0.10273 0.067815-0.03702 0.16126-0.03759zm-7.431e-4 0.08915q-0.07536 4.62e-4 -0.12687 0.02705-0.051514 0.02659-0.080908 0.07888-0.021299 0.03803-0.029219 0.08071-0.00835 0.04268-0.00798 0.10211l4.914e-4 0.0801 0.49479-3e-3 -4.914e-4 -0.0801q-3.778e-4 -0.06158-0.0097-0.10717-0.00932-0.04602-0.034107-0.0842-0.030868-0.04761-0.080966-0.07099-0.050101-0.02381-0.12503-0.02335z" stroke="#000" stroke-linecap="square" stroke-width=".03" aria-label="D"/><path d="m8.3183 12.77q0.087417-5.36e-4 0.15871 0.03736 0.071286 0.03746 0.11086 0.10052 0.027399 0.04375 0.03979 0.09794 0.012388 0.05376 0.01293 0.14203l9.934e-4 0.16192-0.64121 0.0039-9.827e-4 -0.16019q-5.76e-4 -0.09388 0.012866-0.14908 0.013009-0.05563 0.036458-0.0941 0.040509-0.06571 0.10832-0.10273 0.067815-0.03702 0.16126-0.03759zm-7.431e-4 0.08915q-0.07536 4.62e-4 -0.12687 0.02705-0.051514 0.02659-0.080908 0.07888-0.021299 0.03803-0.029219 0.08071-0.00835 0.04268-0.00798 0.10211l4.914e-4 0.0801 0.49479-3e-3 -4.914e-4 -0.0801q-3.778e-4 -0.06158-0.0097-0.10717-0.00932-0.04602-0.034107-0.0842-0.030868-0.04761-0.080966-0.071-0.050101-0.02381-0.12503-0.02335z" stroke="#000" stroke-linecap="square" stroke-width=".03" aria-label="D"/><path d="m2.6297 12.671q0.087417-5.36e-4 0.15871 0.03736 0.071286 0.03746 0.11086 0.10052 0.027399 0.04376 0.03979 0.09795 0.012388 0.05376 0.01293 0.14203l9.934e-4 0.16192-0.64121 0.0039-9.828e-4 -0.16019q-5.76e-4 -0.09388 0.012866-0.14908 0.013009-0.05563 0.036458-0.0941 0.040508-0.06571 0.10832-0.10273 0.067815-0.03702 0.16126-0.03759zm-7.431e-4 0.08915q-0.07536 4.62e-4 -0.12687 0.02705-0.051514 0.02659-0.080908 0.07888-0.021299 0.03803-0.029219 0.08071-0.00835 0.04268-0.00798 0.10211l4.914e-4 0.0801 0.49479-3e-3 -4.914e-4 -0.0801q-3.778e-4 -0.06158-0.0097-0.10717-0.00932-0.04602-0.034107-0.08419-0.030868-0.04761-0.080966-0.07099-0.050101-0.02381-0.12503-0.02335z" stroke="#000" stroke-linecap="square" stroke-width=".03" aria-label="D"/><path d="m2.5801 15.432q0.087417-5.36e-4 0.15871 0.03736 0.071286 0.03746 0.11086 0.10052 0.027399 0.04375 0.039789 0.09794 0.012388 0.05376 0.01293 0.14203l9.934e-4 0.16192-0.64121 0.0039-9.827e-4 -0.16019q-5.76e-4 -0.09388 0.012866-0.14908 0.013009-0.05563 0.036458-0.09411 0.040508-0.06571 0.10832-0.10273 0.067815-0.03702 0.16126-0.03759zm-7.431e-4 0.08915q-0.07536 4.62e-4 -0.12687 0.02705-0.051514 0.02659-0.080908 0.07888-0.021299 0.03803-0.029219 0.08071-0.00835 0.04268-0.00798 0.10211l4.914e-4 0.0801 0.49479-3e-3 -4.914e-4 -0.0801q-3.778e-4 -0.06158-0.0097-0.10717-0.00932-0.04602-0.034107-0.0842-0.030868-0.04761-0.080966-0.071-0.050101-0.02381-0.12503-0.02335z" stroke="#000" stroke-linecap="square" stroke-width=".03" aria-label="D"/><path d="m11.81 21.907q0.08742-5.37e-4 0.15871 0.03736 0.07128 0.03746 0.11086 0.10052 0.0274 0.04376 0.03979 0.09795 0.01239 0.05375 0.01293 0.14203l9.93e-4 0.16192-0.64121 0.0039-9.82e-4 -0.16019q-5.76e-4 -0.09388 0.01286-0.14908 0.01301-0.05563 0.03645-0.09411 0.04051-0.06571 0.10832-0.10273 0.06781-0.03702 0.16126-0.03759zm-7.53e-4 0.08915q-0.07536 4.62e-4 -0.12688 0.02705-0.05152 0.02659-0.08091 0.07888-0.0213 0.03803-0.02922 0.08071-0.0083 0.04268-8e-3 0.10211l4.92e-4 0.0801 0.49479-3e-3 -4.92e-4 -0.0801q-3.78e-4 -0.06158-0.0097-0.10717-0.0093-0.04602-0.03411-0.0842-0.03086-0.04761-0.08097-0.07099-0.0501-0.02381-0.12503-0.02335z" stroke="#000" stroke-linecap="square" stroke-width=".03" aria-label="D"/><path d="m11.857 24.316q0.08742-5.36e-4 0.15871 0.03736 0.07129 0.03746 0.11086 0.10052 0.0274 0.04376 0.03979 0.09795 0.01239 0.05376 0.01293 0.14203l9.93e-4 0.16192-0.64121 0.0039-9.82e-4 -0.16019q-5.76e-4 -0.09388 0.01286-0.14908 0.01301-0.05563 0.03646-0.09411 0.04051-0.06571 0.10832-0.10273 0.06781-0.03702 0.16126-0.03759zm-7.53e-4 0.08915q-0.07536 4.63e-4 -0.12688 0.02705-0.05152 0.02659-0.08091 0.07888-0.0213 0.03803-0.02922 0.08071-0.0083 0.04268-8e-3 0.10211l4.91e-4 0.0801 0.49479-3e-3 -4.92e-4 -0.0801q-3.77e-4 -0.06158-0.0097-0.10717-0.0093-0.04602-0.03411-0.0842-0.03087-0.04761-0.08097-0.07099-0.0501-0.02381-0.12503-0.02335z" stroke="#000" stroke-linecap="square" stroke-width=".03" aria-label="D"/><path d="m8.7699 27.216q0.087417-5.36e-4 0.15871 0.03736 0.071286 0.03746 0.11086 0.10052 0.027399 0.04376 0.03979 0.09795 0.012388 0.05376 0.01293 0.14203l9.934e-4 0.16192-0.64121 0.0039-9.827e-4 -0.16019q-5.76e-4 -0.09388 0.012866-0.14908 0.013009-0.05563 0.036458-0.0941 0.040508-0.06571 0.10832-0.10273 0.067815-0.03702 0.16126-0.03759zm-7.431e-4 0.08915q-0.07536 4.62e-4 -0.12687 0.02705-0.051514 0.02659-0.080908 0.07888-0.021299 0.03803-0.029219 0.08071-0.00835 0.04268-0.00798 0.10211l4.914e-4 0.0801 0.49479-3e-3 -4.914e-4 -0.0801q-3.778e-4 -0.06158-0.0097-0.10717-0.00932-0.04602-0.034107-0.0842-0.030868-0.04761-0.080966-0.07099-0.050101-0.02381-0.12503-0.02335z" stroke="#000" stroke-linecap="square" stroke-width=".03" aria-label="D"/><path d="m17.727 27.216q0.08742-5.36e-4 0.15871 0.03736 0.07129 0.03746 0.11086 0.10052 0.0274 0.04375 0.03979 0.09795 0.01239 0.05375 0.01293 0.14203l9.93e-4 0.16192-0.64121 0.0039-9.83e-4 -0.16019q-5.76e-4 -0.09388 0.01287-0.14908 0.01301-0.05563 0.03645-0.09411 0.04051-0.06571 0.10832-0.10273 0.06781-0.03702 0.16126-0.03759zm-7.54e-4 0.08915q-0.07536 4.63e-4 -0.12687 0.02705-0.05152 0.02659-0.08091 0.07888-0.0213 0.03803-0.02922 0.08071-0.0083 0.04268-8e-3 0.10211l4.92e-4 0.0801 0.49479-3e-3 -4.91e-4 -0.0801q-3.78e-4 -0.06158-0.0097-0.10717-0.0093-0.04602-0.03411-0.0842-0.03086-0.04761-0.08097-0.07099-0.0501-0.02381-0.12503-0.02335z" stroke="#000" stroke-linecap="square" stroke-width=".03" aria-label="D"/><path d="m13.354 29.321q0.08742-5.36e-4 0.15871 0.03736 0.07128 0.03746 0.11086 0.10052 0.0274 0.04376 0.03979 0.09795 0.01239 0.05375 0.01293 0.14203l9.93e-4 0.16192-0.64121 0.0039-9.83e-4 -0.16019q-5.76e-4 -0.09388 0.01287-0.14908 0.01301-0.05563 0.03645-0.0941 0.04051-0.06571 0.10832-0.10273 0.06781-0.03702 0.16126-0.03759zm-7.53e-4 0.08915q-0.07536 4.62e-4 -0.12687 0.02705-0.05152 0.02659-0.08091 0.07887-0.0213 0.03803-0.02922 0.08071-0.0083 0.04268-8e-3 0.10211l4.91e-4 0.0801 0.49479-3e-3 -4.91e-4 -0.0801q-3.78e-4 -0.06158-0.0097-0.10717-0.0093-0.04602-0.03411-0.0842-0.03087-0.04761-0.08097-0.07099-0.0501-0.02381-0.12503-0.02335z" stroke="#000" stroke-linecap="square" stroke-width=".03" aria-label="D"/><path d="m13.377 31.847q0.08742-5.36e-4 0.15871 0.03736 0.07129 0.03746 0.11086 0.10052 0.0274 0.04376 0.03979 0.09795 0.01239 0.05376 0.01293 0.14203l9.93e-4 0.16192-0.64121 0.0039-9.83e-4 -0.16019q-5.76e-4 -0.09388 0.01287-0.14908 0.01301-0.05563 0.03646-0.0941 0.04051-0.06571 0.10832-0.10273 0.06781-0.03702 0.16126-0.03759zm-7.53e-4 0.08915q-0.07536 4.62e-4 -0.12687 0.02705-0.05152 0.02659-0.08091 0.07888-0.0213 0.03803-0.02921 0.08071-0.0083 0.04268-8e-3 0.10211l4.92e-4 0.0801 0.49479-3e-3 -4.91e-4 -0.0801q-3.78e-4 -0.06158-0.0097-0.10717-0.0093-0.04602-0.03411-0.08419-0.03087-0.04761-0.08097-0.07099-0.0501-0.02381-0.12503-0.02335z" stroke="#000" stroke-linecap="square" stroke-width=".03" aria-label="D"/><path d="m8.4893 36.594q0.087417-5.37e-4 0.15871 0.03736 0.071286 0.03746 0.11086 0.10052 0.027399 0.04376 0.03979 0.09795 0.012388 0.05376 0.01293 0.14203l9.934e-4 0.16192-0.64121 0.0039-9.835e-4 -0.16016q-5.76e-4 -0.09388 0.012866-0.14908 0.013009-0.05563 0.036458-0.0941 0.040508-0.06571 0.10832-0.10273 0.067815-0.03703 0.16126-0.0376zm-7.431e-4 0.08915q-0.07536 4.62e-4 -0.12687 0.02705-0.051514 0.02659-0.080908 0.07888-0.021299 0.03803-0.029219 0.08071-0.00835 0.04268-0.00798 0.10211l4.914e-4 0.0801 0.49479-3e-3 -4.914e-4 -0.0801q-3.778e-4 -0.06158-0.0097-0.10717-0.00932-0.04602-0.034107-0.08419-0.030868-0.04761-0.080966-0.071-0.050101-0.02381-0.12503-0.02335z" stroke="#000" stroke-linecap="square" stroke-width=".03" aria-label="D"/><path d="m11.272 36.617q0.08742-5.36e-4 0.15871 0.03736 0.07128 0.03746 0.11086 0.10052 0.0274 0.04376 0.03979 0.09795 0.01239 0.05376 0.01293 0.14203l9.93e-4 0.16192-0.64121 0.0039-9.83e-4 -0.16019q-5.76e-4 -0.09388 0.01287-0.14908 0.01301-0.05563 0.03645-0.0941 0.04051-0.06571 0.10832-0.10273 0.06781-0.03702 0.16126-0.03759zm-7.54e-4 0.08915q-0.07536 4.62e-4 -0.12687 0.02705-0.05152 0.02659-0.08091 0.07888-0.0213 0.03803-0.02921 0.08071-0.0083 0.04268-8e-3 0.10211l4.92e-4 0.0801 0.49479-3e-3 -4.91e-4 -0.0801q-3.78e-4 -0.06158-0.0097-0.10717-0.0093-0.04602-0.03411-0.08419-0.03087-0.04761-0.08097-0.07099-0.0501-0.02381-0.12503-0.02335z" stroke="#000" stroke-linecap="square" stroke-width=".03" aria-label="D"/><path d="m11.202 39.33q0.08742-5.37e-4 0.15871 0.03736 0.07128 0.03746 0.11086 0.10052 0.0274 0.04375 0.03979 0.09794 0.01239 0.05375 0.01293 0.14203l9.93e-4 0.16192-0.64121 0.0039-9.83e-4 -0.16019q-5.76e-4 -0.09388 0.01287-0.14908 0.01301-0.05563 0.03646-0.09411 0.04051-0.06571 0.10832-0.10273 0.06781-0.03702 0.16126-0.03759zm-7.54e-4 0.08915q-0.07536 4.62e-4 -0.12687 0.02705-0.05152 0.02659-0.08091 0.07888-0.0213 0.03803-0.02921 0.08071-0.0083 0.04268-8e-3 0.10211l4.92e-4 0.0801 0.49479-3e-3 -4.91e-4 -0.0801q-3.78e-4 -0.06158-0.0097-0.10717-0.0093-0.04602-0.03411-0.0842-0.03086-0.04761-0.08097-0.07099-0.0501-0.02381-0.12503-0.02335z" stroke="#000" stroke-linecap="square" stroke-width=".03" aria-label="D"/><path d="m8.5828 39.283q0.087417-5.36e-4 0.15871 0.03736 0.071286 0.03746 0.11086 0.10052 0.027399 0.04376 0.03979 0.09795 0.012388 0.05376 0.01293 0.14203l9.934e-4 0.16192-0.64121 0.0039-9.827e-4 -0.16019q-5.76e-4 -0.09388 0.012866-0.14908 0.013009-0.05563 0.036458-0.0941 0.040509-0.06571 0.10832-0.10273 0.067815-0.03702 0.16126-0.03759zm-7.432e-4 0.08915q-0.07536 4.62e-4 -0.12687 0.02705-0.051514 0.02659-0.080908 0.07888-0.021299 0.03803-0.029219 0.08071-0.00835 0.04268-0.00798 0.10211l4.914e-4 0.0801 0.49479-3e-3 -4.914e-4 -0.0801q-3.777e-4 -0.06158-0.0097-0.10717-0.00932-0.04602-0.034107-0.08419-0.030868-0.04761-0.080966-0.07099-0.050101-0.02381-0.12503-0.02335z" stroke="#000" stroke-linecap="square" stroke-width=".03" aria-label="D"/><path d="m6.1945 14.156v0.08527h-0.31393v0.31996h0.31393v0.08527h-0.64122v-0.08527h0.25149v-0.31996h-0.25149v-0.08527z" stroke="#000" stroke-linecap="square" stroke-width=".03" aria-label="H"/><path d="m13.504 27.418v0.08527h-0.31393v0.31996h0.31393v0.08527h-0.64122v-0.08527h0.25149v-0.31996h-0.25149v-0.08527z" stroke="#000" stroke-linecap="square" stroke-width=".03" aria-label="H"/>
</svg>
